<?xml version="1.0" encoding="utf-8"?>
<!-- Generator: Adobe Illustrator 27.2.0, SVG Export Plug-In . SVG Version: 6.00 Build 0)  -->
<svg version="1.1" xmlns="http://www.w3.org/2000/svg" xmlns:xlink="http://www.w3.org/1999/xlink" x="0px" y="0px"
	 viewBox="0 0 1442 204" style="enable-background:new 0 0 1442 204;" xml:space="preserve">
<style type="text/css">
	.st0{clip-path:url(#SVGID_00000096762437474743944140000001422671425078578049_);}
	.st1{fill:url(#SVGID_00000090297032477638490900000015612457403408625087_);}
	.st2{fill:url(#SVGID_00000023263864179889704260000015828363115169573524_);}
	.st3{fill:url(#SVGID_00000059307116369864549980000006349734460069558954_);}
	.st4{fill:url(#SVGID_00000088115999747807491200000017753993592889346205_);}
	.st5{fill:url(#SVGID_00000096021083510531742560000013760402236861831082_);}
	.st6{fill:url(#SVGID_00000083780668457913697160000007154797775603199386_);}
	.st7{fill:#1C2243;}
	.st8{fill:#FFFFFF;}
	.st9{fill:none;stroke:#FFFFFF;stroke-width:2;stroke-miterlimit:10;}
	.st10{fill:#3C98D4;}
	.st11{fill:#F6CF00;}
	.st12{fill:none;stroke:#F6CF00;stroke-miterlimit:10;}
	.st13{fill-rule:evenodd;clip-rule:evenodd;fill:#FFFFFF;}
	
		.st14{fill-rule:evenodd;clip-rule:evenodd;fill:#FFFFFF;stroke:#000000;stroke-linecap:round;stroke-linejoin:round;stroke-miterlimit:22.9256;}
	
		.st15{fill-rule:evenodd;clip-rule:evenodd;fill:#009FE3;stroke:#000000;stroke-width:0.75;stroke-linecap:round;stroke-linejoin:round;stroke-miterlimit:22.9256;}
	
		.st16{fill-rule:evenodd;clip-rule:evenodd;fill:none;stroke:#000000;stroke-width:0.1551;stroke-linecap:round;stroke-linejoin:round;stroke-miterlimit:22.9256;}
	
		.st17{fill-rule:evenodd;clip-rule:evenodd;fill:url(#SVGID_00000146481780799472025660000010241897138819866498_);stroke:#000000;stroke-width:0.75;stroke-linecap:round;stroke-linejoin:round;stroke-miterlimit:22.9256;}
	
		.st18{fill-rule:evenodd;clip-rule:evenodd;fill:#008AD1;stroke:#000000;stroke-width:0.75;stroke-linecap:round;stroke-linejoin:round;stroke-miterlimit:22.9256;}
	
		.st19{fill-rule:evenodd;clip-rule:evenodd;fill:#CD301E;stroke:#000000;stroke-width:0.75;stroke-linecap:round;stroke-linejoin:round;stroke-miterlimit:22.9256;}
	
		.st20{fill-rule:evenodd;clip-rule:evenodd;fill:url(#SVGID_00000131351053712691543240000006470582381536503729_);stroke:#000000;stroke-width:0.5;stroke-linecap:round;stroke-linejoin:round;stroke-miterlimit:22.9256;}
	
		.st21{fill-rule:evenodd;clip-rule:evenodd;fill:url(#SVGID_00000130645104234537155300000004823412244558807226_);stroke:#000000;stroke-width:0.5;stroke-linecap:round;stroke-linejoin:round;stroke-miterlimit:22.9256;}
	
		.st22{fill-rule:evenodd;clip-rule:evenodd;fill:url(#SVGID_00000029756961987719311410000013566433017386209708_);stroke:#000000;stroke-width:0.5;stroke-linecap:round;stroke-linejoin:round;stroke-miterlimit:22.9256;}
	
		.st23{fill-rule:evenodd;clip-rule:evenodd;fill:url(#SVGID_00000132796169205037502980000006445581613267100342_);stroke:#000000;stroke-width:0.5;stroke-linecap:round;stroke-linejoin:round;stroke-miterlimit:22.9256;}
	
		.st24{fill-rule:evenodd;clip-rule:evenodd;fill:url(#SVGID_00000134248118253011829630000014592407509528277139_);stroke:#000000;stroke-width:0.5;stroke-linecap:round;stroke-linejoin:round;stroke-miterlimit:22.9256;}
	
		.st25{fill-rule:evenodd;clip-rule:evenodd;fill:url(#SVGID_00000008119880051402598020000012533288082164947599_);stroke:#000000;stroke-width:0.5;stroke-linecap:round;stroke-linejoin:round;stroke-miterlimit:22.9256;}
	
		.st26{fill-rule:evenodd;clip-rule:evenodd;fill:url(#SVGID_00000146486756976604137490000017653873836340050105_);stroke:#000000;stroke-width:0.5;stroke-linecap:round;stroke-linejoin:round;stroke-miterlimit:22.9256;}
	
		.st27{fill-rule:evenodd;clip-rule:evenodd;fill:url(#SVGID_00000168835471926875582450000017334899183150092990_);stroke:#000000;stroke-width:0.5;stroke-linecap:round;stroke-linejoin:round;stroke-miterlimit:22.9256;}
	
		.st28{fill-rule:evenodd;clip-rule:evenodd;fill:url(#SVGID_00000000901725593230657270000014023289523763597488_);stroke:#000000;stroke-width:0.75;stroke-linecap:round;stroke-linejoin:round;stroke-miterlimit:22.9256;}
	
		.st29{fill-rule:evenodd;clip-rule:evenodd;fill:url(#SVGID_00000083072040162238085790000012167930403443787441_);stroke:#000000;stroke-width:0.75;stroke-linecap:round;stroke-linejoin:round;stroke-miterlimit:22.9256;}
	
		.st30{fill-rule:evenodd;clip-rule:evenodd;fill:none;stroke:#000000;stroke-width:0.75;stroke-linecap:round;stroke-linejoin:round;stroke-miterlimit:22.9256;}
	
		.st31{fill-rule:evenodd;clip-rule:evenodd;fill:url(#SVGID_00000149348863796512132180000016746003222392081850_);stroke:#000000;stroke-width:0.5;stroke-linecap:round;stroke-linejoin:round;stroke-miterlimit:22.9256;}
	
		.st32{fill-rule:evenodd;clip-rule:evenodd;fill:url(#SVGID_00000061455161992243838210000002326134983030417539_);stroke:#000000;stroke-width:0.5;stroke-linecap:round;stroke-linejoin:round;stroke-miterlimit:22.9256;}
	
		.st33{fill-rule:evenodd;clip-rule:evenodd;fill:url(#SVGID_00000160906640164662025610000009502658575305050034_);stroke:#000000;stroke-width:0.5;stroke-linecap:round;stroke-linejoin:round;stroke-miterlimit:22.9256;}
	
		.st34{fill-rule:evenodd;clip-rule:evenodd;fill:url(#SVGID_00000094578492110216936940000013438092549897041041_);stroke:#000000;stroke-width:0.5;stroke-linecap:round;stroke-linejoin:round;stroke-miterlimit:22.9256;}
	
		.st35{fill-rule:evenodd;clip-rule:evenodd;fill:url(#SVGID_00000041983003625270341020000004220170926142977470_);stroke:#000000;stroke-width:0.5;stroke-linecap:round;stroke-linejoin:round;stroke-miterlimit:22.9256;}
	
		.st36{fill-rule:evenodd;clip-rule:evenodd;fill:url(#SVGID_00000017518470033903433560000001691478093297360529_);stroke:#000000;stroke-width:0.5;stroke-linecap:round;stroke-linejoin:round;stroke-miterlimit:22.9256;}
	
		.st37{fill-rule:evenodd;clip-rule:evenodd;fill:url(#SVGID_00000052813883178478445980000000744378982189676182_);stroke:#000000;stroke-width:0.5;stroke-linecap:round;stroke-linejoin:round;stroke-miterlimit:22.9256;}
	
		.st38{fill-rule:evenodd;clip-rule:evenodd;fill:url(#SVGID_00000052810420444749015890000001736051808132405397_);stroke:#000000;stroke-width:0.25;stroke-linecap:round;stroke-linejoin:round;stroke-miterlimit:22.9256;}
	
		.st39{fill-rule:evenodd;clip-rule:evenodd;fill:url(#SVGID_00000115481868138608989540000005638927907432502174_);stroke:#000000;stroke-width:0.5;stroke-linecap:round;stroke-linejoin:round;stroke-miterlimit:22.9256;}
	.st40{fill:none;stroke:#000000;stroke-width:0.75;stroke-linecap:round;stroke-linejoin:round;stroke-miterlimit:22.9256;}
</style>
<g id="Camada_1">
	<g>
		<defs>
			<rect id="SVGID_1_" width="1442" height="204"/>
		</defs>
		<clipPath id="SVGID_00000129908581907598228650000002293789143951756183_">
			<use xlink:href="#SVGID_1_"  style="overflow:visible;"/>
		</clipPath>
		<g style="clip-path:url(#SVGID_00000129908581907598228650000002293789143951756183_);">
			<g>
				
					<linearGradient id="SVGID_00000125603083137078615600000001965798451342286476_" gradientUnits="userSpaceOnUse" x1="1498.7133" y1="-443.7861" x2="544.0328" y2="219.8329">
					<stop  offset="0" style="stop-color:#104C84"/>
					<stop  offset="1" style="stop-color:#1A3761"/>
				</linearGradient>
				<polygon style="fill:url(#SVGID_00000125603083137078615600000001965798451342286476_);" points="-12,585.6 -12,-384.6 
					1443.4,-384.6 1443.4,585.6 				"/>
			</g>
			
				<linearGradient id="SVGID_00000088851506049861445670000011180244749982815119_" gradientUnits="userSpaceOnUse" x1="1230.9017" y1="-587.2813" x2="156.8852" y2="300.4554">
				<stop  offset="0" style="stop-color:#104C84"/>
				<stop  offset="1" style="stop-color:#1A3761"/>
			</linearGradient>
			<path style="fill:url(#SVGID_00000088851506049861445670000011180244749982815119_);" d="M812.7,579.9
				c18.3-34.7,27.2-75.3,12-112.8c-7.9-19.4-21.8-39.4-39.1-51.4c-14.2-9.9-31.3-14.5-48-18.4c-29.4-6.9-66.5-11.3-84.3-39.1
				c-19.4-30.2-4.8-70.7,10.5-99.3c19.1-35.8,45.6-66.9,70.7-98.5c26.3-33.1,49.4-69.1,61.1-110.1c6.4-22.4,8.9-46.1,4.7-69.1
				C796-43,784.4-65.2,768-83.4c-27.7-30.9-69.9-43.8-110.2-46.7c-41.1-3-82.7,3.1-122.5,13.1c-58.1,14.5-113.5,42.6-174.4,44.4
				c-25,0.7-53.1-3.9-69.4-24.9c-15.9-20.5-18.8-53-9.7-76.9c9.2-24.2,30.5-40.9,52.4-53.4c26.2-15,54.9-25.4,82.9-36.4
				c26-10.3,53.6-20.7,75.6-38.4c10.4-8.4,18.4-18.7,24.4-30.6c5.9-11.7,9.7-25.6,4.8-38.3c-1.9-5-4.8-9.3-8.3-13.1H-12v970.3h821.6
				C810.7,583.7,811.7,581.8,812.7,579.9z"/>
			<g>
				
					<linearGradient id="SVGID_00000173153034538757557660000015545950275802364578_" gradientUnits="userSpaceOnUse" x1="805.6183" y1="503.6805" x2="1449.8679" y2="-187.1419">
					<stop  offset="0" style="stop-color:#104C84"/>
					<stop  offset="1" style="stop-color:#1A3761"/>
				</linearGradient>
				<path style="fill:url(#SVGID_00000173153034538757557660000015545950275802364578_);" d="M907-378.4
					c-6.4,39.2-6,110.1,31.4,137.2c24.2,17.6,51.7,14.4,77.8,3.6c62-25.6,97.7-58,167.7-67.5c117.9-15.9,124.1,96.9,35.7,151.8
					c-30.8,19.1-61,38.5-92.5,56.5c-138.4,79-341,243.4-249.8,415.7c35.2,66.5,109.7,106,188.7,90c69.6-14.1,265-149.9,292.5-13.5
					c6.9,34.1-8.9,70.7-24.1,101c-17.1,34-38.7,65.9-61.5,96.8h177.7c0,0,0-981.5,0-981.5c0,0.2-500.6-0.2-541.6-0.2
					C908.2-385,907.6-381.7,907-378.4z"/>
			</g>
			<g>
				
					<linearGradient id="SVGID_00000136384115355844225230000000777495670102478014_" gradientUnits="userSpaceOnUse" x1="1179.0793" y1="374.9308" x2="1664.2078" y2="-393.5114">
					<stop  offset="0" style="stop-color:#104C84"/>
					<stop  offset="1" style="stop-color:#1A3761"/>
				</linearGradient>
				<path style="fill:url(#SVGID_00000136384115355844225230000000777495670102478014_);" d="M1354-388.1
					c17.6,24,22.5,57.2,22.3,85.3c-0.4,47.8-22.5,87.5-56.1,122.6c-30.7,32.1-66.6,60.1-94.2,94.7c-24.1,30.2-41.8,65.7-49.9,102.7
					c-7.9,36.2-5.8,76,16.1,107.8c26.3,38.3,73.4,51.6,117.2,65.4c43.1,13.5,77.9,32.7,101.9,70c20.6,32.1,31.6,69.4,33.6,106.6
					c1.2,21.5-0.9,43.1-6,64h11.6c0,0,0-819.1,0-819.1C1450.6-388.1,1410.4-388.1,1354-388.1z"/>
			</g>
			
				<linearGradient id="SVGID_00000019676167586104774350000017384170392691438753_" gradientUnits="userSpaceOnUse" x1="-144.7964" y1="-59.1298" x2="465.8379" y2="551.5045">
				<stop  offset="0" style="stop-color:#104C84"/>
				<stop  offset="1" style="stop-color:#1A3761"/>
			</linearGradient>
			<path style="fill:url(#SVGID_00000019676167586104774350000017384170392691438753_);" d="M425.5,585.3
				c5.1-31.4,4.8-88.3-25.2-110c-19.4-14.1-41.4-11.6-62.4-2.9c-49.7,20.6-78.3,46.5-134.4,54.1c-94.5,12.8-99.5-77.7-28.6-121.7
				c24.7-15.3,48.9-30.9,74.2-45.3c111-63.4,273.3-195.1,200.3-333.3c-27-51.1-83-82.3-143.4-73.5c-4.7,0.7-9.4,1.9-14,3.2
				C-6.8,45.5-10.2-193.7-10.2-193.7s0,786.9,0,786.9c0-0.1,401.4,0.1,434.2,0.2C424.6,590.7,425.1,588,425.5,585.3z"/>
			<g>
				
					<linearGradient id="SVGID_00000166642254583832906220000016829575060826318015_" gradientUnits="userSpaceOnUse" x1="-495.2094" y1="-170.5389" x2="-669.8457" y2="-694.4492" gradientTransform="matrix(-1 0 0 -1 -593.7304 -363.9256)">
					<stop  offset="0" style="stop-color:#104C84"/>
					<stop  offset="1" style="stop-color:#1A3761"/>
				</linearGradient>
				<path style="fill:url(#SVGID_00000166642254583832906220000016829575060826318015_);" d="M67.2,593.2
					c-14.1-19.3-18.1-45.8-17.9-68.4c0.3-38.4,18-70.1,45-98.3c24.6-25.7,53.4-48.2,75.5-75.9c19.4-24.2,33.5-52.7,40-82.4
					c6.3-29,4.6-60.9-12.9-86.4c-21.1-30.7-58.8-41.4-93.9-52.4c-34.5-10.9-62.4-26.3-81.7-56.1C4.7,47.6-4.1,17.7-5.7-12.2
					C-6.6-29.4-5-46.7-0.9-63.5h-9.3c0,0,0,656.7,0,656.7C-10.2,593.2,22,593.2,67.2,593.2z"/>
			</g>
		</g>
	</g>
</g>
<g id="Camada_2">
	<g>
		<g>
			<g>
				<g>
					<path class="st7" d="M563.1,132.1c0-2.5,0.5-4.8,1.4-7c1-2.2,2.2-4.1,3.9-5.7c1.6-1.6,3.5-2.9,5.8-3.9c2.2-0.9,4.6-1.4,7.1-1.4
						c2.3,0,4.4,0.3,6.3,1c2,0.7,3.7,1.7,5.3,2.9c1.5,1.2,2.8,2.7,3.9,4.5c1,1.7,1.8,3.6,2.1,5.7H590c-0.6-1.9-1.7-3.4-3.2-4.5
						c-1.6-1.1-3.4-1.7-5.5-1.7c-1.4,0-2.6,0.3-3.8,0.8c-1.2,0.5-2.2,1.2-3.1,2.1c-0.9,0.9-1.6,2-2.1,3.1c-0.5,1.2-0.8,2.5-0.8,3.8
						c0,1.4,0.3,2.7,0.8,3.9c0.5,1.2,1.2,2.3,2.1,3.2c0.9,0.9,1.9,1.6,3.1,2.1c1.2,0.5,2.4,0.8,3.8,0.8c2.1,0,3.9-0.6,5.5-1.7
						c1.6-1.1,2.6-2.6,3.2-4.5h8.9c-0.4,2.1-1.1,4-2.1,5.7c-1,1.7-2.3,3.2-3.9,4.5c-1.5,1.2-3.3,2.2-5.3,2.9c-2,0.7-4.1,1-6.3,1
						c-2.5,0-4.8-0.5-7.1-1.4c-2.2-0.9-4.1-2.2-5.8-3.9c-1.6-1.6-2.9-3.5-3.9-5.7C563.6,136.9,563.1,134.6,563.1,132.1z"/>
					<path class="st7" d="M602.2,132.1c0-2.5,0.5-4.8,1.4-7c1-2.2,2.2-4.1,3.9-5.7c1.6-1.6,3.5-2.9,5.8-3.9c2.2-0.9,4.6-1.4,7.1-1.4
						c2.5,0,4.8,0.5,7.1,1.4c2.2,0.9,4.1,2.2,5.8,3.9c1.6,1.6,2.9,3.5,3.9,5.7c0.9,2.2,1.4,4.5,1.4,7c0,2.5-0.5,4.8-1.4,7
						c-0.9,2.2-2.2,4.1-3.9,5.7c-1.6,1.6-3.6,2.9-5.8,3.9c-2.2,0.9-4.6,1.4-7.1,1.4c-2.5,0-4.8-0.5-7.1-1.4
						c-2.2-0.9-4.1-2.2-5.8-3.9c-1.6-1.6-2.9-3.5-3.9-5.7C602.7,136.9,602.2,134.6,602.2,132.1z M610.7,132c0,1.4,0.3,2.7,0.8,3.9
						c0.5,1.2,1.2,2.3,2.1,3.2c0.9,0.9,1.9,1.6,3.1,2.1c1.2,0.5,2.4,0.8,3.8,0.8s2.6-0.3,3.8-0.8c1.2-0.5,2.2-1.2,3.1-2.1
						c0.9-0.9,1.6-2,2.1-3.2c0.5-1.2,0.8-2.5,0.8-3.9c0-1.4-0.3-2.6-0.8-3.8c-0.5-1.2-1.2-2.2-2.1-3.1c-0.9-0.9-1.9-1.6-3.1-2.1
						c-1.2-0.5-2.4-0.8-3.7-0.8c-1.3,0-2.6,0.3-3.7,0.8c-1.2,0.5-2.2,1.2-3.1,2.1c-0.9,0.9-1.6,2-2.1,3.1
						C610.9,129.4,610.7,130.7,610.7,132z"/>
					<path class="st7" d="M643.9,114.7h11.3l8,19.1l8-19.1h11.3v34.9h-8v-24.9l-7.4,18.2h-7.7l-7.4-18.2v24.9h-8V114.7z"/>
					<path class="st7" d="M689.8,114.7h25.6v7.1h-17.6v6.9h14.5v6.9h-14.5v6.8h17.6v7.1h-25.6V114.7z"/>
					<path class="st7" d="M721.3,114.7h10.1l12.8,23.2v-23.2h8v34.9h-10l-12.8-23.2v23.2h-8V114.7z"/>
					<path class="st7" d="M767.2,121.6h-11.1v-7h30.2v7h-11.1v27.9h-8V121.6z"/>
					<path class="st7" d="M796,114.7h9.8l12.8,34.9h-8.2l-2.3-6.1h-14.6l-2.2,6.1h-8.2L796,114.7z M806,137l-5-13.7l-5,13.7H806z"/>
					<path class="st7" d="M822.4,149.5v-34.9h14.1c2.6,0,4.9,0.4,7.1,1.3c2.2,0.9,4,2.1,5.6,3.6c1.6,1.5,2.8,3.4,3.6,5.5
						c0.9,2.1,1.3,4.5,1.3,7c0,2.5-0.4,4.9-1.3,7c-0.9,2.2-2.1,4-3.6,5.5c-1.6,1.5-3.4,2.7-5.6,3.6c-2.2,0.9-4.5,1.3-7.1,1.3H822.4z
						 M830.4,141.7h6.1c1.4,0,2.6-0.2,3.7-0.7c1.1-0.5,2.1-1.1,2.9-2c0.8-0.8,1.4-1.8,1.9-3s0.7-2.5,0.7-4c0-1.5-0.2-2.8-0.7-4
						c-0.5-1.2-1.1-2.2-1.9-3c-0.8-0.8-1.8-1.5-2.9-2c-1.1-0.5-2.4-0.7-3.7-0.7h-6.1V141.7z"/>
					<path class="st7" d="M857.8,132.1c0-2.5,0.5-4.8,1.4-7c1-2.2,2.2-4.1,3.9-5.7c1.6-1.6,3.5-2.9,5.8-3.9c2.2-0.9,4.6-1.4,7.1-1.4
						s4.8,0.5,7.1,1.4c2.2,0.9,4.1,2.2,5.8,3.9c1.6,1.6,2.9,3.5,3.9,5.7c0.9,2.2,1.4,4.5,1.4,7c0,2.5-0.5,4.8-1.4,7
						c-0.9,2.2-2.2,4.1-3.9,5.7c-1.6,1.6-3.6,2.9-5.8,3.9c-2.2,0.9-4.6,1.4-7.1,1.4s-4.8-0.5-7.1-1.4c-2.2-0.9-4.1-2.2-5.8-3.9
						c-1.6-1.6-2.9-3.5-3.9-5.7C858.3,136.9,857.8,134.6,857.8,132.1z M866.2,132c0,1.4,0.3,2.7,0.8,3.9c0.5,1.2,1.2,2.3,2.1,3.2
						c0.9,0.9,1.9,1.6,3.1,2.1c1.2,0.5,2.4,0.8,3.8,0.8s2.6-0.3,3.8-0.8c1.2-0.5,2.2-1.2,3.1-2.1c0.9-0.9,1.6-2,2.1-3.2
						c0.5-1.2,0.8-2.5,0.8-3.9c0-1.4-0.3-2.6-0.8-3.8c-0.5-1.2-1.2-2.2-2.1-3.1c-0.9-0.9-1.9-1.6-3.1-2.1c-1.2-0.5-2.4-0.8-3.7-0.8
						c-1.3,0-2.6,0.3-3.7,0.8c-1.2,0.5-2.2,1.2-3.1,2.1c-0.9,0.9-1.6,2-2.1,3.1C866.5,129.4,866.2,130.7,866.2,132z"/>
				</g>
			</g>
			<g>
				<g>
					<path class="st7" d="M572.1,67.3l9.5,26.3l9.3-26.3h9l-13.3,36.2h-10.2l-13.3-36.2H572.1z"/>
					<path class="st7" d="M604.1,67.3h26.6v7.4h-18.3v7.2h15.1V89h-15.1v7.1h18.3v7.4h-26.6V67.3z"/>
					<path class="st7" d="M636,78c0-3.6,1.2-6.4,3.7-8.3c2.5-1.9,6-2.9,10.6-2.9c4.7,0,8.3,1.1,10.7,3.2c2.4,2.1,3.7,5,3.7,8.7h-8.5
						c0-1.5-0.5-2.7-1.5-3.6c-1-0.9-2.5-1.4-4.7-1.4c-1.8,0-3.1,0.3-4.1,1c-1,0.7-1.5,1.6-1.5,2.8c0,0.8,0.2,1.4,0.6,1.9
						c0.4,0.5,0.9,1,1.6,1.3c0.7,0.4,1.4,0.7,2.3,0.9c0.9,0.2,1.8,0.5,2.8,0.7c1.5,0.3,3.1,0.7,4.7,1.1c1.6,0.4,3.1,0.9,4.5,1.7
						c1.3,0.7,2.5,1.7,3.3,3c0.9,1.3,1.3,2.9,1.3,5c0,3.3-1.2,6-3.6,8c-2.4,2-6.2,3-11.2,3c-5.1,0-9-1.1-11.6-3.2
						c-2.6-2.1-3.9-5-3.9-8.6h8.5c0.3,3.3,2.6,5,7,5c1.9,0,3.4-0.3,4.5-1c1.1-0.6,1.6-1.5,1.6-2.7c0-0.8-0.2-1.4-0.6-1.9
						c-0.4-0.5-1-0.9-1.7-1.2c-0.7-0.3-1.6-0.6-2.5-0.8c-1-0.2-2-0.4-3-0.6c-1.5-0.3-3-0.6-4.5-1c-1.5-0.4-2.9-0.9-4.2-1.7
						c-1.3-0.8-2.3-1.8-3.1-3.1C636.4,81.8,636,80.1,636,78z"/>
					<path class="st7" d="M679.6,74.6h-11.5v-7.2h31.4v7.2H688v28.9h-8.3V74.6z"/>
					<path class="st7" d="M703.7,67.3h8.3v36.2h-8.3V67.3z"/>
					<path class="st7" d="M734.7,67.3c4.2,0,7.6,0.9,10,2.7c2.4,1.8,3.6,4.3,3.6,7.4c0,1.8-0.4,3.4-1.3,4.7c-0.9,1.3-2.1,2.3-3.8,3
						c2.1,0.7,3.7,1.7,4.8,3.1c1.2,1.4,1.8,3.1,1.8,5.2c0,1.5-0.3,2.9-0.9,4.2c-0.6,1.2-1.5,2.3-2.7,3.2c-1.2,0.9-2.6,1.6-4.3,2
						c-1.7,0.5-3.6,0.7-5.7,0.7h-16.6V67.3H734.7z M734.2,82.7c1.7,0,3-0.3,3.9-1c1-0.7,1.5-1.7,1.5-3c0-1.3-0.5-2.3-1.5-2.9
						c-1-0.6-2.3-1-3.9-1h-6.3v7.9H734.2z M735.4,96c1.8,0,3.2-0.4,4.2-1.1c1-0.7,1.5-1.8,1.5-3.1c0-2.7-1.9-4-5.8-4h-7.4V96H735.4z
						"/>
					<path class="st7" d="M770.9,104c-5,0-8.9-1.3-11.7-3.8c-2.7-2.6-4.1-6.2-4.1-11V67.3h8.3v21.2c0,2.4,0.7,4.3,2,5.6
						c1.3,1.4,3.1,2,5.5,2c2.3,0,4.1-0.7,5.4-2c1.3-1.3,1.9-3.2,1.9-5.6V67.3h8.3v21.9c0,4.8-1.4,8.5-4.1,11
						C779.8,102.8,775.9,104,770.9,104z"/>
					<path class="st7" d="M793.6,67.3h8.3v28.6h15.5v7.6h-23.8V67.3z"/>
					<path class="st7" d="M831.9,67.3h10.2l13.3,36.2h-8.5l-2.4-6.4h-15.1l-2.3,6.4h-8.5L831.9,67.3z M842.2,90.5l-5.2-14.2
						l-5.2,14.2H842.2z"/>
					<path class="st7" d="M874.6,67.3c4.8,0,8.4,1,11,3.1c2.6,2.1,3.9,5,3.9,8.8c0,2.8-0.7,5.1-2.1,6.9c-1.4,1.8-3.3,3.2-5.8,4.1
						l7.9,13.3h-9.8l-7.1-12.2h-5.1v12.2h-8.3V67.3H874.6z M874.4,84.8c2.1,0,3.6-0.4,4.8-1.3c1.1-0.8,1.7-2,1.7-3.5
						c0-1.5-0.6-2.6-1.7-3.5c-1.1-0.8-2.7-1.3-4.8-1.3h-6.8v9.5H874.4z"/>
				</g>
			</g>
			<g>
				<path class="st8" d="M567.7,126.9c0-2.5,0.5-4.8,1.4-7c1-2.2,2.2-4.1,3.9-5.7c1.6-1.6,3.5-2.9,5.8-3.9c2.2-0.9,4.6-1.4,7.1-1.4
					c2.3,0,4.4,0.3,6.3,1c2,0.7,3.7,1.7,5.3,2.9c1.5,1.2,2.8,2.7,3.9,4.5c1,1.7,1.8,3.6,2.1,5.7h-8.9c-0.6-1.9-1.7-3.4-3.2-4.5
					c-1.6-1.1-3.4-1.7-5.5-1.7c-1.4,0-2.6,0.3-3.8,0.8c-1.2,0.5-2.2,1.2-3.1,2.1c-0.9,0.9-1.6,2-2.1,3.1c-0.5,1.2-0.8,2.5-0.8,3.8
					c0,1.4,0.3,2.7,0.8,3.9c0.5,1.2,1.2,2.3,2.1,3.2c0.9,0.9,1.9,1.6,3.1,2.1c1.2,0.5,2.4,0.8,3.8,0.8c2.1,0,3.9-0.6,5.5-1.7
					s2.6-2.6,3.2-4.5h8.9c-0.4,2.1-1.1,4-2.1,5.7c-1,1.7-2.3,3.2-3.9,4.5c-1.5,1.2-3.3,2.2-5.3,2.9c-2,0.7-4.1,1-6.3,1
					c-2.5,0-4.8-0.5-7.1-1.4c-2.2-0.9-4.1-2.2-5.8-3.9c-1.6-1.6-2.9-3.5-3.9-5.7C568.1,131.7,567.7,129.4,567.7,126.9z"/>
				<path class="st8" d="M606.8,126.9c0-2.5,0.5-4.8,1.4-7c1-2.2,2.2-4.1,3.9-5.7c1.6-1.6,3.5-2.9,5.8-3.9c2.2-0.9,4.6-1.4,7.1-1.4
					c2.5,0,4.8,0.5,7.1,1.4c2.2,0.9,4.1,2.2,5.8,3.9c1.6,1.6,2.9,3.5,3.9,5.7c0.9,2.2,1.4,4.5,1.4,7c0,2.5-0.5,4.8-1.4,7
					c-0.9,2.2-2.2,4.1-3.9,5.7c-1.6,1.6-3.6,2.9-5.8,3.9c-2.2,0.9-4.6,1.4-7.1,1.4c-2.5,0-4.8-0.5-7.1-1.4c-2.2-0.9-4.1-2.2-5.8-3.9
					c-1.6-1.6-2.9-3.5-3.9-5.7C607.3,131.7,606.8,129.4,606.8,126.9z M615.2,126.8c0,1.4,0.3,2.7,0.8,3.9c0.5,1.2,1.2,2.3,2.1,3.2
					c0.9,0.9,1.9,1.6,3.1,2.1c1.2,0.5,2.4,0.8,3.8,0.8c1.4,0,2.6-0.3,3.8-0.8c1.2-0.5,2.2-1.2,3.1-2.1c0.9-0.9,1.6-2,2.1-3.2
					c0.5-1.2,0.8-2.5,0.8-3.9c0-1.4-0.3-2.6-0.8-3.8c-0.5-1.2-1.2-2.2-2.1-3.1c-0.9-0.9-1.9-1.6-3.1-2.1c-1.2-0.5-2.4-0.8-3.7-0.8
					c-1.3,0-2.6,0.3-3.7,0.8c-1.2,0.5-2.2,1.2-3.1,2.1c-0.9,0.9-1.6,2-2.1,3.1C615.5,124.2,615.2,125.5,615.2,126.8z"/>
				<path class="st8" d="M648.5,109.4h11.3l8,19.1l8-19.1h11.3v34.9h-8v-24.9l-7.4,18.2H664l-7.4-18.2v24.9h-8V109.4z"/>
				<path class="st8" d="M694.4,109.4H720v7.1h-17.6v6.9h14.5v6.9h-14.5v6.8H720v7.1h-25.6V109.4z"/>
				<path class="st8" d="M725.8,109.4h10.1l12.8,23.2v-23.2h8v34.9h-10l-12.8-23.2v23.2h-8V109.4z"/>
				<path class="st8" d="M771.8,116.4h-11.1v-7H791v7h-11.1v27.9h-8V116.4z"/>
				<path class="st8" d="M800.6,109.4h9.8l12.8,34.9h-8.2l-2.3-6.1h-14.6l-2.2,6.1h-8.2L800.6,109.4z M810.5,131.8l-5-13.7l-5,13.7
					H810.5z"/>
				<path class="st8" d="M827,144.3v-34.9h14.1c2.6,0,4.9,0.4,7.1,1.3c2.2,0.9,4,2.1,5.6,3.6c1.6,1.5,2.8,3.4,3.6,5.5
					c0.9,2.1,1.3,4.5,1.3,7c0,2.5-0.4,4.9-1.3,7c-0.9,2.2-2.1,4-3.6,5.5c-1.6,1.5-3.4,2.7-5.6,3.6c-2.2,0.9-4.5,1.3-7.1,1.3H827z
					 M835,136.5h6.1c1.4,0,2.6-0.2,3.7-0.7c1.1-0.5,2.1-1.1,2.9-2c0.8-0.8,1.4-1.8,1.9-3s0.7-2.5,0.7-4c0-1.5-0.2-2.8-0.7-4
					c-0.5-1.2-1.1-2.2-1.9-3c-0.8-0.8-1.8-1.5-2.9-2c-1.1-0.5-2.4-0.7-3.7-0.7H835V136.5z"/>
				<path class="st8" d="M862.4,126.9c0-2.5,0.5-4.8,1.4-7c1-2.2,2.2-4.1,3.9-5.7c1.6-1.6,3.5-2.9,5.8-3.9c2.2-0.9,4.6-1.4,7.1-1.4
					s4.8,0.5,7.1,1.4c2.2,0.9,4.1,2.2,5.8,3.9c1.6,1.6,2.9,3.5,3.9,5.7c0.9,2.2,1.4,4.5,1.4,7c0,2.5-0.5,4.8-1.4,7
					c-0.9,2.2-2.2,4.1-3.9,5.7c-1.6,1.6-3.6,2.9-5.8,3.9c-2.2,0.9-4.6,1.4-7.1,1.4s-4.8-0.5-7.1-1.4c-2.2-0.9-4.1-2.2-5.8-3.9
					c-1.6-1.6-2.9-3.5-3.9-5.7C862.8,131.7,862.4,129.4,862.4,126.9z M870.8,126.8c0,1.4,0.3,2.7,0.8,3.9c0.5,1.2,1.2,2.3,2.1,3.2
					c0.9,0.9,1.9,1.6,3.1,2.1c1.2,0.5,2.4,0.8,3.8,0.8s2.6-0.3,3.8-0.8c1.2-0.5,2.2-1.2,3.1-2.1c0.9-0.9,1.6-2,2.1-3.2
					c0.5-1.2,0.8-2.5,0.8-3.9c0-1.4-0.3-2.6-0.8-3.8c-0.5-1.2-1.2-2.2-2.1-3.1c-0.9-0.9-1.9-1.6-3.1-2.1c-1.2-0.5-2.4-0.8-3.7-0.8
					c-1.3,0-2.6,0.3-3.7,0.8c-1.2,0.5-2.2,1.2-3.1,2.1c-0.9,0.9-1.6,2-2.1,3.1C871.1,124.2,870.8,125.5,870.8,126.8z"/>
			</g>
			<g>
				<path class="st8" d="M576.6,62.1l9.5,26.3l9.3-26.3h9l-13.3,36.2h-10.2l-13.3-36.2H576.6z"/>
				<path class="st8" d="M608.6,62.1h26.6v7.4H617v7.2H632v7.1H617v7.1h18.3v7.4h-26.6V62.1z"/>
				<path class="st8" d="M640.6,72.8c0-3.6,1.2-6.4,3.7-8.3c2.5-1.9,6-2.9,10.6-2.9c4.7,0,8.3,1.1,10.7,3.2c2.4,2.1,3.7,5,3.7,8.7
					h-8.5c0-1.5-0.5-2.7-1.5-3.6c-1-0.9-2.5-1.4-4.7-1.4c-1.8,0-3.1,0.3-4.1,1c-1,0.7-1.5,1.6-1.5,2.8c0,0.8,0.2,1.4,0.6,1.9
					c0.4,0.5,0.9,1,1.6,1.3c0.7,0.4,1.4,0.7,2.3,0.9c0.9,0.2,1.8,0.5,2.8,0.7c1.5,0.3,3.1,0.7,4.7,1.1c1.6,0.4,3.1,0.9,4.5,1.7
					c1.3,0.7,2.5,1.7,3.3,3c0.9,1.3,1.3,2.9,1.3,5c0,3.3-1.2,6-3.6,8c-2.4,2-6.2,3-11.2,3c-5.1,0-9-1.1-11.6-3.2
					c-2.6-2.1-3.9-5-3.9-8.6h8.5c0.3,3.3,2.6,5,7,5c1.9,0,3.4-0.3,4.5-1c1.1-0.6,1.6-1.5,1.6-2.7c0-0.8-0.2-1.4-0.6-1.9
					c-0.4-0.5-1-0.9-1.7-1.2c-0.7-0.3-1.6-0.6-2.5-0.8c-1-0.2-2-0.4-3-0.6c-1.5-0.3-3-0.6-4.5-1c-1.5-0.4-2.9-0.9-4.2-1.7
					c-1.3-0.8-2.3-1.8-3.1-3.1C641,76.6,640.6,74.9,640.6,72.8z"/>
				<path class="st8" d="M684.2,69.3h-11.5v-7.2h31.4v7.2h-11.6v28.9h-8.3V69.3z"/>
				<path class="st8" d="M708.2,62.1h8.3v36.2h-8.3V62.1z"/>
				<path class="st8" d="M739.2,62.1c4.2,0,7.6,0.9,10,2.7c2.4,1.8,3.6,4.3,3.6,7.4c0,1.8-0.4,3.4-1.3,4.7c-0.9,1.3-2.1,2.3-3.8,3
					c2.1,0.7,3.7,1.7,4.8,3.1c1.2,1.4,1.8,3.1,1.8,5.2c0,1.5-0.3,2.9-0.9,4.2c-0.6,1.2-1.5,2.3-2.7,3.2c-1.2,0.9-2.6,1.6-4.3,2
					c-1.7,0.5-3.6,0.7-5.7,0.7h-16.6V62.1H739.2z M738.7,77.5c1.7,0,3-0.3,3.9-1c1-0.7,1.5-1.7,1.5-3c0-1.3-0.5-2.3-1.5-2.9
					c-1-0.6-2.3-1-3.9-1h-6.3v7.9H738.7z M740,90.8c1.8,0,3.2-0.4,4.2-1.1c1-0.7,1.5-1.8,1.5-3.1c0-2.7-1.9-4-5.8-4h-7.4v8.2H740z"
					/>
				<path class="st8" d="M775.5,98.8c-5,0-8.9-1.3-11.7-3.8c-2.7-2.6-4.1-6.2-4.1-11V62.1h8.3v21.2c0,2.4,0.7,4.3,2,5.6
					c1.3,1.4,3.1,2,5.5,2c2.3,0,4.1-0.7,5.4-2c1.3-1.3,1.9-3.2,1.9-5.6V62.1h8.3V84c0,4.8-1.4,8.5-4.1,11
					C784.4,97.6,780.5,98.8,775.5,98.8z"/>
				<path class="st8" d="M798.1,62.1h8.3v28.6H822v7.6h-23.8V62.1z"/>
				<path class="st8" d="M836.5,62.1h10.2L860,98.3h-8.5l-2.4-6.4H834l-2.3,6.4h-8.5L836.5,62.1z M846.8,85.3l-5.2-14.2l-5.2,14.2
					H846.8z"/>
				<path class="st8" d="M879.1,62.1c4.8,0,8.4,1,11,3.1c2.6,2.1,3.9,5,3.9,8.8c0,2.8-0.7,5.1-2.1,6.9c-1.4,1.8-3.3,3.2-5.8,4.1
					l7.9,13.3h-9.8l-7.1-12.2h-5.1v12.2h-8.3V62.1H879.1z M878.9,79.6c2.1,0,3.6-0.4,4.8-1.3c1.1-0.8,1.7-2,1.7-3.5
					c0-1.5-0.6-2.6-1.7-3.5c-1.1-0.8-2.7-1.3-4.8-1.3h-6.8v9.5H878.9z"/>
			</g>
			<g>
				<g>
					<path class="st9" d="M558.1,154.8h-21.9c-1.3,0-2.3,1.2-2.3,2.6v12.7c0,1.4,1,2.6,2.3,2.6h11.7c0.1,0,0.1,0,0.2,0l6.8,3.2
						c0.7,0.3,1.4-0.2,1.4-1.1v-1.5c0-0.4,0.3-0.6,0.6-0.6h1.2c1.3,0,2.3-1.2,2.3-2.6v-12.7C560.3,156,559.3,154.8,558.1,154.8z"/>
				</g>
				<g>
					<g>
						<g>
							<path class="st10" d="M561.6,157.3h-21.9c-1.3,0-2.3,1.2-2.3,2.6v12.7c0,1.4,1,2.6,2.3,2.6h11.7c0.1,0,0.1,0,0.2,0l6.8,3.2
								c0.7,0.3,1.4-0.2,1.4-1.1v-1.5c0-0.4,0.3-0.6,0.6-0.6h1.2c1.3,0,2.3-1.2,2.3-2.6v-12.7C563.8,158.5,562.8,157.3,561.6,157.3z
								"/>
						</g>
					</g>
				</g>
			</g>
			<g>
				<g>
					<path class="st9" d="M559.8,26.1h-21.9c-1.3,0-2.3,1.2-2.3,2.6v12.7c0,1.4,1,2.6,2.3,2.6h11.7c0.1,0,0.1,0,0.2,0l6.8,3.2
						c0.7,0.3,1.4-0.2,1.4-1.1v-1.5c0-0.4,0.3-0.6,0.6-0.6h1.2c1.3,0,2.3-1.2,2.3-2.6V28.7C562.1,27.3,561,26.1,559.8,26.1z"/>
				</g>
				<g>
					<g>
						<path class="st8" d="M563.3,28.7h-21.9c-1.3,0-2.3,1.2-2.3,2.6V44c0,1.4,1,2.6,2.3,2.6h11.7c0.1,0,0.1,0,0.2,0l6.8,3.2
							c0.7,0.3,1.4-0.2,1.4-1.1v-1.5c0-0.4,0.3-0.6,0.6-0.6h1.2c1.3,0,2.3-1.2,2.3-2.6V31.3C565.6,29.8,564.5,28.7,563.3,28.7z"/>
					</g>
				</g>
			</g>
			<g>
				<g>
					<path class="st9" d="M900.4,27.8h27.8c1.6,0,2.9,1.5,2.9,3.3v16.1c0,1.8-1.3,3.3-2.9,3.3h-14.9c-0.1,0-0.2,0-0.3,0.1l-8.7,4.1
						c-0.8,0.4-1.8-0.3-1.8-1.3v-2c0-0.5-0.3-0.8-0.7-0.8h-1.5c-1.6,0-2.9-1.5-2.9-3.3V31.1C897.5,29.3,898.8,27.8,900.4,27.8z"/>
				</g>
				<g>
					<path class="st11" d="M896.7,31.8h27.8c1.6,0,2.9,1.5,2.9,3.3v16.1c0,1.8-1.3,3.3-2.9,3.3h-14.9c-0.1,0-0.2,0-0.3,0.1l-8.7,4.1
						c-0.8,0.4-1.8-0.3-1.8-1.3v-2c0-0.5-0.3-0.8-0.7-0.8h-1.5c-1.6,0-2.9-1.5-2.9-3.3V35.1C893.8,33.3,895.1,31.8,896.7,31.8z"/>
				</g>
			</g>
			<circle class="st12" cx="915.6" cy="166.7" r="13.7"/>
			<circle class="st10" cx="915.6" cy="166.7" r="12.8"/>
			<g>
				<g>
					<path class="st11" d="M920.4,161.8c0.2,0.2,0.5,0.3,0.8,0.1l1.8-1.3c0.2-0.2,0.3-0.5,0.1-0.8l0,0c-0.2-0.2-0.5-0.3-0.8-0.1
						l-1.8,1.3C920.2,161.2,920.2,161.6,920.4,161.8L920.4,161.8z"/>
					<path class="st11" d="M920.9,157.8c-0.3-0.2-0.6-0.1-0.8,0.2l-1.2,1.9c-0.2,0.2-0.1,0.6,0.1,0.7c0.3,0.2,0.6,0.1,0.8-0.2
						l1.2-1.9C921.2,158.3,921.2,157.9,920.9,157.8z"/>
					<path class="st11" d="M921.8,163.7l2.2-0.6c0.3-0.1,0.5-0.4,0.4-0.7c-0.1-0.3-0.4-0.4-0.7-0.3l-2.2,0.6
						c-0.3,0.1-0.5,0.4-0.4,0.7C921.2,163.6,921.5,163.7,921.8,163.7z"/>
					<path class="st8" d="M914.3,158.6c-0.3,0.2-0.4,0.6-0.2,0.9c-0.5,2.7-2.3,5-3.5,6.2c-0.3-0.2-0.7-0.2-1,0l-1.8,1.3
						c-1,0.7-1.2,2.2-0.5,3.2l-0.1-0.2l-0.3,0.3c-0.2,0.2-0.3,0.5-0.1,0.7l1,1.4c0.2,0.2,0.5,0.3,0.7,0.1l0.3-0.3l-0.2-0.3
						c0.6,0.9,1.8,1.1,2.7,0.7l3.6,3c0.1,0.1,0.2,0.1,0.4,0l0.1-0.1l1.4-1l0.6-0.4c0.1-0.1,0.1-0.3,0-0.4l-0.8-0.6
						c-0.1-0.1-0.3-0.1-0.5,0c-0.3,0.2-0.8,0.2-1.1,0l-2-1.6l0.5-0.4c0.3-0.2,0.4-0.6,0.3-1c1.5-0.8,4.3-1.9,7-1.6
						c0.2,0.3,0.6,0.3,0.9,0.1c0.2-0.2,0.2-0.6,0.1-0.8l-2.2-2.9c0.5-0.7,0.5-1.7-0.1-2.4c-0.5-0.7-1.4-1-2.3-0.8l-2.1-2.9
						C914.9,158.5,914.5,158.4,914.3,158.6z M910.8,171.2c-0.3,0.3-0.8,0.2-1.1-0.2l-1.3-1.7c-0.3-0.3-0.2-0.8,0.2-1.1l1.2-0.9
						l2.2,3L910.8,171.2z"/>
				</g>
			</g>
		</g>
		<g>
			<g>
				<path class="st13" d="M439.2,69.6c-1.2,0-2.2,0.4-3,1.1c-0.7,0.6-1.3,1.6-1.3,2.6c0,1.8,1.3,2.3,2.5,2.3c0.3,0,0.6-0.1,0.9-0.1
					c0.3,0,0.5-0.1,0.7-0.1c0.3-0.5,0.5-1,0.6-1.2c0-0.1-0.1-0.1-0.2-0.1c-0.4,0.7-1,1.2-1.9,1.2c-1.1,0-1.7-0.7-1.7-1.9
					c0-1.1,0.6-2.2,1-2.6c0.8-0.8,1.6-1,2.2-1c0.9,0,1.1,0.4,1,1.2c0,0.1,0.2,0.1,0.2,0c0.1-0.3,0.3-0.8,0.4-1.2
					C440.4,69.8,439.9,69.6,439.2,69.6z"/>
				<path class="st13" d="M445.3,72.2c0.3,0,0.3,0.3,0.3,0.6c0,0.5-0.4,1.6-0.8,2.1c0,0.1-0.1,0.1-0.1,0.1v0.4
					c0.2-0.1,0.4-0.2,0.6-0.5c0.7-0.7,0.9-1.5,0.9-2c0-0.6-0.3-1.1-0.9-1.1c-0.2,0-0.4,0-0.6,0.2v0.4
					C445,72.3,445.2,72.2,445.3,72.2z M444.8,75.1c-0.2,0.3-0.4,0.3-0.6,0.3c-0.2,0-0.4-0.3-0.4-0.6c0-0.5,0.4-1.5,0.9-2.2
					c0,0,0-0.1,0.1-0.1v-0.4c-0.2,0.1-0.4,0.2-0.6,0.4c-0.6,0.6-0.9,1.4-1,2c-0.1,0.7,0.3,1.1,0.9,1.1c0.1,0,0.4,0,0.7-0.1V75.1z"/>
				<path class="st13" d="M451.9,70.8c0.3-0.9,0.4-1.2,0.5-1.5l0-0.1c-0.4,0-1,0.2-1.1,0.3v0.1l0.2,0.1c0.1,0.1,0.2,0.1,0,0.7
					l-1.4,4.1c-0.1,0.4-0.2,0.6-0.2,0.7c0,0.1,0.1,0.3,0.3,0.3c0.7,0,1.3-0.7,1.5-1.2c0-0.1-0.1-0.1-0.2-0.1c-0.4,0.5-0.8,0.9-1,0.9
					c-0.1,0-0.1-0.1,0-0.3L451.9,70.8z"/>
				<path class="st13" d="M458.4,70.5c0.1-0.1,0.2-0.2,0.2-0.3c0-0.1-0.1-0.2-0.2-0.2c-0.1,0-0.1-0.1-0.2-0.1
					c-0.1,0-0.2,0.1-0.3,0.3l-0.7,1.4l0.1,0.1L458.4,70.5L458.4,70.5z M456.7,75.3V75c0.1-0.1,0.2-0.2,0.4-0.3
					c0.1,0,0.1,0.1,0.1,0.1C457.1,75,456.9,75.2,456.7,75.3L456.7,75.3z M456.7,73.6v-0.3c0.1-0.1,0.3-0.2,0.4-0.3
					c0.3-0.3,0.4-0.5,0.4-0.6c0-0.1-0.1-0.2-0.2-0.2c-0.1,0-0.3,0.1-0.5,0.3v-0.4c0.3-0.2,0.5-0.2,0.7-0.2c0.4,0,0.6,0.3,0.6,0.5
					C458,73,457.5,73.3,456.7,73.6z M456.7,72.1v0.4c0,0-0.1,0.1-0.1,0.1c-0.3,0.4-0.5,0.8-0.6,1c0.3-0.1,0.6-0.2,0.8-0.3v0.3
					c-0.3,0.1-0.5,0.2-0.9,0.3c-0.1,0.1-0.1,0.4-0.1,0.8c0,0.3,0.2,0.5,0.4,0.5c0.2,0,0.4-0.1,0.6-0.2v0.3c-0.4,0.3-0.7,0.3-0.9,0.3
					c-0.5,0-0.7-0.5-0.7-0.9c0-0.6,0.4-1.6,1.3-2.4C456.5,72.3,456.6,72.2,456.7,72.1z"/>
				<path class="st13" d="M463.2,72.2c0.1,0,0.3,0.1,0.3,0.3c0,0.3-0.3,1.1-0.8,1.6l0,0v0.4c0.1,0,0.2-0.1,0.2-0.1
					c0.6-0.4,1.1-1,1.1-1.7c0-0.1,0-0.3-0.1-0.3l0.1-0.1c0.1,0,0.2,0,0.3,0.1c0.1,0,0.2,0,0.3,0c0.1,0,0.2-0.1,0.2-0.3
					c0-0.1-0.1-0.2-0.2-0.2c-0.1,0-0.2,0-0.4,0.1c-0.2,0-0.3,0-0.4,0c0,0-0.1,0-0.2-0.1c-0.1,0-0.2-0.1-0.3-0.1
					c-0.2,0-0.5,0-0.7,0.1v0.4C462.9,72.2,463.1,72.2,463.2,72.2L463.2,72.2z M462.7,77.7v-0.3c0.3-0.1,0.6-0.3,0.6-0.5
					c0-0.1-0.1-0.3-0.4-0.5c-0.1-0.1-0.2-0.1-0.2-0.2v-0.6c0.2,0.1,0.4,0.2,0.6,0.3c0.5,0.3,0.7,0.6,0.7,0.8
					C463.9,77.1,463.5,77.5,462.7,77.7z M462.7,74.1c-0.2,0.3-0.4,0.3-0.6,0.3c-0.1,0-0.3-0.1-0.3-0.3c0-0.4,0.4-1.2,0.8-1.6l0,0
					v-0.4c-0.2,0.1-0.4,0.2-0.6,0.4c-0.4,0.4-0.7,1-0.7,1.5c0,0.6,0.5,0.7,0.7,0.8c-0.1,0.1-0.4,0.5-0.4,0.7c0,0.1,0,0.3,0.3,0.4
					c-0.5,0.2-1.5,0.6-1.5,1.2c0,0.6,0.7,0.8,1.4,0.8c0.4,0,0.7,0,0.9-0.1v-0.3c-0.2,0-0.4,0.1-0.5,0.1c-0.6,0-1.2-0.3-1.2-0.7
					c0-0.2,0.1-0.4,0.3-0.6c0.3-0.2,0.6-0.3,0.8-0.3c0.1,0,0.3,0.1,0.6,0.3v-0.6c-0.1-0.1-0.2-0.1-0.3-0.2c-0.2-0.2-0.3-0.3-0.3-0.4
					c0-0.1,0.1-0.3,0.2-0.3c0.1,0,0.3-0.1,0.4-0.1V74.1z"/>
				<path class="st13" d="M469.6,69.8c-0.3,0-0.5,0.4-0.5,0.6c0,0.2,0.1,0.3,0.3,0.3c0.3,0,0.5-0.3,0.5-0.5
					C470,70,469.8,69.8,469.6,69.8L469.6,69.8z M467.7,75.3c0,0.1,0,0.2,0,0.2l0.1,0.1c0.6,0,1.5-0.8,1.6-1.1c0-0.1,0-0.1-0.1-0.1
					c-0.3,0.3-0.8,0.6-0.9,0.6c-0.1,0-0.1-0.1,0-0.2l1.1-2.5c0.1-0.2,0.1-0.3,0-0.4l-0.1-0.1c-0.3,0-1,0.3-1.5,0.9
					c0,0.1,0,0.1,0.1,0.2c0.4-0.4,0.7-0.5,0.7-0.5c0.1,0,0.1,0.1,0,0.2L467.7,75.3z"/>
				<path class="st13" d="M475.3,72.2c0.3,0,0.4,0.3,0.4,0.6c0,0.5-0.4,1.6-0.8,2.1c0,0.1-0.1,0.1-0.1,0.1v0.4
					c0.2-0.1,0.4-0.2,0.6-0.5c0.7-0.7,0.9-1.5,0.9-2c0-0.6-0.3-1.1-0.9-1.1c-0.2,0-0.4,0-0.6,0.2v0.4
					C475,72.2,475.1,72.2,475.3,72.2z M474.7,75c-0.2,0.3-0.4,0.3-0.6,0.3c-0.3,0-0.4-0.3-0.4-0.5c0-0.5,0.4-1.5,0.9-2.2
					c0,0,0-0.1,0.1-0.1v-0.4c-0.2,0.1-0.4,0.2-0.6,0.4c-0.6,0.6-0.9,1.4-1,2c-0.1,0.7,0.3,1.2,0.9,1.2c0.1,0,0.4,0,0.6-0.2V75z"/>
				<path class="st13" d="M434.6,125.9c0.3,0,0.4,0.3,0.3,0.7c-0.2,0.5-0.5,1.1-1.2,1.9c0,0.1-0.1,0.1-0.1,0.1v0.5
					c0.4-0.4,0.7-0.8,1.1-1.2l0,0l-0.4,1c-0.1,0.3-0.1,0.4-0.1,0.6c0,0.2,0.1,0.3,0.3,0.3c0.5,0,1.5-0.8,1.8-1.4
					c0-0.1-0.1-0.1-0.2-0.1c-0.3,0.4-1,0.9-1.1,0.9c-0.1,0-0.1-0.1-0.1-0.2c0.1-0.3,0.6-1.9,1.6-4.7c0.3-0.8,0.5-1.2,0.6-1.8l0-0.1
					c-0.4,0-1,0.1-1.2,0.2l0,0.1l0.2,0.2c0.1,0.1,0.1,0.3-0.1,0.8l-0.8,2.1c-0.1-0.2-0.3-0.3-0.5-0.3c-0.3,0-0.7,0.1-1.2,0.4v0.7
					c0.1-0.1,0.2-0.3,0.3-0.4C434.1,126.1,434.4,125.9,434.6,125.9z M433.5,128.7c-0.6,0.6-1.1,0.8-1.2,0.8c-0.1,0-0.2-0.1-0.2-0.2
					c0-0.1,0-0.3,0.3-1c0.2-0.5,0.7-1.1,1.1-1.6V126c-0.2,0.1-0.5,0.3-0.7,0.5c-0.8,0.7-1.4,1.9-1.4,2.6c0,0.4,0.2,0.7,0.6,0.7
					c0.5,0,1-0.3,1.4-0.7V128.7z"/>
				<path class="st13" d="M439.6,125.9c0.2,0,0.2,0.1,0.2,0.2c0,0.1-0.1,0.4-0.4,0.7c-0.2,0.2-0.3,0.3-0.5,0.4v0.4
					c0.9-0.3,1.5-0.8,1.5-1.4c0-0.3-0.2-0.6-0.6-0.6c-0.2,0-0.5,0-0.9,0.2v0.4C439.2,126,439.5,125.9,439.6,125.9L439.6,125.9z
					 M438.9,129.5v-0.4c0.1-0.1,0.3-0.2,0.4-0.4c0.1,0,0.2,0.1,0.1,0.2C439.3,129.2,439.1,129.3,438.9,129.5z M438.9,127.2
					c-0.2,0.1-0.5,0.3-0.9,0.4c0.1-0.3,0.3-0.8,0.8-1.2c0,0,0.1-0.1,0.1-0.1v-0.4c-0.1,0.1-0.2,0.1-0.4,0.2
					c-1.1,0.9-1.5,2.1-1.5,2.7c0,0.5,0.2,1.1,0.8,1.1c0.3,0,0.7-0.1,1.1-0.4v-0.4c-0.2,0.2-0.4,0.2-0.6,0.2c-0.3,0-0.5-0.2-0.5-0.6
					c0-0.4,0.1-0.7,0.2-0.9c0.4-0.1,0.7-0.2,1-0.3V127.2z"/>
				<path class="st13" d="M446,129.9c1.4,0,2.4-0.9,2.4-2.1c0-0.8-0.5-1.4-1.1-1.8c-0.4-0.3-1-0.8-1-1.5c0-0.7,0.5-1.3,1.4-1.3
					c0.9,0,1.1,0.5,1,1.2c0.1,0.1,0.2,0.1,0.3,0c0.1-0.4,0.2-0.9,0.4-1.2c-0.2-0.1-0.8-0.4-1.5-0.4c-1.4,0-2.2,0.8-2.2,1.9
					c0,0.7,0.5,1.3,1.1,1.8c0.6,0.4,1,0.8,1,1.6c0,1-0.8,1.4-1.5,1.4c-1,0-1.5-0.7-1.5-1.6l-0.2,0c-0.1,0.3-0.2,0.8-0.2,1.2
					C444.6,129.6,445.3,129.9,446,129.9z"/>
				<path class="st13" d="M454,123.9c0.1-0.1,0.2-0.2,0.2-0.3c0-0.1-0.1-0.2-0.2-0.3c-0.1-0.1-0.2-0.1-0.3-0.1
					c-0.1,0-0.3,0.2-0.3,0.3l-0.9,1.6c0,0.1,0.1,0.1,0.2,0.1L454,123.9L454,123.9z M451.6,128.9v-0.3c0.7-0.7,1.1-1.5,1.3-2.1
					c-0.1-0.2-0.2-0.4-0.5-0.4c-0.3,0-0.4,0.1-0.7,0.4l0,0v-0.4c0,0,0.1-0.1,0.1-0.1c0.4-0.2,0.7-0.3,0.9-0.3c0.1,0,0.2,0,0.2,0.1
					c0,0,0.1,0.1,0.2,0.2l0.3-0.6c0.2-0.1,0.4,0,0.5,0.2c-0.2,0.4-1,2.6-1.4,3.5c-0.1,0.2,0,0.2,0.1,0.2c0.2,0,0.5-0.2,1.1-0.7
					c0.1,0,0.1,0.1,0.1,0.1c-0.4,0.6-1.1,1.1-1.7,1.1c-0.2,0-0.3-0.2-0.3-0.3c0-0.1,0-0.2,0.1-0.4l0.3-0.9h0
					C452,128.5,451.8,128.7,451.6,128.9z M451.6,126.1v0.4c-0.7,0.6-1.3,1.9-1.3,2.6c0,0.1,0,0.2,0.1,0.2c0.1,0,0.4-0.1,1-0.7
					c0,0,0.1-0.1,0.1-0.1v0.3c-0.6,0.6-1.3,1-1.7,1c-0.3,0-0.4-0.3-0.4-0.6c0-0.2,0.2-1,0.9-2C450.8,126.7,451.2,126.3,451.6,126.1z
					"/>
				<path class="st13" d="M463.5,122.8c-1.3,0-2.6,0.5-3.4,1.2c-0.8,0.7-1.5,1.9-1.5,3.1c0,2.1,1.6,2.7,2.9,2.7c0.4,0,0.7-0.1,1-0.1
					c0.3-0.1,0.6-0.1,0.8-0.1c0.3-0.6,0.6-1.2,0.7-1.4c0-0.1-0.1-0.1-0.2-0.1c-0.5,0.8-1.1,1.4-2.2,1.4c-1.3,0-2-0.8-2-2.2
					c0-1.3,0.7-2.5,1.2-3c1-0.9,1.9-1.1,2.6-1.1c1.1,0,1.3,0.5,1.1,1.4c0,0.1,0.2,0.1,0.3,0c0.1-0.4,0.3-1,0.5-1.4
					C465,123.1,464.3,122.8,463.5,122.8z"/>
				<path class="st13" d="M467.8,126.1c0.3,0,0.4,0.2,0.5,0.4c-0.2,0.6-0.5,1.4-1.3,2.1v0.3c0.2-0.2,0.4-0.4,0.6-0.6l0,0l-0.3,0.9
					c-0.1,0.2-0.1,0.3-0.1,0.4c0,0.1,0.1,0.3,0.3,0.3c0.6,0,1.3-0.6,1.7-1.1c0-0.1-0.1-0.1-0.2-0.1c-0.6,0.5-0.9,0.7-1.1,0.7
					c-0.1,0-0.1-0.1-0.1-0.2c0.3-0.9,1.2-3.1,1.4-3.5c-0.1-0.1-0.3-0.2-0.5-0.1l-0.3,0.7c0-0.1-0.2-0.2-0.2-0.2
					c-0.1,0-0.1-0.1-0.2-0.1c-0.3,0-0.5,0.1-0.9,0.3c0,0-0.1,0.1-0.1,0.1v0.4l0,0C467.4,126.2,467.5,126.1,467.8,126.1z
					 M467.1,128.5c0,0-0.1,0.1-0.1,0.1c-0.6,0.5-0.9,0.7-1,0.7c-0.1,0-0.1-0.1-0.1-0.2c0-0.7,0.6-2,1.3-2.6V126
					c-0.4,0.2-0.8,0.6-1.2,1.2c-0.7,0.9-0.9,1.7-0.9,2c0,0.3,0.2,0.6,0.4,0.6c0.4,0,1-0.4,1.7-1V128.5z"/>
				<path class="st13" d="M471,128.2c-0.1,0.4-0.3,0.7-0.3,1c0,0.3,0.2,0.6,0.5,0.6c0.2,0,0.8-0.1,1.6-0.7c0.9-0.7,1.6-2.2,1.6-2.9
					c0-0.3-0.1-0.6-0.4-0.6c-0.2,0-0.4,0.1-0.4,0.4c0.1,0.2,0.1,0.5,0.1,0.7c0,0.5-0.3,1.3-0.9,1.9c-0.5,0.5-0.9,0.7-1.1,0.7
					c-0.2,0-0.3-0.2-0.3-0.4c0-0.1,0.1-0.3,0.1-0.5l0.9-2.3c0.2-0.4-0.1-0.7-0.3-0.7c-0.6,0-1.3,0.7-1.6,1.1c0,0.1,0.1,0.2,0.2,0.2
					c0.3-0.3,0.8-0.7,0.9-0.7c0.1,0,0.1,0.1,0.1,0.3L471,128.2z"/>
				<path class="st13" d="M477.8,126.1c0.3,0,0.4,0.2,0.5,0.4c-0.2,0.6-0.6,1.4-1.3,2.1v0.3c0.2-0.2,0.4-0.4,0.6-0.6l0,0l-0.3,0.9
					c-0.1,0.2-0.1,0.3-0.1,0.4c0,0.1,0.1,0.3,0.3,0.3c0.6,0,1.3-0.6,1.7-1.1c0-0.1-0.1-0.1-0.1-0.1c-0.6,0.5-0.9,0.7-1.1,0.7
					c-0.1,0-0.1-0.1-0.1-0.3c0.3-0.9,1.2-3.1,1.4-3.5c-0.1-0.1-0.3-0.2-0.5-0.2l-0.3,0.7c0-0.1-0.2-0.2-0.2-0.2
					c-0.1,0-0.1-0.1-0.2-0.1c-0.3,0-0.5,0.1-0.9,0.3c0,0-0.1,0.1-0.1,0.1v0.4l0,0C477.4,126.2,477.6,126.1,477.8,126.1z
					 M477.1,128.5c0,0-0.1,0.1-0.1,0.1c-0.6,0.5-0.9,0.7-1,0.7c-0.1,0-0.2-0.1-0.2-0.2c0-0.7,0.6-2,1.3-2.6V126
					c-0.4,0.2-0.8,0.6-1.2,1.2c-0.7,0.9-0.9,1.7-0.9,2c0,0.3,0.2,0.6,0.5,0.6c0.4,0,1-0.4,1.7-1V128.5z"/>
				<path class="st13" d="M482.8,124.2c0.4-1.1,0.5-1.4,0.6-1.7l-0.1,0c-0.5,0-1.1,0.2-1.3,0.3v0.2l0.2,0.1c0.2,0.1,0.3,0.2,0,0.9
					l-1.6,4.8c-0.2,0.5-0.2,0.7-0.2,0.8c0,0.2,0.1,0.3,0.4,0.3c0.9,0,1.5-0.8,1.8-1.3c0-0.1-0.1-0.2-0.2-0.2c-0.5,0.5-0.9,1-1.2,1
					c-0.1,0-0.1-0.1-0.1-0.3L482.8,124.2z"/>
				<path class="st13" d="M486.1,125.5c-0.5,0-0.9,0.2-1.3,0.6c-0.9,0.8-1.3,2-1.3,2.6c0,0.8,0.4,1.1,0.8,1.1c0.7,0,1.3-0.4,1.7-1
					c0-0.1,0-0.2-0.1-0.2c-0.4,0.3-0.8,0.6-1.1,0.6c-0.2,0-0.5-0.2-0.4-0.6c0-0.8,0.4-1.6,0.7-2.1c0.3-0.5,0.6-0.7,0.9-0.7
					c0.3,0,0.3,0.3,0.4,0.6c0,0.1,0.1,0.2,0.2,0.2c0.1,0,0.5-0.1,0.5-0.5C486.9,125.8,486.6,125.5,486.1,125.5z"/>
				<path class="st13" d="M490.1,126c0.3,0,0.4,0.2,0.5,0.4c-0.2,0.6-0.6,1.4-1.3,2.1v0.3c0.2-0.2,0.4-0.4,0.6-0.6l0,0l-0.3,0.9
					c-0.1,0.2-0.1,0.3-0.1,0.4c0,0.1,0.1,0.3,0.3,0.3c0.6,0,1.3-0.6,1.7-1.1c0-0.1-0.1-0.1-0.1-0.1c-0.6,0.5-0.9,0.7-1,0.7
					c-0.1,0-0.1-0.1-0.1-0.2c0.3-0.9,1.2-3.1,1.4-3.5c-0.1-0.1-0.3-0.2-0.5-0.1l-0.3,0.6c0-0.1-0.2-0.2-0.2-0.2
					c-0.1,0-0.1-0.1-0.2-0.1c-0.3,0-0.5,0.1-0.9,0.3c0,0-0.1,0.1-0.1,0.1v0.4l0,0C489.7,126.1,489.9,126,490.1,126z M489.4,128.5
					c0,0-0.1,0.1-0.1,0.1c-0.6,0.5-0.9,0.7-1,0.7c-0.1,0-0.2-0.1-0.2-0.2c0-0.7,0.6-2,1.3-2.6V126c-0.4,0.2-0.8,0.6-1.2,1.2
					c-0.7,0.9-0.9,1.7-0.9,2c0,0.3,0.2,0.6,0.5,0.6c0.4,0,1-0.4,1.7-1V128.5z"/>
				<path class="st13" d="M494.7,125.9c0.1-0.2,0-0.4-0.3-0.4c-0.5,0-1.1,0.4-1.5,0.9c0,0.1,0,0.1,0.1,0.1c0.3-0.3,0.7-0.5,0.9-0.5
					c0.1,0,0.1,0.1,0,0.2c0,0.1-1.1,3-1.2,3.2c-0.1,0.2,0.2,0.3,0.3,0.3c0.1,0,0.1,0,0.2-0.1c0.6-1.1,1-1.9,1.6-2.6
					c0.6-0.7,1.2-1.2,1.4-1.2c0.2,0,0.2,0.1,0.2,0.2c0,0.2-0.1,0.6-0.2,0.7c-0.2,0.5-0.6,1.5-0.8,2c-0.2,0.5-0.2,0.6-0.2,0.7
					c0,0.1,0.1,0.3,0.2,0.3c0.6,0,1.4-0.5,1.8-1.1c0-0.1,0-0.1-0.2-0.1c-0.3,0.4-0.8,0.7-1,0.7c-0.1,0-0.1-0.1,0-0.2
					c0-0.1,0.8-1.7,0.9-2.2c0.1-0.2,0.2-0.6,0.2-0.7c0-0.3-0.2-0.5-0.6-0.5c-0.8,0-1.8,1.1-2.5,2.2l-0.1,0L494.7,125.9z"/>
				<path class="st13" d="M501.4,126.1c0.1-0.1,0.2-0.3,0.1-0.4h-1.1l0.3-1c-0.1-0.1-0.3-0.1-0.4-0.1l-0.6,1l-0.8,0.2
					c-0.1,0-0.1,0.2-0.1,0.3h0.8l-0.9,2.8c-0.1,0.3-0.1,0.4-0.1,0.6c0,0.1,0.1,0.3,0.3,0.3c0.4,0,1.4-0.6,2-1.5c0-0.1,0-0.2-0.1-0.2
					c-0.3,0.4-1,0.9-1.2,0.9c-0.1,0-0.1-0.1-0.1-0.3l0.9-2.7L501.4,126.1z"/>
				<path class="st13" d="M504.4,125.8c0.2,0,0.2,0.1,0.2,0.2c0,0.1-0.1,0.4-0.4,0.7c-0.2,0.2-0.3,0.3-0.5,0.4v0.4
					c0.9-0.4,1.5-0.8,1.5-1.4c0-0.3-0.2-0.6-0.7-0.6c-0.2,0-0.5,0-0.8,0.2v0.4C504.1,125.9,504.3,125.8,504.4,125.8L504.4,125.8z
					 M503.8,129.4V129c0.1-0.1,0.3-0.2,0.4-0.3c0.1,0,0.2,0.1,0.1,0.2C504.2,129.1,504,129.2,503.8,129.4z M503.8,127.1
					c-0.2,0.1-0.5,0.3-0.9,0.4c0.1-0.3,0.4-0.8,0.8-1.2c0,0,0.1-0.1,0.1-0.1v-0.4c-0.1,0.1-0.2,0.1-0.4,0.2
					c-1.1,0.8-1.5,2.1-1.5,2.7c0,0.5,0.2,1.1,0.8,1.1c0.3,0,0.7-0.1,1.1-0.4V129c-0.2,0.2-0.4,0.2-0.6,0.2c-0.3,0-0.5-0.2-0.5-0.6
					c0-0.4,0.1-0.7,0.2-0.9c0.4-0.1,0.7-0.2,1-0.3V127.1z"/>
				<path class="st13" d="M465.7,80.5c-3.3,0-6.1,2.4-8.9,6.2c-2.2,2.8-4.5,6.6-7.5,11.9h-0.4l3.3-9.5c1.6-4.6,1.3-8.6-3.9-8.6
					c-6.6,0-12.4,6.4-14.3,10c-0.2,1,0.6,2,1.6,2.1c2.5-2.9,6-5.5,7.5-5.5c1,0,0.9,1.2,0.4,2.9c-2.5,7.7-5.9,17.1-8.5,25.4
					c-0.9,2.9,2.7,3.6,5,3.6c2,0,3.8-0.4,4.4-1.6c2.9-7,5.4-13.7,9.5-21c2.4-4.1,4.7-7.8,6.3-7.8c0.7,0,1.2,0.5,1.5,2.1
					c0.5,2.3,0.8,4.1,2.7,4.1c2.5,0,6-3.7,6-8.8C470.1,82.2,468.3,80.5,465.7,80.5z"/>
				<path class="st13" d="M484.8,72.8c0,3.1,2.1,5.4,5.7,5.4c4.4,0,7.3-3.5,7.3-7.6c0-3.5-2.2-5.6-5.4-5.6
					C488,65.1,484.8,68.7,484.8,72.8L484.8,72.8z M491.7,88.4c0.6-1.3,1.2-3.1,1.2-3.9c0-2-2.2-3.9-4.2-3.9
					c-4.8,0-13.4,4.4-18.3,10.3c-0.4,0.8,0.4,2,1.5,2.1c1.5-1.3,6.5-5.1,8.1-5.1c0.5,0,0.5,0.6,0.2,1.3l-9.4,22.3
					c-0.7,1.8-1.1,2.9-1.1,3.9c0,1.1,1.8,3.6,4.2,3.6c7.5,0,15.5-6,19.1-10.7c0.3-1.2-0.6-2.1-1.7-2.1c-2.3,2.2-7.3,5.7-8.5,5.7
					c-0.6,0-0.7-0.5-0.4-1.3L491.7,88.4z"/>
				<g>
					<path class="st8" d="M388.2,75l2.7-6.3c1-2.2,1.8-4.1,2.4-5.8c-1.7,0-3.4,0.2-5.1,0.4c-1.8,0.3-3.5,0.6-5.2,1.1
						c-15.9,4.6-27.5,19.1-27.5,36.3c0,10,4,19.1,10.5,25.9l3.1-7.2L383,87.2L388.2,75z"/>
					<path class="st8" d="M388.2,92.2l-4.1,10.2c-1.8,4.1-1.3,4.1,2.1,4.1l2,0l13.1,0c4,0,4.6-0.3,3.6-3.7l-5.4-17
						c-2.2-7.5-2.9-10.2-3.6-11.2h-0.3c-0.6,1-1.9,4.5-4.8,11.2L388.2,92.2z"/>
					<path class="st8" d="M412.3,67.6c-0.5-0.3-0.9-0.5-1.4-0.7c0.5,1.6,0.9,3.1,1.4,4.7c0.1,0.2,0.1,0.4,0.2,0.6l14.7,47.3
						c3.2-5.5,5-11.9,5-18.8C432.2,86.4,424.2,74,412.3,67.6z"/>
					<path class="st8" d="M408.6,116.6c-1.3-3.8-1.7-3.8-5.8-3.8l-14.7,0l-4.5,0c-0.3,0-0.5,0-0.7,0c-3,0-3,0.3-4.4,3.8l-6,15.5
						c3.1,2.1,6.6,3.7,10.3,4.8c1.7,0.5,3.4,0.9,5.2,1.1c1.9,0.3,3.8,0.4,5.8,0.4c6.7,0,12.9-1.7,18.4-4.7c0.5-0.3,0.9-0.5,1.4-0.8
						l-1.4-4.5L408.6,116.6z"/>
				</g>
			</g>
		</g>
		<g>
			<path class="st14" d="M1050.5,101.3c0,0-8,12.9-27.9,24.9c18.5,30.7,55.2,12.2,58.1-0.1C1080.7,126,1062.6,117.1,1050.5,101.3z"
				/>
			<g>
				<path class="st15" d="M1084.2,76.7v31.9c0,6.3-1.3,11.9-4.6,17.4c0,0-0.1,0.1-0.1,0.1c-11.8-1.2-20.8-8.9-28.4-19.6
					c-7.7,10.7-16.7,18.4-28.4,19.6c0,0-0.1-0.1-0.1-0.1c-3.3-5.5-4.6-11.1-4.6-17.4V76.7H1084.2z"/>
				<path class="st16" d="M1084.2,58.9v49.8c0,6.3-1.3,11.9-4.6,17.4c-13.3,22-43.7,22-57,0c-3.3-5.5-4.6-11.1-4.6-17.4V58.9H1084.2
					z"/>
				
					<linearGradient id="SVGID_00000027580089466898770030000015011525632202197912_" gradientUnits="userSpaceOnUse" x1="1016.9696" y1="56.2728" x2="1086.7791" y2="126.0824">
					<stop  offset="0" style="stop-color:#FFED00"/>
					<stop  offset="0.21" style="stop-color:#FFCC00"/>
					<stop  offset="0.47" style="stop-color:#FFED00"/>
					<stop  offset="0.75" style="stop-color:#FFCC00"/>
					<stop  offset="1" style="stop-color:#FFED00"/>
				</linearGradient>
				
					<path style="fill-rule:evenodd;clip-rule:evenodd;fill:url(#SVGID_00000027580089466898770030000015011525632202197912_);stroke:#000000;stroke-width:0.75;stroke-linecap:round;stroke-linejoin:round;stroke-miterlimit:22.9256;" d="
					M1086,57.1v51.6l0,0.6l0,0.6l0,0.6l0,0.6l0,0.6l0,0.6l-0.1,0.6l-0.1,0.6l-0.1,0.6l-0.1,0.6l-0.1,0.6l-0.1,0.6l-0.1,0.6l-0.1,0.6
					l-0.1,0.6l-0.1,0.6l-0.2,0.6l-0.2,0.6l-0.2,0.6l-0.2,0.6l-0.2,0.6l-0.2,0.6l-0.2,0.6l-0.2,0.6l-0.2,0.6l-0.2,0.6l-0.3,0.5
					l-0.3,0.5l-0.3,0.5l-0.3,0.5l-0.3,0.5l-0.3,0.6l-1.3,2.1l-1.5,2l-1.6,1.8l-1.6,1.7l-1.7,1.6l-1.8,1.4l-1.9,1.3l-1.9,1.2l-2,1
					l-2,0.9l-2.1,0.7l-2.1,0.6l-2.1,0.5l-2.1,0.3l-2.2,0.2l-2.2,0.1l-2.2-0.1l-2.2-0.2l-2.1-0.3l-2.1-0.5l-2.1-0.6l-2.1-0.7l-2-0.9
					l-2-1l-1.9-1.2l-1.9-1.3l-1.8-1.4l-1.7-1.6l-1.6-1.7l-1.6-1.8l-1.5-2l-1.3-2.1l-0.3-0.6l-0.3-0.5l-0.3-0.5l-0.3-0.5l-0.3-0.5
					l-0.3-0.5l-0.2-0.6l-0.2-0.6l-0.2-0.6l-0.2-0.6l-0.2-0.6l-0.2-0.6l-0.2-0.6l-0.2-0.6l-0.2-0.6l-0.2-0.6l-0.1-0.6l-0.1-0.6
					l-0.1-0.6l-0.1-0.6l-0.1-0.6l-0.1-0.6l-0.1-0.6l-0.1-0.6l-0.1-0.6l-0.1-0.6l0-0.6l0-0.6l0-0.6l0-0.6l0-0.6l0-0.6V57.1H1086
					L1086,57.1z M1084.2,58.9H1018v49.8c0,6.3,1.3,11.9,4.6,17.4c13.3,22,43.7,22,57,0c3.3-5.5,4.6-11.1,4.6-17.4V58.9z"/>
				<rect x="1018" y="58.9" class="st18" width="66.2" height="9.1"/>
				<rect x="1018" y="68" class="st19" width="66.2" height="8.7"/>
				<g>
					
						<linearGradient id="SVGID_00000034804803817528279340000002819512898070595207_" gradientUnits="userSpaceOnUse" x1="1043.6484" y1="118.9448" x2="1058.4907" y2="133.787">
						<stop  offset="0" style="stop-color:#FFED00"/>
						<stop  offset="0.21" style="stop-color:#FFCC00"/>
						<stop  offset="0.47" style="stop-color:#FFED00"/>
						<stop  offset="0.75" style="stop-color:#FFCC00"/>
						<stop  offset="1" style="stop-color:#FFED00"/>
					</linearGradient>
					
						<path style="fill-rule:evenodd;clip-rule:evenodd;fill:url(#SVGID_00000034804803817528279340000002819512898070595207_);stroke:#000000;stroke-width:0.5;stroke-linecap:round;stroke-linejoin:round;stroke-miterlimit:22.9256;" d="
						M1051.1,115.9c5.8,0,10.5,4.7,10.5,10.5c0,5.8-4.7,10.5-10.5,10.5s-10.5-4.7-10.5-10.5C1040.6,120.6,1045.3,115.9,1051.1,115.9
						L1051.1,115.9z M1051.1,117c-5.2,0-9.3,4.2-9.3,9.3c0,5.2,4.2,9.3,9.3,9.3s9.3-4.2,9.3-9.3C1060.4,121.2,1056.2,117,1051.1,117
						z"/>
					
						<linearGradient id="SVGID_00000037691914408057295790000017459875551990019714_" gradientUnits="userSpaceOnUse" x1="1045.2915" y1="120.6961" x2="1056.8477" y2="132.2521">
						<stop  offset="0" style="stop-color:#FFED00"/>
						<stop  offset="0.21" style="stop-color:#FFCC00"/>
						<stop  offset="0.47" style="stop-color:#FFED00"/>
						<stop  offset="0.75" style="stop-color:#FFCC00"/>
						<stop  offset="1" style="stop-color:#FFED00"/>
					</linearGradient>
					
						<path style="fill-rule:evenodd;clip-rule:evenodd;fill:url(#SVGID_00000037691914408057295790000017459875551990019714_);stroke:#000000;stroke-width:0.5;stroke-linecap:round;stroke-linejoin:round;stroke-miterlimit:22.9256;" d="
						M1049.8,116.2c0.2,0,0.4,0,0.6,0s0.4,0,0.6,0c-3.2,3.4-5.5,6.8-5.5,10.3c0,3.5,2.2,6.9,5.5,10.3c-0.2,0-0.4,0-0.6,0
						s-0.4,0-0.6,0c-3.2-3.4-5.5-6.8-5.5-10.3S1046.6,119.6,1049.8,116.2L1049.8,116.2z M1052.3,116.2c-0.2,0-0.4,0-0.6,0
						s-0.4,0-0.6,0c3.2,3.4,5.5,6.8,5.5,10.3c0,3.5-2.2,6.9-5.5,10.3c0.2,0,0.4,0,0.6,0s0.4,0,0.6,0c3.2-3.4,5.5-6.8,5.5-10.3
						S1055.6,119.6,1052.3,116.2z"/>
					
						<linearGradient id="SVGID_00000029036599866494248860000005058188052230233775_" gradientUnits="userSpaceOnUse" x1="1049.8667" y1="138.7808" x2="1052.2804" y2="141.1945">
						<stop  offset="0" style="stop-color:#FFED00"/>
						<stop  offset="0.21" style="stop-color:#FFCC00"/>
						<stop  offset="0.47" style="stop-color:#FFED00"/>
						<stop  offset="0.75" style="stop-color:#FFCC00"/>
						<stop  offset="1" style="stop-color:#FFED00"/>
					</linearGradient>
					
						<path style="fill-rule:evenodd;clip-rule:evenodd;fill:url(#SVGID_00000029036599866494248860000005058188052230233775_);stroke:#000000;stroke-width:0.5;stroke-linecap:round;stroke-linejoin:round;stroke-miterlimit:22.9256;" d="
						M1051.7,138.2v0.9l0.9,1.7h-3.1l0.9-1.7v-0.9c0.2,0.1,0.4,0.1,0.6,0.1C1051.3,138.3,1051.5,138.3,1051.7,138.2z"/>
					
						<linearGradient id="SVGID_00000044882247872221014030000000677865503888443819_" gradientUnits="userSpaceOnUse" x1="1049.4656" y1="140.1214" x2="1052.6736" y2="143.3294">
						<stop  offset="0" style="stop-color:#FFED00"/>
						<stop  offset="0.21" style="stop-color:#FFCC00"/>
						<stop  offset="0.47" style="stop-color:#FFED00"/>
						<stop  offset="0.75" style="stop-color:#FFCC00"/>
						<stop  offset="1" style="stop-color:#FFED00"/>
					</linearGradient>
					
						<path style="fill-rule:evenodd;clip-rule:evenodd;fill:url(#SVGID_00000044882247872221014030000000677865503888443819_);stroke:#000000;stroke-width:0.5;stroke-linecap:round;stroke-linejoin:round;stroke-miterlimit:22.9256;" d="
						M1048.9,140.8h4.3c0.2,0,0.4,0.2,0.4,0.4v1.1c0,0.2-0.2,0.4-0.4,0.4h-4.3c-0.2,0-0.4-0.2-0.4-0.4v-1.1
						C1048.5,141,1048.7,140.8,1048.9,140.8z"/>
					
						<linearGradient id="SVGID_00000017487101933924329650000016432386070370970021_" gradientUnits="userSpaceOnUse" x1="1044.5223" y1="119.4242" x2="1057.6168" y2="132.5186">
						<stop  offset="0" style="stop-color:#FFED00"/>
						<stop  offset="0.21" style="stop-color:#FFCC00"/>
						<stop  offset="0.47" style="stop-color:#FFED00"/>
						<stop  offset="0.75" style="stop-color:#FFCC00"/>
						<stop  offset="1" style="stop-color:#FFED00"/>
					</linearGradient>
					
						<path style="fill-rule:evenodd;clip-rule:evenodd;fill:url(#SVGID_00000017487101933924329650000016432386070370970021_);stroke:#000000;stroke-width:0.5;stroke-linecap:round;stroke-linejoin:round;stroke-miterlimit:22.9256;" d="
						M1051.7,115.2v10.3c0.8,0.2,1.3,0.7,1.3,1.4c0,0.6-0.5,1.2-1.3,1.4v9c0.3,0.1,0.6,0.3,0.6,0.5c0,0.3-0.5,0.6-1.2,0.6
						c-0.7,0-1.2-0.3-1.2-0.6c0-0.2,0.2-0.4,0.6-0.5v-9c-0.8-0.2-1.3-0.7-1.3-1.4c0-0.6,0.5-1.2,1.3-1.4v-10.3
						c-0.4-0.1-0.8-0.4-0.8-0.7c0-0.4,0.6-0.8,1.4-0.8s1.4,0.3,1.4,0.8C1052.5,114.8,1052.2,115,1051.7,115.2z"/>
					
						<linearGradient id="SVGID_00000177470730795946726710000010416891958758370450_" gradientUnits="userSpaceOnUse" x1="1049.4023" y1="110.8045" x2="1052.7935" y2="114.1956">
						<stop  offset="0" style="stop-color:#FFED00"/>
						<stop  offset="0.21" style="stop-color:#FFCC00"/>
						<stop  offset="0.47" style="stop-color:#FFED00"/>
						<stop  offset="0.75" style="stop-color:#FFCC00"/>
						<stop  offset="1" style="stop-color:#FFED00"/>
					</linearGradient>
					
						<path style="fill-rule:evenodd;clip-rule:evenodd;fill:url(#SVGID_00000177470730795946726710000010416891958758370450_);stroke:#000000;stroke-width:0.5;stroke-linecap:round;stroke-linejoin:round;stroke-miterlimit:22.9256;" d="
						M1051.1,111.1l-0.2-0.8l-0.7,0l0.4,1.1v0.8h-0.1h-0.5l-0.3-0.3l-0.7-0.6v1.3v1.3l0.7-0.6l0.3-0.3h0.5h0.1v0.5
						c-0.2,0.1-0.3,0.2-0.3,0.4c0,0.2,0.2,0.4,0.4,0.4c0,0,0,0.1,0,0.1c0,0.6,0.9,0.6,0.9,0c0,0,0-0.1,0-0.1c0.2,0,0.4-0.2,0.4-0.4
						c0-0.2-0.1-0.4-0.3-0.4v-0.5h0.6l0.3,0.3l0.7,0.6v-1.3v-1.3l-0.7,0.6l-0.3,0.3h-0.6v-0.8l0.4-1.1l-0.7,0L1051.1,111.1z"/>
					
						<linearGradient id="SVGID_00000009585012795433713870000017258392867534200509_" gradientUnits="userSpaceOnUse" x1="1043.6487" y1="118.9452" x2="1058.4904" y2="133.7869">
						<stop  offset="0" style="stop-color:#FFED00"/>
						<stop  offset="0.21" style="stop-color:#FFCC00"/>
						<stop  offset="0.47" style="stop-color:#FFED00"/>
						<stop  offset="0.75" style="stop-color:#FFCC00"/>
						<stop  offset="1" style="stop-color:#FFED00"/>
					</linearGradient>
					
						<path style="fill-rule:evenodd;clip-rule:evenodd;fill:url(#SVGID_00000009585012795433713870000017258392867534200509_);stroke:#000000;stroke-width:0.5;stroke-linecap:round;stroke-linejoin:round;stroke-miterlimit:22.9256;" d="
						M1045,117.8c2-0.2,4.1-0.4,6.1-0.4c2,0,4.1,0.1,6.1,0.4c0.5,0.3,0.9,0.7,1.4,1.2c-2.5-0.3-5-0.5-7.5-0.5c-2.5,0-5,0.2-7.5,0.5
						C1044,118.6,1044.5,118.2,1045,117.8L1045,117.8z M1041.5,122c3.2-0.5,6.4-0.8,9.5-0.8c3.2,0,6.4,0.3,9.5,0.8
						c0.2,0.3,0.3,0.7,0.4,1.1c-3.3-0.5-6.6-0.9-10-0.9c-3.3,0-6.6,0.4-9.9,0.9C1041.2,122.7,1041.4,122.3,1041.5,122L1041.5,122z
						 M1040.6,126.2c3.5-0.6,7-1,10.5-1c3.5,0,7,0.4,10.5,1c0,0.1,0,0.1,0,0.2c0,0.3,0,0.5,0,0.8c-3.5-0.6-7-1-10.5-1
						c-3.5,0-7,0.4-10.5,1c0-0.3,0-0.5,0-0.8C1040.6,126.3,1040.6,126.2,1040.6,126.2L1040.6,126.2z M1041.2,129.9
						c3.3-0.5,6.6-0.9,9.9-0.9c3.3,0,6.6,0.3,9.9,0.9c-0.1,0.3-0.2,0.6-0.4,0.9c-3.2-0.5-6.3-0.8-9.5-0.8c-3.2,0-6.3,0.3-9.5,0.8
						C1041.4,130.6,1041.3,130.3,1041.2,129.9L1041.2,129.9z M1043,133.1c2.7-0.4,5.4-0.6,8.1-0.6c2.7,0,5.4,0.2,8.1,0.6
						c-0.3,0.3-0.5,0.6-0.8,0.9c-2.4-0.3-4.8-0.5-7.2-0.5c-2.4,0-4.8,0.2-7.2,0.5C1043.5,133.7,1043.3,133.4,1043,133.1z"/>
					
						<linearGradient id="SVGID_00000031190020429214827400000009993586633360357811_" gradientUnits="userSpaceOnUse" x1="1044.2545" y1="118.3397" x2="1059.0961" y2="133.1813">
						<stop  offset="0" style="stop-color:#FFED00"/>
						<stop  offset="0.21" style="stop-color:#FFCC00"/>
						<stop  offset="0.47" style="stop-color:#FFED00"/>
						<stop  offset="0.75" style="stop-color:#FFCC00"/>
						<stop  offset="1" style="stop-color:#FFED00"/>
					</linearGradient>
					
						<path style="fill-rule:evenodd;clip-rule:evenodd;fill:url(#SVGID_00000031190020429214827400000009993586633360357811_);stroke:#000000;stroke-width:0.5;stroke-linecap:round;stroke-linejoin:round;stroke-miterlimit:22.9256;" d="
						M1043.6,119c6.1,4,10.3,9.5,13.4,16c1-0.7,1.8-1.5,2.5-2.4c-2.9-5.9-7.2-11.2-13.3-15.6C1045.2,117.6,1044.3,118.3,1043.6,119z
						"/>
				</g>
				<g>
					
						<linearGradient id="SVGID_00000008115473951209081190000005374443906389963452_" gradientUnits="userSpaceOnUse" x1="1040.6675" y1="82.399" x2="1061.4717" y2="103.2032">
						<stop  offset="0" style="stop-color:#FFED00"/>
						<stop  offset="0.21" style="stop-color:#FFCC00"/>
						<stop  offset="0.47" style="stop-color:#FFED00"/>
						<stop  offset="0.75" style="stop-color:#FFCC00"/>
						<stop  offset="1" style="stop-color:#FFED00"/>
					</linearGradient>
					
						<path style="fill-rule:evenodd;clip-rule:evenodd;fill:url(#SVGID_00000008115473951209081190000005374443906389963452_);stroke:#000000;stroke-width:0.75;stroke-linecap:round;stroke-linejoin:round;stroke-miterlimit:22.9256;" d="
						M1037.8,94.2l-1.4,0v-2.7l1.4,0c0.1-0.8,0.2-1.7,0.5-2.5l-1.3-0.5l1-2.5l1.3,0.5c0.4-0.8,0.9-1.5,1.4-2.1l-1-1l1.9-1.9l1,0.9
						c0.7-0.5,1.4-1,2.1-1.4l-0.5-1.2l2.5-1l0.5,1.2c0.8-0.2,1.7-0.4,2.5-0.5v-1.3l2.7,0v1.3c0.9,0.1,1.7,0.3,2.5,0.5l0.5-1.2l2.5,1
						l-0.5,1.2c0.8,0.4,1.5,0.9,2.1,1.4l1-1l1.9,1.9l-1,1c0.5,0.7,1,1.4,1.4,2.1l1.3-0.5l1,2.5l-1.3,0.5c0.2,0.8,0.4,1.6,0.5,2.5
						l1.4,0v2.7l-1.4,0c-0.1,0.8-0.3,1.7-0.5,2.5l1.3,0.5l-1,2.5l-1.3-0.5c-0.4,0.7-0.9,1.4-1.4,2.1l1,1l-1.9,1.9l-1-1
						c-0.6,0.5-1.3,1-2.1,1.4l0.6,1.4l-2.5,1l-0.6-1.4c-0.8,0.2-1.6,0.4-2.5,0.5v1.5l-2.7,0V106c-0.8-0.1-1.7-0.2-2.4-0.5l-0.6,1.4
						l-2.5-1l0.6-1.4c-0.7-0.4-1.4-0.9-2.1-1.4l-1,1l-1.9-1.9l1-1c-0.5-0.6-1-1.3-1.4-2.1l-1.3,0.6l-1-2.5l1.3-0.5
						C1038,95.8,1037.9,95,1037.8,94.2L1037.8,94.2z M1051.1,81.2c-6.4,0-11.5,5.2-11.5,11.5c0,6.4,5.2,11.5,11.5,11.5
						c6.4,0,11.5-5.2,11.5-11.5C1062.6,86.4,1057.4,81.2,1051.1,81.2z"/>
					<g>
						
							<linearGradient id="SVGID_00000049907434401935010250000011071520467435124662_" gradientUnits="userSpaceOnUse" x1="1047.7719" y1="84.0853" x2="1053.9651" y2="90.2786">
							<stop  offset="0" style="stop-color:#FFED00"/>
							<stop  offset="0.21" style="stop-color:#FFCC00"/>
							<stop  offset="0.47" style="stop-color:#FFED00"/>
							<stop  offset="0.75" style="stop-color:#FFCC00"/>
							<stop  offset="1" style="stop-color:#FFED00"/>
						</linearGradient>
						
							<polygon style="fill-rule:evenodd;clip-rule:evenodd;fill:url(#SVGID_00000049907434401935010250000011071520467435124662_);stroke:#000000;stroke-width:0.75;stroke-linecap:round;stroke-linejoin:round;stroke-miterlimit:22.9256;" points="
							1050.9,89.4 1048.2,90.7 1048.3,87.6 1046.3,85.5 1049.1,84.6 1050.9,82.2 1052.6,84.6 1055.4,85.5 1053.5,87.6 1053.5,90.7 
													"/>
						<path class="st30" d="M1050.9,82.2v3.2 M1051.8,88.2l1.8,2.4 M1049.9,88.2l-1.8,2.4 M1048.2,87.5l1.3-0.2 M1053.5,87.5
							l-1.3-0.2 M1050.9,88.2v1.2 M1049.6,86.2l-3-0.7 M1052.2,86.2l3-0.7 M1049.2,84.5l1,1.6 M1052.6,84.5l-1,1.6"/>
					</g>
					<g>
						<g>
							<g>
								
									<linearGradient id="SVGID_00000012453023775801418740000010521545283025419956_" gradientUnits="userSpaceOnUse" x1="1041.0409" y1="92.8552" x2="1047.0879" y2="98.9022">
									<stop  offset="0" style="stop-color:#FFED00"/>
									<stop  offset="0.21" style="stop-color:#FFCC00"/>
									<stop  offset="0.47" style="stop-color:#FFED00"/>
									<stop  offset="0.75" style="stop-color:#FFCC00"/>
									<stop  offset="1" style="stop-color:#FFED00"/>
								</linearGradient>
								
									<path style="fill-rule:evenodd;clip-rule:evenodd;fill:url(#SVGID_00000012453023775801418740000010521545283025419956_);stroke:#000000;stroke-width:0.5;stroke-linecap:round;stroke-linejoin:round;stroke-miterlimit:22.9256;" d="
									M1042.3,100.2h3.5v-8.6h-3.5V100.2L1042.3,100.2z M1043,92.9h0.6v1.5h-0.6V92.9L1043,92.9z M1044.5,92.9h0.6v1.5h-0.6V92.9
									L1044.5,92.9z M1043,95.3h0.6v1.5h-0.6V95.3L1043,95.3z M1044.5,95.3h0.6v1.5h-0.6V95.3L1044.5,95.3z M1043,97.8h0.6v1.5
									h-0.6V97.8L1043,97.8z M1044.5,97.8h0.6v1.5h-0.6V97.8z"/>
								
									<linearGradient id="SVGID_00000114763803310449072980000017380001575240124602_" gradientUnits="userSpaceOnUse" x1="1043.067" y1="91.0064" x2="1045.2158" y2="91.579">
									<stop  offset="0" style="stop-color:#FFED00"/>
									<stop  offset="0.21" style="stop-color:#FFCC00"/>
									<stop  offset="0.47" style="stop-color:#FFED00"/>
									<stop  offset="0.75" style="stop-color:#FFCC00"/>
									<stop  offset="1" style="stop-color:#FFED00"/>
								</linearGradient>
								
									<polygon style="fill-rule:evenodd;clip-rule:evenodd;fill:url(#SVGID_00000114763803310449072980000017380001575240124602_);stroke:#000000;stroke-width:0.5;stroke-linecap:round;stroke-linejoin:round;stroke-miterlimit:22.9256;" points="
									1044.1,90.3 1045.2,91 1046.4,91.6 1044.1,91.6 1041.7,91.6 1042.9,91 								"/>
							</g>
							<g>
								
									<linearGradient id="SVGID_00000069388320422188947080000000780372809390476705_" gradientUnits="userSpaceOnUse" x1="1055.062" y1="92.8552" x2="1061.1089" y2="98.9022">
									<stop  offset="0" style="stop-color:#FFED00"/>
									<stop  offset="0.21" style="stop-color:#FFCC00"/>
									<stop  offset="0.47" style="stop-color:#FFED00"/>
									<stop  offset="0.75" style="stop-color:#FFCC00"/>
									<stop  offset="1" style="stop-color:#FFED00"/>
								</linearGradient>
								
									<path style="fill-rule:evenodd;clip-rule:evenodd;fill:url(#SVGID_00000069388320422188947080000000780372809390476705_);stroke:#000000;stroke-width:0.5;stroke-linecap:round;stroke-linejoin:round;stroke-miterlimit:22.9256;" d="
									M1056.3,100.2h3.5v-8.6h-3.5V100.2L1056.3,100.2z M1057,92.9h0.6v1.5h-0.6V92.9L1057,92.9z M1058.5,92.9h0.6v1.5h-0.6V92.9
									L1058.5,92.9z M1057,95.3h0.6v1.5h-0.6V95.3L1057,95.3z M1058.5,95.3h0.6v1.5h-0.6V95.3L1058.5,95.3z M1057,97.8h0.6v1.5
									h-0.6V97.8L1057,97.8z M1058.5,97.8h0.6v1.5h-0.6V97.8z"/>
								
									<linearGradient id="SVGID_00000156549188967226369760000003877470086944879801_" gradientUnits="userSpaceOnUse" x1="1057.0881" y1="91.0064" x2="1059.2369" y2="91.579">
									<stop  offset="0" style="stop-color:#FFED00"/>
									<stop  offset="0.21" style="stop-color:#FFCC00"/>
									<stop  offset="0.47" style="stop-color:#FFED00"/>
									<stop  offset="0.75" style="stop-color:#FFCC00"/>
									<stop  offset="1" style="stop-color:#FFED00"/>
								</linearGradient>
								
									<polygon style="fill-rule:evenodd;clip-rule:evenodd;fill:url(#SVGID_00000156549188967226369760000003877470086944879801_);stroke:#000000;stroke-width:0.5;stroke-linecap:round;stroke-linejoin:round;stroke-miterlimit:22.9256;" points="
									1058.1,90.3 1059.2,91 1060.4,91.6 1058.1,91.6 1055.8,91.6 1056.9,91 								"/>
							</g>
						</g>
						
							<linearGradient id="SVGID_00000130621776105830749450000013016683835516691081_" gradientUnits="userSpaceOnUse" x1="1046.4242" y1="91.4836" x2="1055.7257" y2="100.7851">
							<stop  offset="0" style="stop-color:#FFED00"/>
							<stop  offset="0.21" style="stop-color:#FFCC00"/>
							<stop  offset="0.47" style="stop-color:#FFED00"/>
							<stop  offset="0.75" style="stop-color:#FFCC00"/>
							<stop  offset="1" style="stop-color:#FFED00"/>
						</linearGradient>
						
							<polygon style="fill-rule:evenodd;clip-rule:evenodd;fill:url(#SVGID_00000130621776105830749450000013016683835516691081_);stroke:#000000;stroke-width:0.5;stroke-linecap:round;stroke-linejoin:round;stroke-miterlimit:22.9256;" points="
							1056.3,100.2 1052.8,100.2 1052.8,94 1051.1,92.2 1049.4,94 1049.4,100.2 1045.8,100.2 1045.8,92.1 1056.3,92.1 						"/>
						
							<linearGradient id="SVGID_00000178896823611483953210000005195137600837690537_" gradientUnits="userSpaceOnUse" x1="1047.9408" y1="89.967" x2="1054.2091" y2="96.2354">
							<stop  offset="0" style="stop-color:#FFED00"/>
							<stop  offset="0.21" style="stop-color:#FFCC00"/>
							<stop  offset="0.47" style="stop-color:#FFED00"/>
							<stop  offset="0.75" style="stop-color:#FFCC00"/>
							<stop  offset="1" style="stop-color:#FFED00"/>
						</linearGradient>
						
							<polygon style="fill-rule:evenodd;clip-rule:evenodd;fill:url(#SVGID_00000178896823611483953210000005195137600837690537_);stroke:#000000;stroke-width:0.5;stroke-linecap:round;stroke-linejoin:round;stroke-miterlimit:22.9256;" points="
							1056.3,94.1 1052.8,94.1 1052.8,94 1051.1,92.2 1049.4,94 1049.4,94.1 1045.8,94.1 1045.8,92.1 1056.3,92.1 						"/>
						
							<linearGradient id="SVGID_00000179625893801591595100000007077021636954712991_" gradientUnits="userSpaceOnUse" x1="1047.8477" y1="94.0505" x2="1054.3021" y2="100.5051">
							<stop  offset="0" style="stop-color:#FFED00"/>
							<stop  offset="0.21" style="stop-color:#FFCC00"/>
							<stop  offset="0.47" style="stop-color:#FFED00"/>
							<stop  offset="0.75" style="stop-color:#FFCC00"/>
							<stop  offset="1" style="stop-color:#FFED00"/>
						</linearGradient>
						
							<path style="fill-rule:evenodd;clip-rule:evenodd;fill:url(#SVGID_00000179625893801591595100000007077021636954712991_);stroke:#000000;stroke-width:0.5;stroke-linecap:round;stroke-linejoin:round;stroke-miterlimit:22.9256;" d="
							M1046.2,95.7h0.6v1.2h-0.6V95.7L1046.2,95.7z M1047.3,95.7h0.6v1.2h-0.6V95.7L1047.3,95.7z M1048.5,95.7h0.6v1.2h-0.6V95.7
							L1048.5,95.7z M1046.2,97.6h0.6v1.2h-0.6V97.6L1046.2,97.6z M1047.3,97.6h0.6v1.2h-0.6V97.6L1047.3,97.6z M1048.5,97.6h0.6
							v1.2h-0.6V97.6L1048.5,97.6z M1053.1,95.7h0.6v1.2h-0.6V95.7L1053.1,95.7z M1054.3,95.7h0.6v1.2h-0.6V95.7L1054.3,95.7z
							 M1055.4,95.7h0.6v1.2h-0.6V95.7L1055.4,95.7z M1053.1,97.6h0.6v1.2h-0.6V97.6L1053.1,97.6z M1054.3,97.6h0.6v1.2h-0.6V97.6
							L1054.3,97.6z M1055.4,97.6h0.6v1.2h-0.6V97.6z"/>
						
							<linearGradient id="SVGID_00000143594753531373019940000007008462497277543568_" gradientUnits="userSpaceOnUse" x1="1048.5072" y1="91.8553" x2="1053.6428" y2="96.9909">
							<stop  offset="0" style="stop-color:#FFED00"/>
							<stop  offset="0.21" style="stop-color:#FFCC00"/>
							<stop  offset="0.47" style="stop-color:#FFED00"/>
							<stop  offset="0.75" style="stop-color:#FFCC00"/>
							<stop  offset="1" style="stop-color:#FFED00"/>
						</linearGradient>
						
							<path style="fill-rule:evenodd;clip-rule:evenodd;fill:url(#SVGID_00000143594753531373019940000007008462497277543568_);stroke:#000000;stroke-width:0.25;stroke-linecap:round;stroke-linejoin:round;stroke-miterlimit:22.9256;" d="
							M1046.8,94.1v0.6h-0.5v-0.6H1046.8L1046.8,94.1z M1047.8,94.1v0.6h-0.5v-0.6H1047.8L1047.8,94.1z M1048.9,94.1v0.6h-0.5v-0.6
							H1048.9L1048.9,94.1z M1053.8,94.1v0.6h-0.5v-0.6H1053.8L1053.8,94.1z M1054.8,94.1v0.6h-0.5v-0.6H1054.8L1054.8,94.1z
							 M1055.9,94.1v0.6h-0.5v-0.6H1055.9z"/>
						
							<linearGradient id="SVGID_00000121999985974321690030000016168766825171626157_" gradientUnits="userSpaceOnUse" x1="1048.6981" y1="94.6548" x2="1053.5004" y2="99.457">
							<stop  offset="0" style="stop-color:#FFED00"/>
							<stop  offset="0.21" style="stop-color:#FFCC00"/>
							<stop  offset="0.47" style="stop-color:#FFED00"/>
							<stop  offset="0.75" style="stop-color:#FFCC00"/>
							<stop  offset="1" style="stop-color:#FFED00"/>
						</linearGradient>
						
							<path style="fill-rule:evenodd;clip-rule:evenodd;fill:url(#SVGID_00000121999985974321690030000016168766825171626157_);stroke:#000000;stroke-width:0.5;stroke-linecap:round;stroke-linejoin:round;stroke-miterlimit:22.9256;" d="
							M1052.8,100.2h-3.4V94l1.8-1.8l1.7,1.8V100.2L1052.8,100.2z M1050.6,97.5v2.6h0.9v-2.6H1050.6L1050.6,97.5z M1050.8,93.6v1.2
							h0.5v-1.2H1050.8L1050.8,93.6z M1049.9,95.4v1.2h0.5v-1.2H1049.9L1049.9,95.4z M1051.7,95.4v1.2h0.5v-1.2H1051.7z"/>
					</g>
				</g>
				<g>
					<polygon class="st8" points="1031.3,64 1031.3,62 1024.1,62 1024.1,64 1026.1,64 1026.1,71.6 1024.1,71.6 1024.1,73.6 
						1031.3,73.6 1031.3,71.6 1029.3,71.6 1029.3,64 					"/>
					<polygon class="st40" points="1031.3,64 1031.3,62 1024.1,62 1024.1,64 1026.1,64 1026.1,71.6 1024.1,71.6 1024.1,73.6 
						1031.3,73.6 1031.3,71.6 1029.3,71.6 1029.3,64 					"/>
					<polygon class="st8" points="1065.2,62 1065.2,64 1067.4,64 1067.4,71.6 1065.2,71.6 1065.2,73.6 1079.1,73.6 1079.1,71.9 
						1079.1,71.6 1079.1,69.9 1076.5,69.9 1075.8,71.6 1070.7,71.6 1070.7,68.4 1074.1,68.4 1074.1,66.4 1070.7,66.4 1070.7,64 
						1075.7,64 1076.5,65.8 1079.1,65.8 1079.1,64 1079.1,63.8 1079.1,62 					"/>
					<polygon class="st40" points="1065.2,62 1065.2,64 1067.4,64 1067.4,71.6 1065.2,71.6 1065.2,73.6 1079.1,73.6 1079.1,71.9 
						1079.1,71.6 1079.1,69.9 1076.5,69.9 1075.8,71.6 1070.7,71.6 1070.7,68.4 1074.1,68.4 1074.1,66.4 1070.7,66.4 1070.7,64 
						1075.7,64 1076.5,65.8 1079.1,65.8 1079.1,64 1079.1,63.8 1079.1,62 					"/>
					<polygon class="st8" points="1059.2,64 1059.2,62 1054.6,62 1052,62 1051.7,62 1049.3,66.9 1046.9,62 1046.9,62 1043.9,62 
						1039.7,62 1039.7,64 1041.7,64 1041.7,71.6 1039.7,71.6 1039.7,73.6 1046.9,73.6 1046.9,71.6 1044.9,71.6 1044.9,64.3 
						1048.1,71.9 1049.3,71.9 1049.3,71.9 1050.5,71.9 1053.8,64 1053.9,64 1053.9,71.6 1052,71.6 1052,73.6 1059.2,73.6 
						1059.2,71.6 1057.2,71.6 1057.2,64 					"/>
					<polygon class="st40" points="1059.2,64 1059.2,62 1054.6,62 1052,62 1051.7,62 1049.3,66.9 1046.9,62 1046.9,62 1043.9,62 
						1039.7,62 1039.7,64 1041.7,64 1041.7,71.6 1039.7,71.6 1039.7,73.6 1046.9,73.6 1046.9,71.6 1044.9,71.6 1044.9,64.3 
						1048.1,71.9 1049.3,71.9 1049.3,71.9 1050.5,71.9 1053.8,64 1053.9,64 1053.9,71.6 1052,71.6 1052,73.6 1059.2,73.6 
						1059.2,71.6 1057.2,71.6 1057.2,64 					"/>
				</g>
			</g>
		</g>
	</g>
</g>
</svg>
