<?xml version="1.0" encoding="utf-8"?>
<!-- Generator: Adobe Illustrator 27.2.0, SVG Export Plug-In . SVG Version: 6.00 Build 0)  -->
<svg version="1.1" xmlns="http://www.w3.org/2000/svg" xmlns:xlink="http://www.w3.org/1999/xlink" x="0px" y="0px"
	 viewBox="0 0 500 231" style="enable-background:new 0 0 500 231;" xml:space="preserve">
<style type="text/css">
	.st0{clip-path:url(#SVGID_00000036966300897427522170000000578466330173360546_);}
	.st1{fill:url(#SVGID_00000105394792619376806200000014852790281799827116_);}
	.st2{fill:url(#SVGID_00000016764716829188539950000010493252536707849884_);}
	.st3{fill:url(#SVGID_00000049196261546083752090000002415644354458589312_);}
	.st4{fill:url(#SVGID_00000023971505614824331220000004376407117210513324_);}
	.st5{fill:url(#SVGID_00000034769620665169760920000010090572974973382828_);}
	.st6{fill:url(#SVGID_00000179608210436765161080000008505646012725434286_);}
	.st7{fill:#1C2243;}
	.st8{fill:#FFFFFF;}
	.st9{fill:none;stroke:#FFFFFF;stroke-width:2;stroke-miterlimit:10;}
	.st10{fill:#3C98D4;}
	.st11{fill:#F6CF00;}
	.st12{fill:none;stroke:#F6CF00;stroke-miterlimit:10;}
	
		.st13{fill-rule:evenodd;clip-rule:evenodd;fill:#FFFFFF;stroke:#000000;stroke-linecap:round;stroke-linejoin:round;stroke-miterlimit:22.9256;}
	
		.st14{fill-rule:evenodd;clip-rule:evenodd;fill:#009FE3;stroke:#000000;stroke-width:0.5;stroke-linecap:round;stroke-linejoin:round;stroke-miterlimit:22.9256;}
	
		.st15{fill-rule:evenodd;clip-rule:evenodd;fill:none;stroke:#000000;stroke-width:0.1551;stroke-linecap:round;stroke-linejoin:round;stroke-miterlimit:22.9256;}
	
		.st16{fill-rule:evenodd;clip-rule:evenodd;fill:url(#SVGID_00000106831920292697645930000017208303581095202727_);stroke:#000000;stroke-width:0.5;stroke-linecap:round;stroke-linejoin:round;stroke-miterlimit:22.9256;}
	
		.st17{fill-rule:evenodd;clip-rule:evenodd;fill:#008AD1;stroke:#000000;stroke-width:0.5;stroke-linecap:round;stroke-linejoin:round;stroke-miterlimit:22.9256;}
	
		.st18{fill-rule:evenodd;clip-rule:evenodd;fill:#CD301E;stroke:#000000;stroke-width:0.5;stroke-linecap:round;stroke-linejoin:round;stroke-miterlimit:22.9256;}
	
		.st19{fill-rule:evenodd;clip-rule:evenodd;fill:url(#SVGID_00000125588783510730267830000003752884064303689123_);stroke:#000000;stroke-width:0.25;stroke-linecap:round;stroke-linejoin:round;stroke-miterlimit:22.9256;}
	
		.st20{fill-rule:evenodd;clip-rule:evenodd;fill:url(#SVGID_00000062894086932127808130000006022946668304242304_);stroke:#000000;stroke-width:0.25;stroke-linecap:round;stroke-linejoin:round;stroke-miterlimit:22.9256;}
	
		.st21{fill-rule:evenodd;clip-rule:evenodd;fill:url(#SVGID_00000028290162529630710430000010889134705759468444_);stroke:#000000;stroke-width:0.25;stroke-linecap:round;stroke-linejoin:round;stroke-miterlimit:22.9256;}
	
		.st22{fill-rule:evenodd;clip-rule:evenodd;fill:url(#SVGID_00000083773958883747910340000004826551559373587591_);stroke:#000000;stroke-width:0.25;stroke-linecap:round;stroke-linejoin:round;stroke-miterlimit:22.9256;}
	
		.st23{fill-rule:evenodd;clip-rule:evenodd;fill:url(#SVGID_00000174589695348078147110000012114446933426908807_);stroke:#000000;stroke-width:0.25;stroke-linecap:round;stroke-linejoin:round;stroke-miterlimit:22.9256;}
	
		.st24{fill-rule:evenodd;clip-rule:evenodd;fill:url(#SVGID_00000042732901082206673200000015704998419567753395_);stroke:#000000;stroke-width:0.25;stroke-linecap:round;stroke-linejoin:round;stroke-miterlimit:22.9256;}
	
		.st25{fill-rule:evenodd;clip-rule:evenodd;fill:url(#SVGID_00000116914750819109422300000005483397445609431735_);stroke:#000000;stroke-width:0.25;stroke-linecap:round;stroke-linejoin:round;stroke-miterlimit:22.9256;}
	
		.st26{fill-rule:evenodd;clip-rule:evenodd;fill:url(#SVGID_00000153670997083476354390000004690647916034142848_);stroke:#000000;stroke-width:0.25;stroke-linecap:round;stroke-linejoin:round;stroke-miterlimit:22.9256;}
	
		.st27{fill-rule:evenodd;clip-rule:evenodd;fill:url(#SVGID_00000000926198789427467280000006874492515126987184_);stroke:#000000;stroke-width:0.5;stroke-linecap:round;stroke-linejoin:round;stroke-miterlimit:22.9256;}
	
		.st28{fill-rule:evenodd;clip-rule:evenodd;fill:url(#SVGID_00000073699260509107156400000018253743984366579391_);stroke:#000000;stroke-width:0.5;stroke-linecap:round;stroke-linejoin:round;stroke-miterlimit:22.9256;}
	
		.st29{fill-rule:evenodd;clip-rule:evenodd;fill:none;stroke:#000000;stroke-width:0.5;stroke-linecap:round;stroke-linejoin:round;stroke-miterlimit:22.9256;}
	
		.st30{fill-rule:evenodd;clip-rule:evenodd;fill:url(#SVGID_00000021100097876334090490000015989824729310073533_);stroke:#000000;stroke-width:0.25;stroke-linecap:round;stroke-linejoin:round;stroke-miterlimit:22.9256;}
	
		.st31{fill-rule:evenodd;clip-rule:evenodd;fill:url(#SVGID_00000124161463291320589890000008834010469315864723_);stroke:#000000;stroke-width:0.25;stroke-linecap:round;stroke-linejoin:round;stroke-miterlimit:22.9256;}
	
		.st32{fill-rule:evenodd;clip-rule:evenodd;fill:url(#SVGID_00000060753474259008389730000018321905856548584604_);stroke:#000000;stroke-width:0.25;stroke-linecap:round;stroke-linejoin:round;stroke-miterlimit:22.9256;}
	
		.st33{fill-rule:evenodd;clip-rule:evenodd;fill:url(#SVGID_00000029004699683623664670000012814460234022853564_);stroke:#000000;stroke-width:0.25;stroke-linecap:round;stroke-linejoin:round;stroke-miterlimit:22.9256;}
	
		.st34{fill-rule:evenodd;clip-rule:evenodd;fill:url(#SVGID_00000042694919436122636400000012989692370659785348_);stroke:#000000;stroke-width:0.25;stroke-linecap:round;stroke-linejoin:round;stroke-miterlimit:22.9256;}
	
		.st35{fill-rule:evenodd;clip-rule:evenodd;fill:url(#SVGID_00000095322093366467369180000011202727676931101606_);stroke:#000000;stroke-width:0.25;stroke-linecap:round;stroke-linejoin:round;stroke-miterlimit:22.9256;}
	
		.st36{fill-rule:evenodd;clip-rule:evenodd;fill:url(#SVGID_00000076574094612852815820000009517076787389431719_);stroke:#000000;stroke-width:0.25;stroke-linecap:round;stroke-linejoin:round;stroke-miterlimit:22.9256;}
	
		.st37{fill-rule:evenodd;clip-rule:evenodd;fill:url(#SVGID_00000110434837201722402490000017193784833795992989_);stroke:#000000;stroke-width:0.25;stroke-linecap:round;stroke-linejoin:round;stroke-miterlimit:22.9256;}
	
		.st38{fill-rule:evenodd;clip-rule:evenodd;fill:url(#SVGID_00000005262553496952583320000008051848290505009338_);stroke:#000000;stroke-width:0.25;stroke-linecap:round;stroke-linejoin:round;stroke-miterlimit:22.9256;}
	.st39{fill:none;stroke:#000000;stroke-width:0.5;stroke-linecap:round;stroke-linejoin:round;stroke-miterlimit:22.9256;}
	.st40{fill-rule:evenodd;clip-rule:evenodd;fill:#FFFFFF;}
</style>
<g id="Camada_1">
	<g>
		<defs>
			<rect id="SVGID_1_" width="500" height="231"/>
		</defs>
		<clipPath id="SVGID_00000127012011341988759040000013976552438554622116_">
			<use xlink:href="#SVGID_1_"  style="overflow:visible;"/>
		</clipPath>
		<g style="clip-path:url(#SVGID_00000127012011341988759040000013976552438554622116_);">
			<g>
				
					<linearGradient id="SVGID_00000008850625531715765680000010089829124269697956_" gradientUnits="userSpaceOnUse" x1="526.279" y1="-78.4527" x2="187.7744" y2="156.8492">
					<stop  offset="0" style="stop-color:#104C84"/>
					<stop  offset="1" style="stop-color:#1A3761"/>
				</linearGradient>
				<polygon style="fill:url(#SVGID_00000008850625531715765680000010089829124269697956_);" points="-9.1,286.9 -9.1,-57.8 
					506.4,-57.8 506.4,286.9 				"/>
			</g>
			
				<linearGradient id="SVGID_00000138546712099405006710000012451373677248171435_" gradientUnits="userSpaceOnUse" x1="431.4649" y1="-129.3663" x2="50.5411" y2="185.4892">
				<stop  offset="0" style="stop-color:#104C84"/>
				<stop  offset="1" style="stop-color:#1A3761"/>
			</linearGradient>
			<path style="fill:url(#SVGID_00000138546712099405006710000012451373677248171435_);" d="M283,284.8c6.5-12.3,9.6-26.7,4.2-40.1
				c-2.8-6.9-7.7-14-13.8-18.3c-5-3.5-11.1-5.2-17-6.6c-10.4-2.5-23.6-4-29.9-13.9c-6.9-10.7-1.7-25.1,3.7-35.3
				c6.8-12.7,16.2-23.8,25.1-35c9.3-11.7,17.5-24.6,21.6-39.1c2.3-8,3.2-16.4,1.7-24.6c-1.5-8.6-5.7-16.5-11.5-22.9
				c-9.8-11-24.8-15.5-39-16.6c-14.6-1.1-29.3,1.1-43.4,4.6C164.2,42.4,144.5,52.4,123,53c-8.9,0.3-18.8-1.4-24.6-8.8
				c-5.6-7.3-6.7-18.8-3.4-27.3c3.3-8.6,10.8-14.5,18.5-19c9.3-5.3,19.4-9,29.4-12.9c9.2-3.7,19-7.4,26.8-13.6
				c3.7-3,6.5-6.6,8.7-10.9c2.1-4.2,3.4-9.1,1.7-13.6c-0.7-1.8-1.7-3.3-2.9-4.6H-9.1v344.7h291C282.3,286.2,282.7,285.5,283,284.8z"
				/>
			<g>
				
					<linearGradient id="SVGID_00000071546770103011290770000006025050313511295654_" gradientUnits="userSpaceOnUse" x1="280.287" y1="257.5888" x2="508.91" y2="12.4387">
					<stop  offset="0" style="stop-color:#104C84"/>
					<stop  offset="1" style="stop-color:#1A3761"/>
				</linearGradient>
				<path style="fill:url(#SVGID_00000071546770103011290770000006025050313511295654_);" d="M316.4-55.6
					c-2.3,13.9-2.1,39.1,11.1,48.8c8.6,6.2,18.3,5.1,27.6,1.3c22-9.1,34.6-20.6,59.4-24c41.8-5.7,44,34.4,12.7,53.9
					c-10.9,6.8-21.6,13.7-32.8,20.1c-49,28.1-120.8,86.5-88.5,147.7c12.5,23.6,38.8,37.7,66.8,32c24.7-5,93.9-53.3,103.6-4.8
					c2.4,12.1-3.1,25.1-8.5,35.9c-6,12.1-13.7,23.4-21.8,34.4H509c0,0,0-348.7,0-348.7c0,0.1-177.3-0.1-191.9-0.1
					C316.8-58,316.6-56.8,316.4-55.6z"/>
			</g>
			<g>
				
					<linearGradient id="SVGID_00000167396591019224582870000004666251948106185613_" gradientUnits="userSpaceOnUse" x1="412.553" y1="212.0528" x2="584.9045" y2="-60.9516">
					<stop  offset="0" style="stop-color:#104C84"/>
					<stop  offset="1" style="stop-color:#1A3761"/>
				</linearGradient>
				<path style="fill:url(#SVGID_00000167396591019224582870000004666251948106185613_);" d="M474.7-59.1c6.2,8.5,8,20.3,7.9,30.3
					c-0.1,17-8,31.1-19.9,43.5c-10.9,11.4-23.6,21.3-33.4,33.6c-8.6,10.7-14.8,23.4-17.7,36.5c-2.8,12.9-2,27,5.7,38.3
					c9.3,13.6,26,18.3,41.5,23.2c15.3,4.8,27.6,11.6,36.1,24.9c7.3,11.4,11.2,24.6,11.9,37.9c0.4,7.6-0.3,15.3-2.1,22.7h4.1
					c0,0,0-291,0-291C509-59.1,494.7-59.1,474.7-59.1z"/>
			</g>
			
				<linearGradient id="SVGID_00000179618480672618230210000007723199444659710882_" gradientUnits="userSpaceOnUse" x1="-56.436" y1="57.9358" x2="160.2855" y2="274.6573">
				<stop  offset="0" style="stop-color:#104C84"/>
				<stop  offset="1" style="stop-color:#1A3761"/>
			</linearGradient>
			<path style="fill:url(#SVGID_00000179618480672618230210000007723199444659710882_);" d="M145.8,286.8
				c1.8-11.2,1.7-31.4-8.9-39.1c-6.9-5-14.7-4.1-22.1-1c-17.6,7.3-27.7,16.5-47.6,19.2c-33.5,4.5-35.3-27.6-10.1-43.2
				c8.8-5.4,17.3-11,26.3-16.1c39.3-22.5,96.8-69.3,71-118.4C144.7,70,124.9,58.9,103.5,62c-1.7,0.2-3.3,0.7-5,1.2
				C-7.3,95-8.5,10-8.5,10s0,279.6,0,279.6c0-0.1,142.2,0,153.8,0.1C145.5,288.7,145.7,287.7,145.8,286.8z"/>
			<g>
				
					<linearGradient id="SVGID_00000057124778713543750140000009809360337489986960_" gradientUnits="userSpaceOnUse" x1="-1495.7478" y1="-348.09" x2="-1557.7855" y2="-534.204" gradientTransform="matrix(-1 0 0 -1 -1535.7303 -337.9256)">
					<stop  offset="0" style="stop-color:#104C84"/>
					<stop  offset="1" style="stop-color:#1A3761"/>
				</linearGradient>
				<path style="fill:url(#SVGID_00000057124778713543750140000009809360337489986960_);" d="M18.9,289.6c-5-6.8-6.4-16.3-6.3-24.3
					c0.1-13.6,6.4-24.9,15.9-34.9c8.7-9.1,18.9-17.1,26.8-27c6.9-8.6,11.9-18.7,14.2-29.3c2.2-10.3,1.6-21.6-4.6-30.7
					c-7.5-10.9-20.8-14.7-33.3-18.6c-12.2-3.9-22.1-9.3-28.9-19.9c-5.9-9.1-9-19.8-9.5-30.4c-0.3-6.1,0.3-12.3,1.7-18.2h-3.3
					c0,0,0,233.3,0,233.3C-8.5,289.6,2.9,289.6,18.9,289.6z"/>
			</g>
		</g>
	</g>
</g>
<g id="Camada_2">
	<g>
		<g>
			<g>
				<path class="st7" d="M152.3,142.2c0-2.1,0.4-4.1,1.2-6c0.8-1.9,1.9-3.5,3.3-4.9c1.4-1.4,3-2.5,4.9-3.3c1.9-0.8,3.9-1.2,6-1.2
					c1.9,0,3.7,0.3,5.4,0.9c1.7,0.6,3.2,1.4,4.5,2.5c1.3,1.1,2.4,2.3,3.3,3.8c0.9,1.5,1.5,3.1,1.8,4.9h-7.6
					c-0.5-1.6-1.4-2.9-2.8-3.8c-1.3-0.9-2.9-1.4-4.7-1.4c-1.2,0-2.2,0.2-3.2,0.7c-1,0.4-1.9,1.1-2.6,1.8c-0.8,0.8-1.3,1.7-1.8,2.7
					c-0.4,1-0.6,2.1-0.6,3.3c0,1.2,0.2,2.3,0.6,3.3c0.4,1,1,1.9,1.8,2.7c0.8,0.8,1.6,1.4,2.6,1.8c1,0.4,2.1,0.7,3.2,0.7
					c1.8,0,3.3-0.5,4.7-1.4c1.3-0.9,2.2-2.2,2.8-3.8h7.6c-0.3,1.8-0.9,3.4-1.8,4.9c-0.9,1.5-2,2.8-3.3,3.8c-1.3,1.1-2.8,1.9-4.5,2.5
					c-1.7,0.6-3.5,0.9-5.4,0.9c-2.1,0-4.1-0.4-6-1.2c-1.9-0.8-3.5-1.9-4.9-3.3c-1.4-1.4-2.5-3-3.3-4.9
					C152.7,146.3,152.3,144.3,152.3,142.2z"/>
				<path class="st7" d="M185.7,142.2c0-2.1,0.4-4.1,1.2-6c0.8-1.9,1.9-3.5,3.3-4.9c1.4-1.4,3-2.5,4.9-3.3c1.9-0.8,3.9-1.2,6-1.2
					s4.1,0.4,6,1.2c1.9,0.8,3.5,1.9,4.9,3.3c1.4,1.4,2.5,3,3.3,4.9c0.8,1.9,1.2,3.8,1.2,6c0,2.1-0.4,4.1-1.2,6
					c-0.8,1.9-1.9,3.5-3.3,4.9c-1.4,1.4-3,2.5-4.9,3.3c-1.9,0.8-3.9,1.2-6,1.2s-4.1-0.4-6-1.2c-1.9-0.8-3.5-1.9-4.9-3.3
					c-1.4-1.4-2.5-3-3.3-4.9C186.1,146.3,185.7,144.3,185.7,142.2z M192.9,142.2c0,1.2,0.2,2.3,0.6,3.3c0.4,1,1,1.9,1.8,2.7
					c0.8,0.8,1.6,1.4,2.6,1.8c1,0.4,2.1,0.7,3.2,0.7s2.2-0.2,3.2-0.7c1-0.4,1.9-1.1,2.6-1.8c0.8-0.8,1.3-1.7,1.8-2.7
					c0.4-1,0.6-2.1,0.6-3.3c0-1.2-0.2-2.2-0.6-3.3c-0.4-1-1-1.9-1.8-2.7c-0.8-0.8-1.6-1.4-2.6-1.8c-1-0.4-2.1-0.7-3.2-0.7
					c-1.1,0-2.2,0.2-3.2,0.7c-1,0.4-1.9,1.1-2.6,1.8c-0.8,0.8-1.3,1.7-1.8,2.7C193.1,139.9,192.9,141,192.9,142.2z"/>
				<path class="st7" d="M221.3,127.3h9.7l6.8,16.3l6.8-16.3h9.7v29.8h-6.8v-21.2l-6.4,15.5h-6.6l-6.4-15.5v21.2h-6.8V127.3z"/>
				<path class="st7" d="M260.4,127.3h21.9v6.1h-15v5.9h12.4v5.9h-12.4v5.8h15v6.1h-21.9V127.3z"/>
				<path class="st7" d="M287.3,127.3h8.6l10.9,19.8v-19.8h6.8v29.8H305l-10.9-19.8v19.8h-6.8V127.3z"/>
				<path class="st7" d="M326.5,133.3H317v-6h25.8v6h-9.5v23.8h-6.8V133.3z"/>
				<path class="st7" d="M351,127.3h8.4l10.9,29.8h-7l-2-5.2H349l-1.9,5.2h-7L351,127.3z M359.5,146.4l-4.3-11.7l-4.3,11.7H359.5z"
					/>
				<path class="st7" d="M373.5,157.1v-29.8h12c2.2,0,4.2,0.4,6.1,1.1c1.8,0.7,3.4,1.8,4.8,3.1c1.3,1.3,2.4,2.9,3.1,4.7
					c0.7,1.8,1.1,3.8,1.1,6c0,2.2-0.4,4.2-1.1,6c-0.7,1.8-1.8,3.4-3.1,4.7c-1.3,1.3-2.9,2.3-4.8,3.1c-1.9,0.7-3.9,1.1-6.1,1.1H373.5
					z M380.4,150.4h5.2c1.2,0,2.2-0.2,3.2-0.6c1-0.4,1.8-1,2.5-1.7s1.2-1.6,1.6-2.6s0.6-2.1,0.6-3.4c0-1.2-0.2-2.4-0.6-3.4
					c-0.4-1-0.9-1.9-1.6-2.6c-0.7-0.7-1.5-1.3-2.5-1.7c-1-0.4-2-0.6-3.2-0.6h-5.2V150.4z"/>
				<path class="st7" d="M403.7,142.2c0-2.1,0.4-4.1,1.2-6c0.8-1.9,1.9-3.5,3.3-4.9c1.4-1.4,3-2.5,4.9-3.3c1.9-0.8,3.9-1.2,6-1.2
					s4.1,0.4,6,1.2c1.9,0.8,3.5,1.9,4.9,3.3c1.4,1.4,2.5,3,3.3,4.9c0.8,1.9,1.2,3.8,1.2,6c0,2.1-0.4,4.1-1.2,6
					c-0.8,1.9-1.9,3.5-3.3,4.9c-1.4,1.4-3.1,2.5-4.9,3.3c-1.9,0.8-3.9,1.2-6,1.2s-4.1-0.4-6-1.2c-1.9-0.8-3.5-1.9-4.9-3.3
					c-1.4-1.4-2.5-3-3.3-4.9C404.1,146.3,403.7,144.3,403.7,142.2z M410.9,142.2c0,1.2,0.2,2.3,0.6,3.3c0.4,1,1,1.9,1.8,2.7
					c0.8,0.8,1.6,1.4,2.6,1.8c1,0.4,2.1,0.7,3.2,0.7c1.2,0,2.2-0.2,3.2-0.7c1-0.4,1.9-1.1,2.6-1.8c0.8-0.8,1.3-1.7,1.8-2.7
					c0.4-1,0.6-2.1,0.6-3.3c0-1.2-0.2-2.2-0.6-3.3c-0.4-1-1-1.9-1.8-2.7c-0.8-0.8-1.6-1.4-2.6-1.8c-1-0.4-2.1-0.7-3.2-0.7
					c-1.1,0-2.2,0.2-3.2,0.7c-1,0.4-1.9,1.1-2.6,1.8c-0.8,0.8-1.3,1.7-1.8,2.7C411.2,139.9,410.9,141,410.9,142.2z"/>
			</g>
		</g>
		<g>
			<g>
				<path class="st7" d="M159.9,87l8.1,22.4l8-22.4h7.7l-11.3,30.9h-8.7L152.3,87H159.9z"/>
				<path class="st7" d="M187.3,87h22.7v6.3h-15.6v6.1h12.9v6.1h-12.9v6h15.6v6.3h-22.7V87z"/>
				<path class="st7" d="M214.5,96.1c0-3.1,1.1-5.4,3.2-7.1c2.1-1.7,5.1-2.5,9-2.5c4,0,7.1,0.9,9.1,2.7c2.1,1.8,3.1,4.3,3.2,7.4
					h-7.3c0-1.3-0.4-2.3-1.2-3.1c-0.8-0.8-2.2-1.2-4-1.2c-1.5,0-2.7,0.3-3.5,0.9c-0.8,0.6-1.2,1.4-1.2,2.4c0,0.6,0.2,1.2,0.5,1.6
					c0.3,0.4,0.8,0.8,1.4,1.1c0.6,0.3,1.2,0.6,2,0.8c0.8,0.2,1.5,0.4,2.4,0.6c1.3,0.3,2.6,0.6,4,0.9c1.4,0.3,2.6,0.8,3.8,1.4
					c1.2,0.6,2.1,1.5,2.8,2.6c0.7,1.1,1.1,2.5,1.1,4.3c0,2.8-1,5.1-3.1,6.8c-2.1,1.7-5.3,2.6-9.6,2.6c-4.4,0-7.7-0.9-9.9-2.7
					c-2.2-1.8-3.3-4.3-3.3-7.4h7.3c0.2,2.8,2.2,4.2,5.9,4.2c1.7,0,2.9-0.3,3.8-0.8c0.9-0.6,1.4-1.3,1.4-2.3c0-0.7-0.2-1.2-0.5-1.7
					c-0.4-0.4-0.8-0.8-1.5-1.1c-0.6-0.3-1.3-0.5-2.1-0.7c-0.8-0.2-1.7-0.4-2.6-0.5c-1.3-0.2-2.5-0.5-3.8-0.8
					c-1.3-0.3-2.5-0.8-3.6-1.5c-1.1-0.7-2-1.5-2.6-2.6C214.8,99.3,214.5,97.9,214.5,96.1z"/>
				<path class="st7" d="M251.7,93.1h-9.8V87h26.8v6.2h-9.9v24.7h-7.1V93.1z"/>
				<path class="st7" d="M272.2,87h7.1v30.9h-7.1V87z"/>
				<path class="st7" d="M298.7,87c3.6,0,6.5,0.8,8.5,2.3c2.1,1.5,3.1,3.6,3.1,6.3c0,1.6-0.4,2.9-1.1,4c-0.7,1.1-1.8,1.9-3.2,2.6
					c1.8,0.6,3.1,1.5,4.1,2.6c1,1.2,1.5,2.7,1.5,4.5c0,1.3-0.3,2.5-0.8,3.6c-0.5,1.1-1.3,2-2.3,2.7c-1,0.8-2.2,1.3-3.7,1.7
					c-1.4,0.4-3.1,0.6-4.9,0.6h-14.2V87H298.7z M298.3,100.1c1.4,0,2.5-0.3,3.4-0.9c0.8-0.6,1.2-1.4,1.2-2.6c0-1.1-0.4-1.9-1.2-2.5
					c-0.8-0.6-2-0.8-3.4-0.8h-5.4v6.8H298.3z M299.3,111.5c1.6,0,2.8-0.3,3.6-0.9c0.8-0.6,1.2-1.5,1.2-2.7c0-2.3-1.7-3.4-5-3.4h-6.3
					v7H299.3z"/>
				<path class="st7" d="M329.6,118.3c-4.3,0-7.6-1.1-10-3.3c-2.3-2.2-3.5-5.3-3.5-9.4V87h7.1V105c0,2.1,0.6,3.7,1.7,4.8
					c1.1,1.2,2.7,1.7,4.7,1.7c2,0,3.5-0.6,4.6-1.7c1.1-1.2,1.7-2.8,1.7-4.8V87h7.1v18.7c0,4.1-1.2,7.2-3.5,9.4
					C337.2,117.2,333.9,118.3,329.6,118.3z"/>
				<path class="st7" d="M348.9,87h7.1v24.4h13.2v6.5h-20.3V87z"/>
				<path class="st7" d="M381.7,87h8.7l11.3,30.9h-7.2l-2-5.4h-12.9l-2,5.4h-7.2L381.7,87z M390.5,106.8L386,94.6l-4.5,12.1H390.5z"
					/>
				<path class="st7" d="M418.1,87c4.1,0,7.2,0.9,9.4,2.6c2.2,1.8,3.3,4.3,3.3,7.5c0,2.4-0.6,4.3-1.8,5.9c-1.2,1.6-2.8,2.7-4.9,3.5
					l6.8,11.3h-8.3l-6.1-10.4h-4.4v10.4H405V87H418.1z M417.9,101.8c1.8,0,3.1-0.4,4.1-1.1c1-0.7,1.4-1.7,1.4-3c0-1.3-0.5-2.2-1.4-3
					c-1-0.7-2.3-1.1-4.1-1.1h-5.8v8.1H417.9z"/>
			</g>
		</g>
		<g>
			<path class="st8" d="M156.2,137.8c0-2.1,0.4-4.1,1.2-6c0.8-1.9,1.9-3.5,3.3-4.9c1.4-1.4,3-2.5,4.9-3.3c1.9-0.8,3.9-1.2,6-1.2
				c1.9,0,3.7,0.3,5.4,0.9c1.7,0.6,3.2,1.4,4.5,2.5c1.3,1.1,2.4,2.3,3.3,3.8c0.9,1.5,1.5,3.1,1.8,4.9h-7.6c-0.5-1.6-1.4-2.9-2.8-3.8
				c-1.3-0.9-2.9-1.4-4.7-1.4c-1.2,0-2.2,0.2-3.2,0.7c-1,0.4-1.9,1.1-2.6,1.8c-0.8,0.8-1.3,1.7-1.8,2.7c-0.4,1-0.6,2.1-0.6,3.3
				c0,1.2,0.2,2.3,0.6,3.3c0.4,1,1,1.9,1.8,2.7c0.8,0.8,1.6,1.4,2.6,1.8c1,0.4,2.1,0.7,3.2,0.7c1.8,0,3.3-0.5,4.7-1.4
				c1.3-0.9,2.2-2.2,2.8-3.8h7.6c-0.3,1.8-0.9,3.4-1.8,4.9c-0.9,1.5-2,2.8-3.3,3.8c-1.3,1.1-2.8,1.9-4.5,2.5
				c-1.7,0.6-3.5,0.9-5.4,0.9c-2.1,0-4.1-0.4-6-1.2c-1.9-0.8-3.5-1.9-4.9-3.3c-1.4-1.4-2.5-3-3.3-4.9
				C156.6,141.9,156.2,139.9,156.2,137.8z"/>
			<path class="st8" d="M189.6,137.8c0-2.1,0.4-4.1,1.2-6c0.8-1.9,1.9-3.5,3.3-4.9c1.4-1.4,3-2.5,4.9-3.3c1.9-0.8,3.9-1.2,6-1.2
				c2.1,0,4.1,0.4,6,1.2c1.9,0.8,3.5,1.9,4.9,3.3c1.4,1.4,2.5,3,3.3,4.9c0.8,1.9,1.2,3.8,1.2,6c0,2.1-0.4,4.1-1.2,6
				c-0.8,1.9-1.9,3.5-3.3,4.9c-1.4,1.4-3,2.5-4.9,3.3c-1.9,0.8-3.9,1.2-6,1.2c-2.1,0-4.1-0.4-6-1.2c-1.9-0.8-3.5-1.9-4.9-3.3
				c-1.4-1.4-2.5-3-3.3-4.9C190,141.9,189.6,139.9,189.6,137.8z M196.8,137.7c0,1.2,0.2,2.3,0.6,3.3c0.4,1,1,1.9,1.8,2.7
				c0.8,0.8,1.6,1.4,2.6,1.8c1,0.4,2.1,0.7,3.2,0.7s2.2-0.2,3.2-0.7c1-0.4,1.9-1.1,2.6-1.8c0.8-0.8,1.3-1.7,1.8-2.7
				c0.4-1,0.6-2.1,0.6-3.3c0-1.2-0.2-2.2-0.6-3.3c-0.4-1-1-1.9-1.8-2.7c-0.8-0.8-1.6-1.4-2.6-1.8c-1-0.4-2.1-0.7-3.2-0.7
				c-1.1,0-2.2,0.2-3.2,0.7c-1,0.4-1.9,1.1-2.6,1.8c-0.8,0.8-1.3,1.7-1.8,2.7C197,135.5,196.8,136.6,196.8,137.7z"/>
			<path class="st8" d="M225.1,122.9h9.7l6.8,16.3l6.8-16.3h9.7v29.8h-6.8v-21.2l-6.4,15.5h-6.6l-6.4-15.5v21.2h-6.8V122.9z"/>
			<path class="st8" d="M264.3,122.9h21.9v6.1h-15v5.9h12.4v5.9h-12.4v5.8h15v6.1h-21.9V122.9z"/>
			<path class="st8" d="M291.1,122.9h8.6l10.9,19.8v-19.8h6.8v29.8h-8.6L298,132.8v19.8h-6.8V122.9z"/>
			<path class="st8" d="M330.4,128.8h-9.5v-6h25.8v6h-9.5v23.8h-6.8V128.8z"/>
			<path class="st8" d="M354.9,122.9h8.4l10.9,29.8h-7l-2-5.2h-12.4l-1.9,5.2h-7L354.9,122.9z M363.4,142l-4.3-11.7l-4.3,11.7H363.4
				z"/>
			<path class="st8" d="M377.4,152.7v-29.8h12c2.2,0,4.2,0.4,6.1,1.1c1.8,0.7,3.4,1.8,4.8,3.1c1.3,1.3,2.4,2.9,3.1,4.7
				c0.7,1.8,1.1,3.8,1.1,6c0,2.2-0.4,4.2-1.1,6c-0.7,1.8-1.8,3.4-3.1,4.7c-1.3,1.3-2.9,2.3-4.8,3.1c-1.9,0.7-3.9,1.1-6.1,1.1H377.4z
				 M384.3,146h5.2c1.2,0,2.2-0.2,3.2-0.6s1.8-1,2.5-1.7c0.7-0.7,1.2-1.6,1.6-2.6c0.4-1,0.6-2.1,0.6-3.4c0-1.2-0.2-2.4-0.6-3.4
				c-0.4-1-0.9-1.9-1.6-2.6c-0.7-0.7-1.5-1.3-2.5-1.7c-1-0.4-2-0.6-3.2-0.6h-5.2V146z"/>
			<path class="st8" d="M407.6,137.8c0-2.1,0.4-4.1,1.2-6c0.8-1.9,1.9-3.5,3.3-4.9c1.4-1.4,3-2.5,4.9-3.3c1.9-0.8,3.9-1.2,6-1.2
				s4.1,0.4,6,1.2c1.9,0.8,3.5,1.9,4.9,3.3c1.4,1.4,2.5,3,3.3,4.9c0.8,1.9,1.2,3.8,1.2,6c0,2.1-0.4,4.1-1.2,6
				c-0.8,1.9-1.9,3.5-3.3,4.9c-1.4,1.4-3.1,2.5-4.9,3.3c-1.9,0.8-3.9,1.2-6,1.2s-4.1-0.4-6-1.2c-1.9-0.8-3.5-1.9-4.9-3.3
				c-1.4-1.4-2.5-3-3.3-4.9C408,141.9,407.6,139.9,407.6,137.8z M414.8,137.7c0,1.2,0.2,2.3,0.6,3.3c0.4,1,1,1.9,1.8,2.7
				c0.8,0.8,1.6,1.4,2.6,1.8c1,0.4,2.1,0.7,3.2,0.7c1.2,0,2.2-0.2,3.2-0.7c1-0.4,1.9-1.1,2.6-1.8c0.8-0.8,1.3-1.7,1.8-2.7
				c0.4-1,0.6-2.1,0.6-3.3c0-1.2-0.2-2.2-0.6-3.3c-0.4-1-1-1.9-1.8-2.7c-0.8-0.8-1.6-1.4-2.6-1.8c-1-0.4-2.1-0.7-3.2-0.7
				c-1.1,0-2.2,0.2-3.2,0.7c-1,0.4-1.9,1.1-2.6,1.8c-0.8,0.8-1.3,1.7-1.8,2.7C415,135.5,414.8,136.6,414.8,137.7z"/>
		</g>
		<g>
			<path class="st8" d="M163.8,82.5l8.1,22.4l8-22.4h7.7l-11.3,30.9h-8.7l-11.3-30.9H163.8z"/>
			<path class="st8" d="M191.1,82.5h22.7v6.3h-15.6V95h12.9v6.1h-12.9v6h15.6v6.3h-22.7V82.5z"/>
			<path class="st8" d="M218.4,91.6c0-3.1,1.1-5.4,3.2-7.1c2.1-1.7,5.1-2.5,9-2.5c4,0,7.1,0.9,9.1,2.7c2.1,1.8,3.1,4.3,3.2,7.4h-7.3
				c0-1.3-0.4-2.3-1.2-3.1c-0.8-0.8-2.2-1.2-4-1.2c-1.5,0-2.7,0.3-3.5,0.9c-0.8,0.6-1.2,1.4-1.2,2.4c0,0.6,0.2,1.2,0.5,1.6
				c0.3,0.4,0.8,0.8,1.4,1.1c0.6,0.3,1.2,0.6,2,0.8c0.8,0.2,1.5,0.4,2.4,0.6c1.3,0.3,2.6,0.6,4,0.9c1.4,0.3,2.6,0.8,3.8,1.4
				c1.2,0.6,2.1,1.5,2.8,2.6c0.7,1.1,1.1,2.5,1.1,4.3c0,2.8-1,5.1-3.1,6.8c-2.1,1.7-5.3,2.6-9.6,2.6c-4.4,0-7.7-0.9-9.9-2.7
				c-2.2-1.8-3.3-4.3-3.3-7.4h7.3c0.2,2.8,2.2,4.2,5.9,4.2c1.7,0,2.9-0.3,3.8-0.8c0.9-0.6,1.4-1.3,1.4-2.3c0-0.7-0.2-1.2-0.5-1.7
				c-0.4-0.4-0.8-0.8-1.5-1.1c-0.6-0.3-1.3-0.5-2.1-0.7c-0.8-0.2-1.7-0.4-2.6-0.5c-1.3-0.2-2.5-0.5-3.8-0.8
				c-1.3-0.3-2.5-0.8-3.6-1.5c-1.1-0.7-2-1.5-2.6-2.6C218.7,94.9,218.4,93.4,218.4,91.6z"/>
			<path class="st8" d="M255.6,88.7h-9.8v-6.2h26.8v6.2h-9.9v24.7h-7.1V88.7z"/>
			<path class="st8" d="M276.1,82.5h7.1v30.9h-7.1V82.5z"/>
			<path class="st8" d="M302.6,82.5c3.6,0,6.5,0.8,8.5,2.3c2.1,1.5,3.1,3.6,3.1,6.3c0,1.6-0.4,2.9-1.1,4c-0.7,1.1-1.8,1.9-3.2,2.6
				c1.8,0.6,3.1,1.5,4.1,2.6c1,1.2,1.5,2.7,1.5,4.5c0,1.3-0.3,2.5-0.8,3.6c-0.5,1.1-1.3,2-2.3,2.7c-1,0.8-2.2,1.3-3.7,1.7
				c-1.4,0.4-3.1,0.6-4.9,0.6h-14.2V82.5H302.6z M302.1,95.6c1.4,0,2.5-0.3,3.4-0.9c0.8-0.6,1.2-1.4,1.2-2.6c0-1.1-0.4-1.9-1.2-2.5
				c-0.8-0.6-2-0.8-3.4-0.8h-5.4v6.8H302.1z M303.2,107c1.6,0,2.8-0.3,3.6-0.9c0.8-0.6,1.2-1.5,1.2-2.7c0-2.3-1.7-3.4-5-3.4h-6.3v7
				H303.2z"/>
			<path class="st8" d="M333.5,113.8c-4.3,0-7.6-1.1-10-3.3c-2.3-2.2-3.5-5.3-3.5-9.4V82.5h7.1v18.1c0,2.1,0.6,3.7,1.7,4.8
				c1.1,1.2,2.7,1.7,4.7,1.7c2,0,3.5-0.6,4.6-1.7c1.1-1.2,1.7-2.8,1.7-4.8V82.5h7.1v18.7c0,4.1-1.2,7.2-3.5,9.4
				C341.1,112.8,337.8,113.8,333.5,113.8z"/>
			<path class="st8" d="M352.8,82.5h7.1v24.4h13.2v6.5h-20.3V82.5z"/>
			<path class="st8" d="M385.5,82.5h8.7l11.3,30.9h-7.2l-2-5.4h-12.9l-2,5.4h-7.2L385.5,82.5z M394.3,102.3l-4.4-12.1l-4.5,12.1
				H394.3z"/>
			<path class="st8" d="M421.9,82.5c4.1,0,7.2,0.9,9.4,2.6c2.2,1.8,3.3,4.3,3.3,7.5c0,2.4-0.6,4.3-1.8,5.9c-1.2,1.6-2.8,2.7-4.9,3.5
				l6.8,11.3h-8.3l-6.1-10.4H416v10.4h-7.1V82.5H421.9z M421.8,97.4c1.8,0,3.1-0.4,4.1-1.1c1-0.7,1.4-1.7,1.4-3c0-1.3-0.5-2.2-1.4-3
				c-1-0.7-2.3-1.1-4.1-1.1H416v8.1H421.8z"/>
		</g>
		<g>
			<g>
				<path class="st9" d="M148,161.6h-18.7c-1.1,0-1.9,1-1.9,2.2v10.8c0,1.2,0.9,2.2,1.9,2.2h10c0.1,0,0.1,0,0.2,0l5.8,2.7
					c0.6,0.3,1.2-0.2,1.2-0.9v-1.3c0-0.3,0.2-0.6,0.5-0.6h1c1.1,0,1.9-1,1.9-2.2v-10.8C149.9,162.6,149.1,161.6,148,161.6z"/>
			</g>
			<g>
				<g>
					<g>
						<path class="st10" d="M151,163.8h-18.7c-1.1,0-1.9,1-1.9,2.2v10.8c0,1.2,0.9,2.2,1.9,2.2h10c0.1,0,0.1,0,0.2,0l5.8,2.7
							c0.6,0.3,1.2-0.2,1.2-0.9v-1.3c0-0.3,0.2-0.6,0.5-0.6h1c1.1,0,1.9-1,1.9-2.2V166C152.9,164.8,152.1,163.8,151,163.8z"/>
					</g>
				</g>
			</g>
		</g>
		<g>
			<g>
				<path class="st9" d="M149.4,51.8h-18.7c-1.1,0-1.9,1-1.9,2.2v10.8c0,1.2,0.9,2.2,1.9,2.2h10c0.1,0,0.1,0,0.2,0l5.8,2.7
					c0.6,0.3,1.2-0.2,1.2-0.9v-1.3c0-0.3,0.2-0.6,0.5-0.6h1c1.1,0,1.9-1,1.9-2.2V54C151.4,52.8,150.5,51.8,149.4,51.8z"/>
			</g>
			<g>
				<g>
					<path class="st8" d="M152.4,54h-18.7c-1.1,0-1.9,1-1.9,2.2V67c0,1.2,0.9,2.2,1.9,2.2h10c0.1,0,0.1,0,0.2,0l5.8,2.7
						c0.6,0.3,1.2-0.2,1.2-0.9v-1.3c0-0.3,0.2-0.6,0.5-0.6h1c1.1,0,1.9-1,1.9-2.2V56.2C154.4,55,153.5,54,152.4,54z"/>
				</g>
			</g>
		</g>
		<g>
			<g>
				<path class="st9" d="M440.1,53.2h23.8c1.4,0,2.5,1.3,2.5,2.8v13.7c0,1.6-1.1,2.8-2.5,2.8h-12.7c-0.1,0-0.2,0-0.2,0.1l-7.4,3.5
					c-0.7,0.3-1.5-0.3-1.5-1.1v-1.7c0-0.4-0.3-0.7-0.6-0.7h-1.3c-1.4,0-2.5-1.3-2.5-2.8V56C437.6,54.5,438.7,53.2,440.1,53.2z"/>
			</g>
			<g>
				<path class="st11" d="M436.9,56.7h23.8c1.4,0,2.5,1.3,2.5,2.8v13.7c0,1.6-1.1,2.8-2.5,2.8H448c-0.1,0-0.2,0-0.2,0.1l-7.4,3.5
					c-0.7,0.3-1.5-0.3-1.5-1.1v-1.7c0-0.4-0.3-0.7-0.6-0.7h-1.3c-1.4,0-2.5-1.3-2.5-2.8V59.5C434.5,57.9,435.6,56.7,436.9,56.7z"/>
			</g>
		</g>
		<circle class="st12" cx="453.1" cy="171.7" r="11.7"/>
		<circle class="st10" cx="453.1" cy="171.7" r="10.9"/>
		<g>
			<g>
				<path class="st11" d="M457.1,167.6c0.2,0.2,0.4,0.2,0.6,0.1l1.5-1.1c0.2-0.2,0.2-0.4,0.1-0.6l0,0c-0.2-0.2-0.4-0.2-0.6-0.1
					l-1.5,1.1C457,167.1,456.9,167.4,457.1,167.6L457.1,167.6z"/>
				<path class="st11" d="M457.6,164.1c-0.2-0.2-0.5-0.1-0.7,0.1l-1,1.6c-0.1,0.2-0.1,0.5,0.1,0.6c0.2,0.2,0.5,0.1,0.7-0.1l1-1.6
					C457.9,164.5,457.8,164.3,457.6,164.1z"/>
				<path class="st11" d="M458.3,169.2l1.9-0.5c0.3-0.1,0.4-0.3,0.3-0.6c-0.1-0.2-0.3-0.4-0.6-0.3l-1.9,0.5
					c-0.3,0.1-0.4,0.3-0.3,0.6C457.9,169.1,458.1,169.2,458.3,169.2z"/>
				<path class="st8" d="M451.9,164.8c-0.3,0.2-0.3,0.5-0.2,0.7c-0.4,2.3-2,4.2-3,5.3c-0.2-0.2-0.6-0.2-0.8,0l-1.5,1.1
					c-0.9,0.6-1,1.9-0.4,2.7l-0.1-0.2l-0.3,0.2c-0.2,0.1-0.2,0.4-0.1,0.6l0.9,1.2c0.1,0.2,0.4,0.2,0.6,0.1l0.3-0.2l-0.2-0.2
					c0.5,0.7,1.5,1,2.3,0.6l3.1,2.5c0.1,0.1,0.2,0.1,0.3,0l0.1-0.1l1.2-0.9l0.5-0.4c0.1-0.1,0.1-0.3,0-0.3l-0.6-0.5
					c-0.1-0.1-0.3-0.1-0.4,0c-0.3,0.2-0.7,0.2-0.9,0l-1.7-1.4l0.4-0.3c0.3-0.2,0.3-0.5,0.2-0.8c1.3-0.7,3.6-1.6,5.9-1.4
					c0.2,0.2,0.5,0.3,0.8,0c0.2-0.2,0.2-0.5,0-0.7l-1.8-2.5c0.4-0.6,0.4-1.4-0.1-2c-0.5-0.6-1.2-0.8-1.9-0.6l-1.8-2.5
					C452.4,164.8,452.1,164.7,451.9,164.8z M449,175.6c-0.3,0.2-0.7,0.2-0.9-0.1L447,174c-0.2-0.3-0.2-0.7,0.1-0.9l1.1-0.8l1.9,2.5
					L449,175.6z"/>
			</g>
		</g>
	</g>
</g>
<g id="Camada_3">
	<g>
		<path class="st13" d="M76.6,154.4c0,0-6.1,9.9-21.3,19c14.1,23.5,42.2,9.3,44.4-0.1C99.7,173.4,85.8,166.5,76.6,154.4z"/>
		<g>
			<path class="st14" d="M102.3,135.7v24.4c0,4.8-1,9.1-3.5,13.3c0,0,0,0.1-0.1,0.1c-9-0.9-15.9-6.8-21.7-15
				c-5.9,8.2-12.7,14-21.7,15c0,0,0-0.1-0.1-0.1c-2.5-4.2-3.5-8.5-3.5-13.3v-24.4H102.3z"/>
			<path class="st15" d="M102.3,122v38c0,4.8-1,9.1-3.5,13.3c-10.2,16.8-33.4,16.8-43.6,0c-2.5-4.2-3.5-8.5-3.5-13.3v-38H102.3z"/>
			
				<linearGradient id="SVGID_00000025421656245317932150000006177749991919106236_" gradientUnits="userSpaceOnUse" x1="50.9608" y1="120.0491" x2="104.3202" y2="173.4085">
				<stop  offset="0" style="stop-color:#FFED00"/>
				<stop  offset="0.21" style="stop-color:#FFCC00"/>
				<stop  offset="0.47" style="stop-color:#FFED00"/>
				<stop  offset="0.75" style="stop-color:#FFCC00"/>
				<stop  offset="1" style="stop-color:#FFED00"/>
			</linearGradient>
			
				<path style="fill-rule:evenodd;clip-rule:evenodd;fill:url(#SVGID_00000025421656245317932150000006177749991919106236_);stroke:#000000;stroke-width:0.5;stroke-linecap:round;stroke-linejoin:round;stroke-miterlimit:22.9256;" d="
				M103.7,120.7v39.4l0,0.5l0,0.5l0,0.5l0,0.5l0,0.5l0,0.5l0,0.5l0,0.5l-0.1,0.4l-0.1,0.4l-0.1,0.4l-0.1,0.4l-0.1,0.4l-0.1,0.4
				l-0.1,0.4l-0.1,0.4l-0.1,0.4l-0.1,0.4l-0.1,0.4l-0.1,0.4l-0.1,0.4l-0.2,0.4l-0.2,0.4l-0.2,0.4l-0.2,0.4l-0.2,0.4l-0.2,0.4
				l-0.2,0.4l-0.2,0.4l-0.2,0.4l-0.2,0.4l-0.3,0.4l-1,1.6l-1.1,1.5l-1.2,1.4l-1.3,1.3l-1.3,1.2l-1.4,1.1l-1.4,1l-1.5,0.9l-1.5,0.8
				l-1.5,0.7l-1.6,0.6l-1.6,0.5l-1.6,0.4l-1.6,0.3l-1.6,0.2l-1.7,0.1l-1.7-0.1l-1.6-0.2l-1.6-0.3l-1.6-0.4l-1.6-0.5l-1.6-0.6
				l-1.5-0.7l-1.5-0.8l-1.5-0.9l-1.4-1l-1.4-1.1l-1.3-1.2l-1.3-1.3l-1.2-1.4l-1.1-1.5l-1-1.6l-0.3-0.4l-0.2-0.4l-0.2-0.4l-0.2-0.4
				l-0.2-0.4l-0.2-0.4l-0.2-0.4l-0.2-0.4l-0.2-0.4l-0.2-0.4l-0.2-0.4l-0.1-0.4l-0.1-0.4l-0.1-0.4l-0.1-0.4l-0.1-0.4l-0.1-0.4
				l-0.1-0.4l-0.1-0.4l-0.1-0.4l-0.1-0.4l-0.1-0.4l-0.1-0.4l-0.1-0.4l0-0.5l0-0.5l0-0.5l0-0.5l0-0.5l0-0.5l0-0.5l0-0.5v-39.4H103.7
				L103.7,120.7z M102.3,122H51.7v38c0,4.8,1,9.1,3.5,13.3c10.2,16.8,33.4,16.8,43.6,0c2.5-4.2,3.5-8.5,3.5-13.3V122z"/>
			<rect x="51.7" y="122" class="st17" width="50.6" height="7"/>
			<rect x="51.7" y="129" class="st18" width="50.6" height="6.7"/>
			<g>
				
					<linearGradient id="SVGID_00000139270499306520654150000011085492273443925137_" gradientUnits="userSpaceOnUse" x1="71.353" y1="167.9528" x2="82.6978" y2="179.2976">
					<stop  offset="0" style="stop-color:#FFED00"/>
					<stop  offset="0.21" style="stop-color:#FFCC00"/>
					<stop  offset="0.47" style="stop-color:#FFED00"/>
					<stop  offset="0.75" style="stop-color:#FFCC00"/>
					<stop  offset="1" style="stop-color:#FFED00"/>
				</linearGradient>
				
					<path style="fill-rule:evenodd;clip-rule:evenodd;fill:url(#SVGID_00000139270499306520654150000011085492273443925137_);stroke:#000000;stroke-width:0.25;stroke-linecap:round;stroke-linejoin:round;stroke-miterlimit:22.9256;" d="
					M77,165.6c4.4,0,8,3.6,8,8s-3.6,8-8,8s-8-3.6-8-8S72.6,165.6,77,165.6L77,165.6z M77,166.5c-3.9,0-7.1,3.2-7.1,7.1
					c0,3.9,3.2,7.1,7.1,7.1s7.1-3.2,7.1-7.1C84.2,169.7,81,166.5,77,166.5z"/>
				
					<linearGradient id="SVGID_00000025411389936600252420000017921864563467846809_" gradientUnits="userSpaceOnUse" x1="72.6089" y1="169.2914" x2="81.4418" y2="178.1244">
					<stop  offset="0" style="stop-color:#FFED00"/>
					<stop  offset="0.21" style="stop-color:#FFCC00"/>
					<stop  offset="0.47" style="stop-color:#FFED00"/>
					<stop  offset="0.75" style="stop-color:#FFCC00"/>
					<stop  offset="1" style="stop-color:#FFED00"/>
				</linearGradient>
				
					<path style="fill-rule:evenodd;clip-rule:evenodd;fill:url(#SVGID_00000025411389936600252420000017921864563467846809_);stroke:#000000;stroke-width:0.25;stroke-linecap:round;stroke-linejoin:round;stroke-miterlimit:22.9256;" d="
					M76.1,165.8c0.2,0,0.3,0,0.5,0c0.2,0,0.3,0,0.5,0c-2.5,2.6-4.2,5.2-4.2,7.9c0,2.7,1.7,5.2,4.2,7.9c-0.2,0-0.3,0-0.5,0
					c-0.2,0-0.3,0-0.5,0c-2.5-2.6-4.2-5.2-4.2-7.9S73.6,168.5,76.1,165.8L76.1,165.8z M78,165.8c-0.2,0-0.3,0-0.5,0
					c-0.2,0-0.3,0-0.5,0c2.5,2.6,4.2,5.2,4.2,7.9c0,2.7-1.7,5.2-4.2,7.9c0.2,0,0.3,0,0.5,0c0.2,0,0.3,0,0.5,0
					c2.5-2.6,4.2-5.2,4.2-7.9S80.5,168.5,78,165.8z"/>
				
					<linearGradient id="SVGID_00000179632863753040894460000014476411279826862471_" gradientUnits="userSpaceOnUse" x1="76.1059" y1="183.1146" x2="77.9509" y2="184.9595">
					<stop  offset="0" style="stop-color:#FFED00"/>
					<stop  offset="0.21" style="stop-color:#FFCC00"/>
					<stop  offset="0.47" style="stop-color:#FFED00"/>
					<stop  offset="0.75" style="stop-color:#FFCC00"/>
					<stop  offset="1" style="stop-color:#FFED00"/>
				</linearGradient>
				
					<path style="fill-rule:evenodd;clip-rule:evenodd;fill:url(#SVGID_00000179632863753040894460000014476411279826862471_);stroke:#000000;stroke-width:0.25;stroke-linecap:round;stroke-linejoin:round;stroke-miterlimit:22.9256;" d="
					M77.5,182.7v0.7l0.7,1.3h-2.4l0.7-1.3v-0.7c0.1,0,0.3,0.1,0.5,0.1C77.2,182.8,77.4,182.7,77.5,182.7z"/>
				
					<linearGradient id="SVGID_00000176041319196558189280000005262302414710561433_" gradientUnits="userSpaceOnUse" x1="75.7993" y1="184.1393" x2="78.2514" y2="186.5913">
					<stop  offset="0" style="stop-color:#FFED00"/>
					<stop  offset="0.21" style="stop-color:#FFCC00"/>
					<stop  offset="0.47" style="stop-color:#FFED00"/>
					<stop  offset="0.75" style="stop-color:#FFCC00"/>
					<stop  offset="1" style="stop-color:#FFED00"/>
				</linearGradient>
				
					<path style="fill-rule:evenodd;clip-rule:evenodd;fill:url(#SVGID_00000176041319196558189280000005262302414710561433_);stroke:#000000;stroke-width:0.25;stroke-linecap:round;stroke-linejoin:round;stroke-miterlimit:22.9256;" d="
					M75.4,184.7h3.3c0.2,0,0.3,0.1,0.3,0.3v0.8c0,0.2-0.1,0.3-0.3,0.3h-3.3c-0.2,0-0.3-0.1-0.3-0.3V185
					C75.1,184.8,75.2,184.7,75.4,184.7z"/>
				
					<linearGradient id="SVGID_00000075847192031093224660000012057373917612037309_" gradientUnits="userSpaceOnUse" x1="72.0209" y1="168.3192" x2="82.0298" y2="178.3281">
					<stop  offset="0" style="stop-color:#FFED00"/>
					<stop  offset="0.21" style="stop-color:#FFCC00"/>
					<stop  offset="0.47" style="stop-color:#FFED00"/>
					<stop  offset="0.75" style="stop-color:#FFCC00"/>
					<stop  offset="1" style="stop-color:#FFED00"/>
				</linearGradient>
				
					<path style="fill-rule:evenodd;clip-rule:evenodd;fill:url(#SVGID_00000075847192031093224660000012057373917612037309_);stroke:#000000;stroke-width:0.25;stroke-linecap:round;stroke-linejoin:round;stroke-miterlimit:22.9256;" d="
					M77.5,165.1v7.8c0.6,0.2,1,0.6,1,1.1c0,0.5-0.4,0.9-1,1.1v6.9c0.3,0.1,0.4,0.2,0.4,0.4c0,0.3-0.4,0.5-0.9,0.5s-0.9-0.2-0.9-0.5
					c0-0.2,0.2-0.3,0.4-0.4V175c-0.6-0.2-1-0.6-1-1.1c0-0.5,0.4-0.9,1-1.1v-7.8c-0.3-0.1-0.6-0.3-0.6-0.5c0-0.3,0.5-0.6,1.1-0.6
					s1.1,0.3,1.1,0.6C78.1,164.8,77.9,165,77.5,165.1z"/>
				
					<linearGradient id="SVGID_00000012444132724545642080000009549004445745379759_" gradientUnits="userSpaceOnUse" x1="75.751" y1="161.7307" x2="78.343" y2="164.3228">
					<stop  offset="0" style="stop-color:#FFED00"/>
					<stop  offset="0.21" style="stop-color:#FFCC00"/>
					<stop  offset="0.47" style="stop-color:#FFED00"/>
					<stop  offset="0.75" style="stop-color:#FFCC00"/>
					<stop  offset="1" style="stop-color:#FFED00"/>
				</linearGradient>
				
					<path style="fill-rule:evenodd;clip-rule:evenodd;fill:url(#SVGID_00000012444132724545642080000009549004445745379759_);stroke:#000000;stroke-width:0.25;stroke-linecap:round;stroke-linejoin:round;stroke-miterlimit:22.9256;" d="
					M77,161.9l-0.2-0.6l-0.6,0l0.3,0.8v0.6h-0.1h-0.4l-0.2-0.2l-0.5-0.5v1v1l0.5-0.5l0.2-0.2h0.4h0.1v0.4c-0.1,0-0.2,0.2-0.2,0.3
					c0,0.2,0.1,0.3,0.3,0.3c0,0,0,0,0,0.1c0,0.4,0.7,0.4,0.7,0c0,0,0,0,0-0.1c0.2,0,0.3-0.2,0.3-0.3c0-0.2-0.1-0.3-0.2-0.3v-0.4h0.5
					l0.2,0.2l0.5,0.5v-1v-1l-0.5,0.5l-0.2,0.2h-0.5v-0.6l0.3-0.8l-0.6,0L77,161.9z"/>
				
					<linearGradient id="SVGID_00000183248261994556444350000011956898518914388879_" gradientUnits="userSpaceOnUse" x1="71.3531" y1="167.9532" x2="82.6974" y2="179.2975">
					<stop  offset="0" style="stop-color:#FFED00"/>
					<stop  offset="0.21" style="stop-color:#FFCC00"/>
					<stop  offset="0.47" style="stop-color:#FFED00"/>
					<stop  offset="0.75" style="stop-color:#FFCC00"/>
					<stop  offset="1" style="stop-color:#FFED00"/>
				</linearGradient>
				
					<path style="fill-rule:evenodd;clip-rule:evenodd;fill:url(#SVGID_00000183248261994556444350000011956898518914388879_);stroke:#000000;stroke-width:0.25;stroke-linecap:round;stroke-linejoin:round;stroke-miterlimit:22.9256;" d="
					M72.4,167.1c1.6-0.2,3.1-0.3,4.7-0.3c1.6,0,3.1,0.1,4.7,0.3c0.4,0.3,0.7,0.6,1,0.9c-1.9-0.2-3.8-0.4-5.7-0.4
					c-1.9,0-3.8,0.2-5.7,0.4C71.6,167.7,72,167.4,72.4,167.1L72.4,167.1z M69.7,170.3c2.4-0.4,4.9-0.6,7.3-0.6
					c2.4,0,4.9,0.2,7.3,0.6c0.1,0.3,0.2,0.5,0.3,0.8c-2.5-0.4-5.1-0.7-7.6-0.7c-2.5,0-5.1,0.3-7.6,0.7
					C69.5,170.8,69.6,170.5,69.7,170.3L69.7,170.3z M69,173.5c2.7-0.4,5.3-0.7,8-0.7c2.7,0,5.3,0.3,8,0.7c0,0,0,0.1,0,0.1
					c0,0.2,0,0.4,0,0.6c-2.7-0.4-5.3-0.7-8-0.7c-2.7,0-5.3,0.3-8,0.7c0-0.2,0-0.4,0-0.6C69,173.6,69,173.5,69,173.5L69,173.5z
					 M69.5,176.4c2.5-0.4,5-0.7,7.5-0.7c2.5,0,5,0.3,7.5,0.7c-0.1,0.2-0.2,0.5-0.3,0.7c-2.4-0.4-4.8-0.6-7.2-0.6
					c-2.4,0-4.8,0.2-7.2,0.6C69.7,176.8,69.6,176.6,69.5,176.4L69.5,176.4z M70.9,178.8c2.1-0.3,4.1-0.5,6.2-0.5
					c2.1,0,4.1,0.2,6.2,0.5c-0.2,0.2-0.4,0.5-0.6,0.7c-1.8-0.2-3.7-0.4-5.5-0.4c-1.8,0-3.7,0.1-5.5,0.4
					C71.3,179.2,71.1,179,70.9,178.8z"/>
				
					<linearGradient id="SVGID_00000094587302576986815230000016225162042011502510_" gradientUnits="userSpaceOnUse" x1="71.8162" y1="167.4903" x2="83.1605" y2="178.8346">
					<stop  offset="0" style="stop-color:#FFED00"/>
					<stop  offset="0.21" style="stop-color:#FFCC00"/>
					<stop  offset="0.47" style="stop-color:#FFED00"/>
					<stop  offset="0.75" style="stop-color:#FFCC00"/>
					<stop  offset="1" style="stop-color:#FFED00"/>
				</linearGradient>
				
					<path style="fill-rule:evenodd;clip-rule:evenodd;fill:url(#SVGID_00000094587302576986815230000016225162042011502510_);stroke:#000000;stroke-width:0.25;stroke-linecap:round;stroke-linejoin:round;stroke-miterlimit:22.9256;" d="
					M71.3,168c4.7,3,7.9,7.2,10.2,12.3c0.7-0.5,1.4-1.1,1.9-1.8c-2.2-4.5-5.5-8.6-10.2-11.9C72.5,166.9,71.9,167.4,71.3,168z"/>
			</g>
			<g>
				
					<linearGradient id="SVGID_00000036211477029711479060000006536383234081133700_" gradientUnits="userSpaceOnUse" x1="69.0744" y1="140.0188" x2="84.9763" y2="155.9206">
					<stop  offset="0" style="stop-color:#FFED00"/>
					<stop  offset="0.21" style="stop-color:#FFCC00"/>
					<stop  offset="0.47" style="stop-color:#FFED00"/>
					<stop  offset="0.75" style="stop-color:#FFCC00"/>
					<stop  offset="1" style="stop-color:#FFED00"/>
				</linearGradient>
				
					<path style="fill-rule:evenodd;clip-rule:evenodd;fill:url(#SVGID_00000036211477029711479060000006536383234081133700_);stroke:#000000;stroke-width:0.5;stroke-linecap:round;stroke-linejoin:round;stroke-miterlimit:22.9256;" d="
					M66.9,149l-1.1,0v-2.1l1.1,0c0.1-0.6,0.2-1.3,0.4-1.9l-1-0.4l0.8-1.9l1,0.4c0.3-0.6,0.7-1.1,1.1-1.6l-0.7-0.7l1.5-1.5l0.7,0.7
					c0.5-0.4,1-0.8,1.6-1.1l-0.4-0.9l1.9-0.8l0.4,0.9c0.6-0.2,1.3-0.3,1.9-0.4v-1l2.1,0v1c0.7,0.1,1.3,0.2,1.9,0.4l0.4-0.9l1.9,0.8
					l-0.4,0.9c0.6,0.3,1.1,0.7,1.6,1.1l0.7-0.7l1.5,1.5l-0.7,0.7c0.4,0.5,0.8,1,1.1,1.6l1-0.4l0.8,1.9l-1,0.4
					c0.2,0.6,0.3,1.3,0.4,1.9l1.1,0v2.1l-1.1,0c-0.1,0.6-0.2,1.3-0.4,1.9l1,0.4l-0.8,1.9l-1-0.4c-0.3,0.6-0.7,1.1-1.1,1.6l0.8,0.8
					l-1.5,1.5l-0.8-0.8c-0.5,0.4-1,0.8-1.6,1.1l0.4,1l-1.9,0.8l-0.4-1c-0.6,0.2-1.2,0.3-1.9,0.4v1.1l-2.1,0l0-1.1
					c-0.6-0.1-1.3-0.2-1.9-0.4l-0.4,1l-1.9-0.8l0.4-1c-0.6-0.3-1.1-0.7-1.6-1.1l-0.8,0.8l-1.5-1.5l0.8-0.8c-0.4-0.5-0.8-1-1.1-1.6
					l-1,0.4l-0.8-1.9l1-0.4C67.1,150.3,66.9,149.7,66.9,149L66.9,149z M77,139.1c-4.9,0-8.8,3.9-8.8,8.8c0,4.9,3.9,8.8,8.8,8.8
					s8.8-3.9,8.8-8.8C85.8,143.1,81.9,139.1,77,139.1z"/>
				<g>
					
						<linearGradient id="SVGID_00000020358078275469724840000008378445281097895312_" gradientUnits="userSpaceOnUse" x1="74.5047" y1="141.3078" x2="79.2386" y2="146.0416">
						<stop  offset="0" style="stop-color:#FFED00"/>
						<stop  offset="0.21" style="stop-color:#FFCC00"/>
						<stop  offset="0.47" style="stop-color:#FFED00"/>
						<stop  offset="0.75" style="stop-color:#FFCC00"/>
						<stop  offset="1" style="stop-color:#FFED00"/>
					</linearGradient>
					
						<polygon style="fill-rule:evenodd;clip-rule:evenodd;fill:url(#SVGID_00000020358078275469724840000008378445281097895312_);stroke:#000000;stroke-width:0.5;stroke-linecap:round;stroke-linejoin:round;stroke-miterlimit:22.9256;" points="
						76.9,145.4 74.8,146.4 74.9,144 73.4,142.4 75.5,141.7 76.9,139.8 78.2,141.7 80.3,142.4 78.9,144 78.9,146.4 					"/>
					<path class="st29" d="M76.9,139.9v2.4 M77.6,144.5l1.3,1.8 M76.2,144.5l-1.3,1.8 M74.9,143.9l1-0.2 M78.9,143.9l-1-0.2
						 M76.9,144.5v0.9 M75.9,143l-2.3-0.5 M77.9,143l2.3-0.5 M75.6,141.7l0.8,1.2 M78.2,141.7l-0.8,1.2"/>
				</g>
				<g>
					<g>
						<g>
							
								<linearGradient id="SVGID_00000154387094786056791540000010676853023735601056_" gradientUnits="userSpaceOnUse" x1="69.3599" y1="148.0111" x2="73.9819" y2="152.6331">
								<stop  offset="0" style="stop-color:#FFED00"/>
								<stop  offset="0.21" style="stop-color:#FFCC00"/>
								<stop  offset="0.47" style="stop-color:#FFED00"/>
								<stop  offset="0.75" style="stop-color:#FFCC00"/>
								<stop  offset="1" style="stop-color:#FFED00"/>
							</linearGradient>
							
								<path style="fill-rule:evenodd;clip-rule:evenodd;fill:url(#SVGID_00000154387094786056791540000010676853023735601056_);stroke:#000000;stroke-width:0.25;stroke-linecap:round;stroke-linejoin:round;stroke-miterlimit:22.9256;" d="
								M70.3,153.6H73V147h-2.7V153.6L70.3,153.6z M70.9,148h0.5v1.2h-0.5V148L70.9,148z M72,148h0.5v1.2H72V148L72,148z
								 M70.9,149.9h0.5v1.2h-0.5V149.9L70.9,149.9z M72,149.9h0.5v1.2H72V149.9L72,149.9z M70.9,151.8h0.5v1.2h-0.5V151.8
								L70.9,151.8z M72,151.8h0.5v1.2H72V151.8z"/>
							
								<linearGradient id="SVGID_00000020384932937220990000000009669774976484788647_" gradientUnits="userSpaceOnUse" x1="70.9085" y1="146.598" x2="72.551" y2="147.0356">
								<stop  offset="0" style="stop-color:#FFED00"/>
								<stop  offset="0.21" style="stop-color:#FFCC00"/>
								<stop  offset="0.47" style="stop-color:#FFED00"/>
								<stop  offset="0.75" style="stop-color:#FFCC00"/>
								<stop  offset="1" style="stop-color:#FFED00"/>
							</linearGradient>
							
								<polygon style="fill-rule:evenodd;clip-rule:evenodd;fill:url(#SVGID_00000020384932937220990000000009669774976484788647_);stroke:#000000;stroke-width:0.25;stroke-linecap:round;stroke-linejoin:round;stroke-miterlimit:22.9256;" points="
								71.7,146.1 72.6,146.6 73.4,147 71.7,147 69.9,147 70.8,146.6 							"/>
						</g>
						<g>
							
								<linearGradient id="SVGID_00000086688111603146796410000007968479337015967670_" gradientUnits="userSpaceOnUse" x1="80.077" y1="148.0111" x2="84.699" y2="152.6331">
								<stop  offset="0" style="stop-color:#FFED00"/>
								<stop  offset="0.21" style="stop-color:#FFCC00"/>
								<stop  offset="0.47" style="stop-color:#FFED00"/>
								<stop  offset="0.75" style="stop-color:#FFCC00"/>
								<stop  offset="1" style="stop-color:#FFED00"/>
							</linearGradient>
							
								<path style="fill-rule:evenodd;clip-rule:evenodd;fill:url(#SVGID_00000086688111603146796410000007968479337015967670_);stroke:#000000;stroke-width:0.25;stroke-linecap:round;stroke-linejoin:round;stroke-miterlimit:22.9256;" d="
								M81.1,153.6h2.7V147h-2.7V153.6L81.1,153.6z M81.6,148h0.5v1.2h-0.5V148L81.6,148z M82.7,148h0.5v1.2h-0.5V148L82.7,148z
								 M81.6,149.9h0.5v1.2h-0.5V149.9L81.6,149.9z M82.7,149.9h0.5v1.2h-0.5V149.9L82.7,149.9z M81.6,151.8h0.5v1.2h-0.5V151.8
								L81.6,151.8z M82.7,151.8h0.5v1.2h-0.5V151.8z"/>
							
								<linearGradient id="SVGID_00000060011244429461887950000003350345592245241521_" gradientUnits="userSpaceOnUse" x1="81.6257" y1="146.598" x2="83.2681" y2="147.0356">
								<stop  offset="0" style="stop-color:#FFED00"/>
								<stop  offset="0.21" style="stop-color:#FFCC00"/>
								<stop  offset="0.47" style="stop-color:#FFED00"/>
								<stop  offset="0.75" style="stop-color:#FFCC00"/>
								<stop  offset="1" style="stop-color:#FFED00"/>
							</linearGradient>
							
								<polygon style="fill-rule:evenodd;clip-rule:evenodd;fill:url(#SVGID_00000060011244429461887950000003350345592245241521_);stroke:#000000;stroke-width:0.25;stroke-linecap:round;stroke-linejoin:round;stroke-miterlimit:22.9256;" points="
								82.4,146.1 83.3,146.6 84.2,147 82.4,147 80.6,147 81.5,146.6 							"/>
						</g>
					</g>
					
						<linearGradient id="SVGID_00000094582608180460881000000006572094061572315279_" gradientUnits="userSpaceOnUse" x1="73.4746" y1="146.9627" x2="80.5843" y2="154.0724">
						<stop  offset="0" style="stop-color:#FFED00"/>
						<stop  offset="0.21" style="stop-color:#FFCC00"/>
						<stop  offset="0.47" style="stop-color:#FFED00"/>
						<stop  offset="0.75" style="stop-color:#FFCC00"/>
						<stop  offset="1" style="stop-color:#FFED00"/>
					</linearGradient>
					
						<polygon style="fill-rule:evenodd;clip-rule:evenodd;fill:url(#SVGID_00000094582608180460881000000006572094061572315279_);stroke:#000000;stroke-width:0.25;stroke-linecap:round;stroke-linejoin:round;stroke-miterlimit:22.9256;" points="
						81.1,153.6 78.3,153.6 78.3,148.9 77.1,147.5 75.7,148.9 75.7,153.6 73,153.6 73,147.4 81.1,147.4 					"/>
					
						<linearGradient id="SVGID_00000012437152738470538440000013203440962238831246_" gradientUnits="userSpaceOnUse" x1="74.6338" y1="145.8035" x2="79.4251" y2="150.5947">
						<stop  offset="0" style="stop-color:#FFED00"/>
						<stop  offset="0.21" style="stop-color:#FFCC00"/>
						<stop  offset="0.47" style="stop-color:#FFED00"/>
						<stop  offset="0.75" style="stop-color:#FFCC00"/>
						<stop  offset="1" style="stop-color:#FFED00"/>
					</linearGradient>
					
						<polygon style="fill-rule:evenodd;clip-rule:evenodd;fill:url(#SVGID_00000012437152738470538440000013203440962238831246_);stroke:#000000;stroke-width:0.25;stroke-linecap:round;stroke-linejoin:round;stroke-miterlimit:22.9256;" points="
						81.1,149 78.3,149 78.3,148.9 77.1,147.5 75.7,148.9 75.7,149 73,149 73,147.4 81.1,147.4 					"/>
					
						<linearGradient id="SVGID_00000140717974324445794720000005633305400840345522_" gradientUnits="userSpaceOnUse" x1="74.5627" y1="148.9247" x2="79.4962" y2="153.8583">
						<stop  offset="0" style="stop-color:#FFED00"/>
						<stop  offset="0.21" style="stop-color:#FFCC00"/>
						<stop  offset="0.47" style="stop-color:#FFED00"/>
						<stop  offset="0.75" style="stop-color:#FFCC00"/>
						<stop  offset="1" style="stop-color:#FFED00"/>
					</linearGradient>
					
						<path style="fill-rule:evenodd;clip-rule:evenodd;fill:url(#SVGID_00000140717974324445794720000005633305400840345522_);stroke:#000000;stroke-width:0.25;stroke-linecap:round;stroke-linejoin:round;stroke-miterlimit:22.9256;" d="
						M73.3,150.2h0.4v0.9h-0.4V150.2L73.3,150.2z M74.2,150.2h0.4v0.9h-0.4V150.2L74.2,150.2z M75,150.2h0.4v0.9H75V150.2L75,150.2z
						 M73.3,151.7h0.4v0.9h-0.4V151.7L73.3,151.7z M74.2,151.7h0.4v0.9h-0.4V151.7L74.2,151.7z M75,151.7h0.4v0.9H75V151.7L75,151.7
						z M78.6,150.2H79v0.9h-0.4V150.2L78.6,150.2z M79.5,150.2h0.4v0.9h-0.4V150.2L79.5,150.2z M80.3,150.2h0.4v0.9h-0.4V150.2
						L80.3,150.2z M78.6,151.7H79v0.9h-0.4V151.7L78.6,151.7z M79.5,151.7h0.4v0.9h-0.4V151.7L79.5,151.7z M80.3,151.7h0.4v0.9h-0.4
						V151.7z"/>
					
						<linearGradient id="SVGID_00000017480892096502770630000007529985855525704350_" gradientUnits="userSpaceOnUse" x1="75.0667" y1="147.2468" x2="78.9922" y2="151.1722">
						<stop  offset="0" style="stop-color:#FFED00"/>
						<stop  offset="0.21" style="stop-color:#FFCC00"/>
						<stop  offset="0.47" style="stop-color:#FFED00"/>
						<stop  offset="0.75" style="stop-color:#FFCC00"/>
						<stop  offset="1" style="stop-color:#FFED00"/>
					</linearGradient>
					
						<path style="fill-rule:evenodd;clip-rule:evenodd;fill:url(#SVGID_00000017480892096502770630000007529985855525704350_);stroke:#000000;stroke-width:0.25;stroke-linecap:round;stroke-linejoin:round;stroke-miterlimit:22.9256;" d="
						M73.7,149v0.5h-0.4V149H73.7L73.7,149z M74.5,149v0.5h-0.4V149H74.5L74.5,149z M75.3,149v0.5h-0.4V149H75.3L75.3,149z
						 M79.1,149v0.5h-0.4V149H79.1L79.1,149z M79.9,149v0.5h-0.4V149H79.9L79.9,149z M80.7,149v0.5h-0.4V149H80.7z"/>
					
						<linearGradient id="SVGID_00000057127278421390330210000011958690079212034448_" gradientUnits="userSpaceOnUse" x1="75.2127" y1="149.3866" x2="78.8833" y2="153.0572">
						<stop  offset="0" style="stop-color:#FFED00"/>
						<stop  offset="0.21" style="stop-color:#FFCC00"/>
						<stop  offset="0.47" style="stop-color:#FFED00"/>
						<stop  offset="0.75" style="stop-color:#FFCC00"/>
						<stop  offset="1" style="stop-color:#FFED00"/>
					</linearGradient>
					
						<path style="fill-rule:evenodd;clip-rule:evenodd;fill:url(#SVGID_00000057127278421390330210000011958690079212034448_);stroke:#000000;stroke-width:0.25;stroke-linecap:round;stroke-linejoin:round;stroke-miterlimit:22.9256;" d="
						M78.3,153.6h-2.6v-4.7l1.3-1.3l1.3,1.3V153.6L78.3,153.6z M76.7,151.6v2h0.7v-2H76.7L76.7,151.6z M76.8,148.6v0.9h0.4v-0.9
						H76.8L76.8,148.6z M76.2,150v0.9h0.4V150H76.2L76.2,150z M77.5,150v0.9h0.4V150H77.5z"/>
				</g>
			</g>
			<g>
				<polygon class="st8" points="61.9,126 61.9,124.4 56.4,124.4 56.4,126 57.9,126 57.9,131.8 56.4,131.8 56.4,133.3 61.9,133.3 
					61.9,131.8 60.4,131.8 60.4,126 				"/>
				<polygon class="st39" points="61.9,126 61.9,124.4 56.4,124.4 56.4,126 57.9,126 57.9,131.8 56.4,131.8 56.4,133.3 61.9,133.3 
					61.9,131.8 60.4,131.8 60.4,126 				"/>
				<polygon class="st8" points="87.8,124.4 87.8,126 89.5,126 89.5,131.8 87.8,131.8 87.8,133.3 98.5,133.3 98.5,132 98.5,131.8 
					98.5,130.4 96.5,130.4 95.9,131.8 92,131.8 92,129.3 94.6,129.3 94.6,127.8 92,127.8 92,126 95.9,126 96.5,127.3 98.5,127.3 
					98.5,126 98.5,125.8 98.5,124.4 				"/>
				<polygon class="st39" points="87.8,124.4 87.8,126 89.5,126 89.5,131.8 87.8,131.8 87.8,133.3 98.5,133.3 98.5,132 98.5,131.8 
					98.5,130.4 96.5,130.4 95.9,131.8 92,131.8 92,129.3 94.6,129.3 94.6,127.8 92,127.8 92,126 95.9,126 96.5,127.3 98.5,127.3 
					98.5,126 98.5,125.8 98.5,124.4 				"/>
				<polygon class="st8" points="83.2,126 83.2,124.4 79.8,124.4 77.7,124.4 77.5,124.4 75.6,128.2 73.8,124.4 73.8,124.4 
					71.6,124.4 68.3,124.4 68.3,126 69.8,126 69.8,131.8 68.3,131.8 68.3,133.3 73.8,133.3 73.8,131.8 72.3,131.8 72.3,126.2 
					74.7,132 75.6,132 75.6,132 76.6,132 79.1,126 79.2,126 79.2,131.8 77.7,131.8 77.7,133.3 83.2,133.3 83.2,131.8 81.7,131.8 
					81.7,126 				"/>
				<polygon class="st39" points="83.2,126 83.2,124.4 79.8,124.4 77.7,124.4 77.5,124.4 75.6,128.2 73.8,124.4 73.8,124.4 
					71.6,124.4 68.3,124.4 68.3,126 69.8,126 69.8,131.8 68.3,131.8 68.3,133.3 73.8,133.3 73.8,131.8 72.3,131.8 72.3,126.2 
					74.7,132 75.6,132 75.6,132 76.6,132 79.1,126 79.2,126 79.2,131.8 77.7,131.8 77.7,133.3 83.2,133.3 83.2,131.8 81.7,131.8 
					81.7,126 				"/>
			</g>
		</g>
	</g>
	<g>
		<g>
			<path class="st40" d="M82.3,49.9c-0.6,0-1.2,0.2-1.7,0.6c-0.4,0.4-0.7,0.9-0.7,1.5c0,1,0.7,1.3,1.4,1.3c0.2,0,0.3,0,0.5-0.1
				c0.1,0,0.3-0.1,0.4-0.1c0.2-0.3,0.3-0.6,0.3-0.7c0,0-0.1-0.1-0.1,0c-0.2,0.4-0.6,0.7-1.1,0.7c-0.6,0-1-0.4-1-1.1
				c0-0.6,0.3-1.2,0.6-1.5c0.4-0.4,0.9-0.6,1.3-0.6c0.5,0,0.6,0.2,0.5,0.7c0,0,0.1,0,0.1,0c0-0.2,0.1-0.5,0.2-0.7
				C83,50,82.7,49.9,82.3,49.9z"/>
			<path class="st40" d="M85.7,51.4c0.2,0,0.2,0.2,0.2,0.3c0,0.3-0.2,0.9-0.5,1.2c0,0,0,0.1-0.1,0.1v0.2c0.1,0,0.2-0.1,0.3-0.3
				c0.4-0.4,0.5-0.8,0.5-1.1c0-0.4-0.2-0.6-0.5-0.6c-0.1,0-0.2,0-0.4,0.1v0.2C85.5,51.4,85.6,51.4,85.7,51.4z M85.4,53
				c-0.1,0.1-0.2,0.2-0.3,0.2c-0.1,0-0.2-0.1-0.2-0.3c0-0.3,0.2-0.8,0.5-1.2c0,0,0,0,0,0v-0.2c-0.1,0.1-0.2,0.1-0.3,0.2
				c-0.3,0.3-0.5,0.8-0.5,1.1c0,0.4,0.2,0.6,0.5,0.6c0.1,0,0.2,0,0.4-0.1V53z"/>
			<path class="st40" d="M89.4,50.6c0.2-0.5,0.2-0.7,0.3-0.8l0,0c-0.2,0-0.5,0.1-0.6,0.1V50l0.1,0c0.1,0,0.1,0.1,0,0.4l-0.8,2.3
				c-0.1,0.2-0.1,0.3-0.1,0.4c0,0.1,0,0.1,0.2,0.1c0.4,0,0.7-0.4,0.9-0.7c0-0.1,0-0.1-0.1-0.1c-0.2,0.3-0.5,0.5-0.6,0.5
				c0,0-0.1,0,0-0.2L89.4,50.6z"/>
			<path class="st40" d="M93,50.4c0.1-0.1,0.1-0.1,0.1-0.1c0-0.1,0-0.1-0.1-0.1c0,0-0.1,0-0.1,0c-0.1,0-0.1,0.1-0.2,0.2L92.3,51
				l0.1,0.1L93,50.4L93,50.4z M92.1,53.1v-0.2c0.1,0,0.1-0.1,0.2-0.2c0,0,0.1,0,0.1,0.1C92.3,53,92.2,53,92.1,53.1L92.1,53.1z
				 M92.1,52.2V52c0.1,0,0.2-0.1,0.2-0.2c0.2-0.1,0.2-0.3,0.2-0.3c0-0.1,0-0.1-0.1-0.1c-0.1,0-0.2,0-0.3,0.2v-0.2
				c0.2-0.1,0.3-0.1,0.4-0.1c0.2,0,0.3,0.2,0.3,0.3C92.8,51.8,92.6,52,92.1,52.2z M92.1,51.3v0.2c0,0,0,0-0.1,0.1
				c-0.2,0.2-0.3,0.4-0.4,0.6c0.2-0.1,0.3-0.1,0.4-0.2v0.2c-0.1,0.1-0.3,0.1-0.5,0.2c0,0.1-0.1,0.2-0.1,0.4c0,0.2,0.1,0.3,0.2,0.3
				c0.1,0,0.2,0,0.3-0.1v0.2c-0.2,0.1-0.4,0.2-0.5,0.2c-0.3,0-0.4-0.3-0.4-0.5c0-0.3,0.2-0.9,0.7-1.3C92,51.4,92.1,51.4,92.1,51.3z"
				/>
			<path class="st40" d="M95.8,51.4c0.1,0,0.1,0.1,0.1,0.2c0,0.2-0.2,0.6-0.4,0.9l0,0v0.2c0.1,0,0.1,0,0.1,0c0.3-0.2,0.6-0.6,0.6-1
				c0-0.1,0-0.2,0-0.2l0,0c0,0,0.1,0,0.2,0c0.1,0,0.1,0,0.2,0c0,0,0.1,0,0.1-0.1c0-0.1,0-0.1-0.1-0.1c0,0-0.1,0-0.2,0
				c-0.1,0-0.2,0-0.2,0c0,0-0.1,0-0.1,0c-0.1,0-0.1,0-0.2,0c-0.1,0-0.3,0-0.4,0.1v0.2C95.6,51.4,95.7,51.4,95.8,51.4L95.8,51.4z
				 M95.5,54.5v-0.1c0.2,0,0.4-0.1,0.4-0.3c0-0.1-0.1-0.2-0.2-0.3c0,0-0.1-0.1-0.1-0.1v-0.4c0.1,0.1,0.2,0.1,0.3,0.2
				c0.3,0.2,0.4,0.3,0.4,0.5C96.1,54.2,95.9,54.4,95.5,54.5z M95.5,52.5c-0.1,0.1-0.2,0.2-0.3,0.2c-0.1,0-0.1-0.1-0.1-0.2
				c0-0.3,0.2-0.7,0.4-0.9l0,0v-0.2c-0.1,0-0.2,0.1-0.4,0.2c-0.2,0.2-0.4,0.5-0.4,0.8c0,0.3,0.3,0.4,0.4,0.4
				c-0.1,0.1-0.2,0.3-0.2,0.4c0,0.1,0,0.1,0.2,0.2c-0.3,0.1-0.8,0.3-0.8,0.7c0,0.3,0.4,0.5,0.8,0.5c0.2,0,0.4,0,0.5-0.1v-0.1
				c-0.1,0-0.2,0-0.3,0c-0.3,0-0.7-0.1-0.7-0.4c0-0.1,0.1-0.2,0.2-0.3c0.1-0.1,0.3-0.2,0.5-0.2c0.1,0,0.2,0.1,0.3,0.1v-0.4
				c-0.1,0-0.1-0.1-0.2-0.1c-0.1-0.1-0.2-0.2-0.2-0.2c0-0.1,0.1-0.1,0.1-0.2c0.1,0,0.2,0,0.2-0.1V52.5z"/>
			<path class="st40" d="M99.4,50.1c-0.2,0-0.3,0.2-0.3,0.3c0,0.1,0.1,0.2,0.2,0.2c0.2,0,0.3-0.2,0.3-0.3
				C99.5,50.1,99.5,50.1,99.4,50.1L99.4,50.1z M98.3,53.1c0,0.1,0,0.1,0,0.1l0.1,0c0.3,0,0.9-0.4,0.9-0.6c0,0,0-0.1-0.1-0.1
				c-0.2,0.2-0.4,0.4-0.5,0.4c0,0,0-0.1,0-0.1l0.6-1.4c0.1-0.1,0.1-0.2,0-0.2l-0.1,0c-0.2,0-0.5,0.2-0.8,0.5c0,0,0,0.1,0.1,0.1
				c0.2-0.2,0.4-0.3,0.4-0.3c0,0,0,0,0,0.1L98.3,53.1z"/>
			<path class="st40" d="M102.5,51.4c0.2,0,0.2,0.2,0.2,0.3c0,0.3-0.2,0.9-0.5,1.2c0,0,0,0.1-0.1,0.1v0.2c0.1-0.1,0.2-0.1,0.3-0.3
				c0.4-0.4,0.5-0.8,0.5-1.1c0-0.4-0.2-0.6-0.5-0.6c-0.1,0-0.2,0-0.4,0.1v0.2C102.3,51.4,102.4,51.4,102.5,51.4z M102.2,53
				c-0.1,0.1-0.2,0.2-0.3,0.2c-0.1,0-0.2-0.1-0.2-0.3c0-0.3,0.2-0.8,0.5-1.2c0,0,0,0,0,0v-0.2c-0.1,0-0.2,0.1-0.3,0.2
				c-0.3,0.3-0.5,0.8-0.5,1.1c0,0.4,0.2,0.7,0.5,0.7c0.1,0,0.2,0,0.4-0.1V53z"/>
			<path class="st40" d="M79.7,81.5c0.1,0,0.2,0.2,0.1,0.4c-0.1,0.3-0.3,0.6-0.7,1.1c0,0-0.1,0.1-0.1,0.1v0.3
				c0.2-0.2,0.4-0.4,0.6-0.7l0,0l-0.2,0.6c-0.1,0.2-0.1,0.3-0.1,0.3c0,0.1,0.1,0.2,0.2,0.2c0.3,0,0.8-0.5,1-0.8c0-0.1,0-0.1-0.1-0.1
				c-0.2,0.2-0.5,0.5-0.6,0.5c0,0-0.1-0.1,0-0.1c0.1-0.2,0.3-1.1,0.9-2.6c0.2-0.5,0.3-0.7,0.4-1l0,0c-0.3,0-0.6,0.1-0.7,0.1l0,0.1
				l0.1,0.1c0.1,0.1,0.1,0.2,0,0.5L80,81.5c-0.1-0.1-0.2-0.2-0.3-0.2c-0.2,0-0.4,0.1-0.6,0.2v0.4c0.1-0.1,0.1-0.2,0.2-0.2
				C79.4,81.6,79.6,81.5,79.7,81.5z M79.1,83.1c-0.4,0.3-0.6,0.4-0.7,0.4c-0.1,0-0.1,0-0.1-0.1c0-0.1,0-0.2,0.2-0.5
				c0.1-0.3,0.4-0.6,0.6-0.9v-0.4c-0.1,0.1-0.3,0.2-0.4,0.3c-0.5,0.4-0.8,1.1-0.8,1.5c0,0.2,0.1,0.4,0.3,0.4c0.3,0,0.6-0.2,0.8-0.4
				V83.1z"/>
			<path class="st40" d="M82.5,81.5c0.1,0,0.1,0.1,0.1,0.1c0,0.1,0,0.2-0.2,0.4c-0.1,0.1-0.2,0.2-0.3,0.2v0.2
				c0.5-0.2,0.8-0.4,0.8-0.8c0-0.1-0.1-0.3-0.4-0.3c-0.1,0-0.3,0-0.5,0.1v0.2C82.3,81.5,82.4,81.5,82.5,81.5L82.5,81.5z M82.1,83.5
				v-0.2c0.1-0.1,0.2-0.1,0.2-0.2c0.1,0,0.1,0.1,0.1,0.1C82.4,83.3,82.2,83.4,82.1,83.5z M82.1,82.2c-0.1,0.1-0.3,0.1-0.5,0.2
				c0.1-0.2,0.2-0.4,0.4-0.7c0,0,0,0,0.1-0.1v-0.2c-0.1,0-0.1,0.1-0.2,0.1c-0.6,0.5-0.9,1.2-0.9,1.5c0,0.3,0.1,0.6,0.5,0.6
				c0.2,0,0.4,0,0.6-0.2v-0.2c-0.1,0.1-0.2,0.1-0.4,0.1c-0.2,0-0.3-0.1-0.3-0.3c0-0.2,0-0.4,0.1-0.5c0.2-0.1,0.4-0.1,0.5-0.2V82.2z"
				/>
			<path class="st40" d="M86.1,83.7c0.8,0,1.3-0.5,1.3-1.2c0-0.5-0.3-0.8-0.6-1c-0.2-0.2-0.6-0.4-0.6-0.8c0-0.4,0.3-0.7,0.8-0.7
				c0.5,0,0.6,0.3,0.5,0.7c0,0,0.1,0,0.2,0c0.1-0.2,0.1-0.5,0.2-0.7c-0.1-0.1-0.5-0.2-0.8-0.2c-0.8,0-1.3,0.5-1.3,1.1
				c0,0.4,0.3,0.8,0.6,1c0.3,0.2,0.6,0.5,0.6,0.9c0,0.6-0.5,0.8-0.8,0.8c-0.6,0-0.8-0.4-0.9-0.9l-0.1,0c-0.1,0.2-0.1,0.5-0.1,0.7
				C85.3,83.6,85.7,83.7,86.1,83.7z"/>
			<path class="st40" d="M90.6,80.3c0.1-0.1,0.1-0.1,0.1-0.2c0-0.1,0-0.1-0.1-0.1c-0.1,0-0.1-0.1-0.1-0.1c-0.1,0-0.1,0.1-0.2,0.2
				L89.7,81c0,0,0,0.1,0.1,0.1L90.6,80.3L90.6,80.3z M89.2,83.1v-0.2c0.4-0.4,0.6-0.8,0.7-1.2c0-0.1-0.1-0.2-0.3-0.2
				c-0.1,0-0.2,0.1-0.4,0.2l0,0v-0.2c0,0,0.1,0,0.1,0c0.2-0.1,0.4-0.2,0.5-0.2c0.1,0,0.1,0,0.1,0c0,0,0.1,0.1,0.1,0.1l0.2-0.4
				c0.1,0,0.2,0,0.3,0.1c-0.1,0.2-0.6,1.5-0.8,2c0,0.1,0,0.1,0,0.1c0.1,0,0.3-0.1,0.6-0.4c0,0,0.1,0,0.1,0.1c-0.2,0.3-0.6,0.6-1,0.6
				c-0.1,0-0.2-0.1-0.2-0.2c0,0,0-0.1,0.1-0.2l0.2-0.5h0C89.5,82.9,89.4,83,89.2,83.1z M89.2,81.6v0.2c-0.4,0.3-0.7,1.1-0.7,1.5
				c0,0.1,0,0.1,0.1,0.1c0.1,0,0.2-0.1,0.6-0.4c0,0,0,0,0.1-0.1v0.2c-0.3,0.3-0.7,0.5-0.9,0.5c-0.2,0-0.2-0.2-0.2-0.3
				c0-0.1,0.1-0.6,0.5-1.1C88.8,81.9,89,81.7,89.2,81.6z"/>
			<path class="st40" d="M95.9,79.8c-0.8,0-1.5,0.3-1.9,0.7c-0.5,0.4-0.8,1.1-0.8,1.7c0,1.2,0.9,1.5,1.6,1.5c0.2,0,0.4,0,0.6-0.1
				c0.2,0,0.3-0.1,0.5-0.1c0.2-0.3,0.3-0.6,0.4-0.8c0,0-0.1-0.1-0.1,0c-0.3,0.4-0.6,0.8-1.2,0.8c-0.7,0-1.1-0.4-1.1-1.2
				c0-0.8,0.4-1.4,0.7-1.7c0.5-0.5,1.1-0.6,1.5-0.6c0.6,0,0.7,0.3,0.6,0.8c0,0,0.1,0.1,0.2,0c0-0.2,0.2-0.5,0.3-0.8
				C96.7,79.9,96.4,79.8,95.9,79.8z"/>
			<path class="st40" d="M98.3,81.6c0.1,0,0.2,0.1,0.3,0.2c-0.1,0.3-0.3,0.8-0.7,1.2v0.2c0.1-0.1,0.2-0.2,0.3-0.3l0,0l-0.2,0.5
				c0,0.1-0.1,0.2-0.1,0.2c0,0,0,0.2,0.2,0.2c0.3,0,0.7-0.3,1-0.6c0,0,0-0.1-0.1-0.1c-0.3,0.3-0.5,0.4-0.6,0.4c0,0-0.1,0,0-0.1
				c0.2-0.5,0.7-1.8,0.8-2c0-0.1-0.2-0.1-0.3-0.1l-0.2,0.4c0-0.1-0.1-0.1-0.1-0.1c0,0-0.1,0-0.1,0c-0.2,0-0.3,0-0.5,0.2
				c0,0,0,0-0.1,0v0.2l0,0C98.1,81.6,98.2,81.6,98.3,81.6z M97.9,82.9C97.9,82.9,97.9,83,97.9,82.9c-0.4,0.4-0.6,0.4-0.6,0.4
				c-0.1,0-0.1,0-0.1-0.1c0-0.4,0.3-1.1,0.7-1.5v-0.2c-0.2,0.1-0.4,0.4-0.7,0.7c-0.4,0.5-0.5,1-0.5,1.1c0,0.2,0.1,0.3,0.3,0.3
				c0.2,0,0.6-0.2,0.9-0.5V82.9z"/>
			<path class="st40" d="M100.1,82.8c-0.1,0.2-0.1,0.4-0.1,0.5c0,0.2,0.1,0.3,0.3,0.3c0.1,0,0.5-0.1,0.9-0.4
				c0.5-0.4,0.9-1.2,0.9-1.6c0-0.1,0-0.3-0.2-0.3c-0.1,0-0.2,0.1-0.2,0.2c0,0.1,0,0.3,0,0.4c0,0.3-0.2,0.7-0.5,1.1
				c-0.3,0.3-0.5,0.4-0.6,0.4c-0.1,0-0.2-0.1-0.2-0.2c0-0.1,0-0.2,0.1-0.3l0.5-1.3c0.1-0.2,0-0.4-0.2-0.4c-0.3,0-0.7,0.4-0.9,0.6
				c0,0.1,0,0.1,0.1,0.1c0.2-0.2,0.4-0.4,0.5-0.4c0.1,0,0.1,0.1,0,0.2L100.1,82.8z"/>
			<path class="st40" d="M103.9,81.6c0.1,0,0.2,0.1,0.3,0.2c-0.1,0.3-0.3,0.8-0.7,1.2v0.2c0.1-0.1,0.2-0.2,0.3-0.4l0,0l-0.2,0.5
				c-0.1,0.1-0.1,0.2-0.1,0.2c0,0,0,0.2,0.2,0.2c0.3,0,0.7-0.3,1-0.6c0-0.1,0-0.1-0.1-0.1c-0.3,0.3-0.5,0.4-0.6,0.4c0,0-0.1,0,0-0.1
				c0.2-0.5,0.7-1.8,0.8-2c0-0.1-0.2-0.1-0.3-0.1l-0.2,0.4c0-0.1-0.1-0.1-0.1-0.1c0,0-0.1,0-0.1,0c-0.2,0-0.3,0-0.5,0.2
				c0,0-0.1,0-0.1,0v0.2l0,0C103.7,81.6,103.8,81.6,103.9,81.6z M103.5,82.9C103.5,82.9,103.5,83,103.5,82.9
				c-0.4,0.3-0.6,0.4-0.6,0.4c-0.1,0-0.1,0-0.1-0.1c0-0.4,0.3-1.1,0.7-1.5v-0.2c-0.2,0.1-0.4,0.3-0.7,0.7c-0.4,0.5-0.5,1-0.5,1.1
				c0,0.2,0.1,0.3,0.3,0.3c0.2,0,0.6-0.2,0.9-0.5V82.9z"/>
			<path class="st40" d="M106.7,80.5c0.2-0.6,0.3-0.8,0.3-1l0,0c-0.3,0-0.6,0.1-0.7,0.2v0.1l0.1,0c0.1,0,0.1,0.1,0,0.5l-0.9,2.7
				c-0.1,0.3-0.1,0.4-0.1,0.5c0,0.1,0.1,0.2,0.2,0.2c0.5,0,0.8-0.5,1-0.7c0-0.1,0-0.1-0.1-0.1c-0.3,0.3-0.5,0.6-0.7,0.6
				c-0.1,0-0.1-0.1,0-0.2L106.7,80.5z"/>
			<path class="st40" d="M108.6,81.3c-0.3,0-0.5,0.1-0.7,0.3c-0.5,0.5-0.7,1.1-0.7,1.5c0,0.4,0.2,0.6,0.4,0.6c0.4,0,0.7-0.2,0.9-0.5
				c0-0.1,0-0.1-0.1-0.1c-0.2,0.2-0.4,0.3-0.6,0.3c-0.1,0-0.3-0.1-0.2-0.4c0-0.4,0.2-0.9,0.4-1.2c0.2-0.3,0.4-0.4,0.5-0.4
				c0.2,0,0.2,0.2,0.2,0.3c0,0.1,0.1,0.1,0.1,0.1c0.1,0,0.3,0,0.3-0.3C109,81.4,108.9,81.3,108.6,81.3z"/>
			<path class="st40" d="M110.8,81.5c0.2,0,0.3,0.1,0.3,0.2c-0.1,0.3-0.3,0.8-0.7,1.2v0.2c0.1-0.1,0.2-0.2,0.3-0.4l0,0l-0.2,0.5
				c0,0.1-0.1,0.2-0.1,0.2c0,0.1,0,0.2,0.2,0.2c0.3,0,0.7-0.3,1-0.6c0,0,0-0.1-0.1-0.1c-0.3,0.3-0.5,0.4-0.6,0.4c-0.1,0-0.1,0,0-0.1
				c0.2-0.5,0.7-1.8,0.8-2c0-0.1-0.2-0.1-0.3-0.1l-0.2,0.4c0,0-0.1-0.1-0.1-0.1c0,0-0.1,0-0.1,0c-0.1,0-0.3,0-0.5,0.2c0,0,0,0-0.1,0
				v0.2l0,0C110.6,81.6,110.7,81.5,110.8,81.5z M110.4,82.9C110.4,82.9,110.4,83,110.4,82.9c-0.4,0.4-0.6,0.4-0.6,0.4
				c0,0-0.1,0-0.1-0.1c0-0.4,0.3-1.1,0.7-1.5v-0.2c-0.2,0.1-0.4,0.4-0.7,0.7c-0.4,0.5-0.5,1-0.5,1.1c0,0.2,0.1,0.3,0.3,0.3
				c0.2,0,0.6-0.2,0.9-0.5V82.9z"/>
			<path class="st40" d="M113.4,81.5c0.1-0.1,0-0.2-0.1-0.2c-0.3,0-0.6,0.2-0.9,0.5c0,0,0,0.1,0.1,0.1c0.2-0.2,0.4-0.3,0.5-0.3
				c0,0,0,0.1,0,0.1c0,0.1-0.6,1.7-0.7,1.8c-0.1,0.1,0.1,0.2,0.2,0.2c0,0,0.1,0,0.1-0.1c0.3-0.6,0.6-1.1,0.9-1.4
				c0.3-0.4,0.7-0.7,0.8-0.7c0.1,0,0.1,0.1,0.1,0.1c0,0.1-0.1,0.3-0.1,0.4c-0.1,0.3-0.3,0.8-0.5,1.1c-0.1,0.3-0.1,0.3-0.1,0.4
				c0,0.1,0.1,0.1,0.1,0.1c0.3,0,0.8-0.3,1-0.6c0,0,0-0.1-0.1-0.1c-0.2,0.2-0.4,0.4-0.5,0.4c0,0,0-0.1,0-0.1c0,0,0.4-1,0.5-1.2
				c0.1-0.1,0.1-0.3,0.1-0.4c0-0.2-0.1-0.3-0.3-0.3c-0.4,0-1,0.6-1.4,1.2l0,0L113.4,81.5z"/>
			<path class="st40" d="M117.1,81.6c0.1,0,0.1-0.2,0.1-0.2h-0.6l0.2-0.6c0-0.1-0.2-0.1-0.2,0l-0.3,0.6l-0.5,0.1
				c-0.1,0-0.1,0.1-0.1,0.2h0.4l-0.5,1.6c-0.1,0.2-0.1,0.3-0.1,0.3c0,0.1,0.1,0.2,0.1,0.2c0.2,0,0.8-0.3,1.1-0.8
				c0-0.1,0-0.1-0.1-0.1c-0.2,0.2-0.6,0.5-0.7,0.5c0,0-0.1,0,0-0.1l0.5-1.5L117.1,81.6z"/>
			<path class="st40" d="M118.8,81.4c0.1,0,0.1,0.1,0.1,0.1c0,0.1,0,0.2-0.2,0.4c-0.1,0.1-0.2,0.2-0.3,0.2v0.2
				c0.5-0.2,0.8-0.4,0.8-0.8c0-0.1-0.1-0.3-0.4-0.3c-0.1,0-0.3,0-0.5,0.1v0.2C118.7,81.5,118.8,81.4,118.8,81.4L118.8,81.4z
				 M118.5,83.4v-0.2c0.1-0.1,0.2-0.1,0.2-0.2c0,0,0.1,0,0.1,0.1C118.7,83.2,118.6,83.3,118.5,83.4z M118.5,82.1
				c-0.1,0.1-0.3,0.1-0.5,0.2c0.1-0.2,0.2-0.4,0.4-0.7c0,0,0,0,0.1-0.1v-0.2c-0.1,0-0.1,0.1-0.2,0.1c-0.6,0.5-0.9,1.2-0.9,1.5
				c0,0.3,0.1,0.6,0.5,0.6c0.2,0,0.4,0,0.6-0.2v-0.2c-0.1,0.1-0.2,0.1-0.4,0.1c-0.1,0-0.3-0.1-0.3-0.3c0-0.2,0-0.4,0.1-0.5
				c0.2-0.1,0.4-0.1,0.5-0.2V82.1z"/>
			<path class="st40" d="M97.1,56c-1.8,0-3.4,1.4-5,3.5c-1.2,1.6-2.5,3.7-4.2,6.7h-0.3l1.8-5.3c0.9-2.6,0.8-4.8-2.2-4.8
				c-3.7,0-7,3.6-8,5.6c-0.1,0.6,0.3,1.1,0.9,1.2c1.4-1.6,3.4-3.1,4.2-3.1c0.6,0,0.5,0.7,0.2,1.6c-1.4,4.3-3.3,9.6-4.8,14.2
				c-0.5,1.6,1.5,2,2.8,2c1.1,0,2.1-0.2,2.4-0.9c1.6-3.9,3-7.7,5.3-11.8c1.3-2.3,2.6-4.4,3.5-4.4c0.4,0,0.7,0.3,0.8,1.2
				c0.3,1.3,0.5,2.3,1.5,2.3c1.4,0,3.4-2.1,3.3-4.9C99.6,57,98.6,56,97.1,56z"/>
			<path class="st40" d="M107.9,51.7c0,1.7,1.2,3,3.2,3c2.4,0,4.1-2,4.1-4.3c0-2-1.2-3.1-3-3.1C109.6,47.4,107.9,49.4,107.9,51.7
				L107.9,51.7z M111.7,60.4c0.4-0.8,0.7-1.7,0.7-2.2c0-1.1-1.2-2.2-2.3-2.2c-2.7,0-7.5,2.5-10.2,5.8c-0.2,0.4,0.2,1.1,0.8,1.2
				c0.8-0.8,3.7-2.9,4.5-2.9c0.3,0,0.3,0.3,0.1,0.7L100,73.4c-0.4,1-0.6,1.6-0.6,2.2c0,0.6,1,2,2.3,2c4.2,0,8.7-3.4,10.7-6
				c0.2-0.7-0.4-1.2-1-1.2c-1.3,1.2-4.1,3.2-4.8,3.2c-0.4,0-0.4-0.3-0.2-0.8L111.7,60.4z"/>
			<g>
				<path class="st8" d="M53.7,53l1.5-3.5c0.6-1.2,1-2.3,1.4-3.3c-1,0-1.9,0.1-2.9,0.2c-1,0.1-2,0.4-2.9,0.6
					c-8.9,2.6-15.4,10.7-15.4,20.3c0,5.6,2.2,10.7,5.9,14.5l1.8-4l7.8-18.1L53.7,53z"/>
				<path class="st8" d="M53.7,62.6l-2.3,5.7c-1,2.3-0.7,2.3,1.2,2.3l1.1,0l7.3,0c2.3,0,2.6-0.2,2-2.1l-3-9.5
					c-1.2-4.2-1.6-5.7-2-6.3h-0.2c-0.3,0.6-1.1,2.5-2.7,6.3L53.7,62.6z"/>
				<path class="st8" d="M67.2,48.8c-0.3-0.1-0.5-0.3-0.8-0.4c0.3,0.9,0.5,1.8,0.8,2.6c0,0.1,0.1,0.2,0.1,0.3l8.2,26.5
					c1.8-3.1,2.8-6.7,2.8-10.5C78.4,59.3,73.9,52.4,67.2,48.8z"/>
				<path class="st8" d="M65.2,76.3c-0.7-2.1-1-2.1-3.2-2.1l-8.2,0l-2.5,0c-0.1,0-0.3,0-0.4,0c-1.7,0-1.7,0.1-2.4,2.2L45,85
					c1.8,1.2,3.7,2.1,5.8,2.7c0.9,0.3,1.9,0.5,2.9,0.6c1.1,0.2,2.1,0.2,3.2,0.2c3.7,0,7.3-1,10.3-2.6c0.3-0.1,0.5-0.3,0.8-0.4
					l-0.8-2.5L65.2,76.3z"/>
			</g>
		</g>
	</g>
</g>
</svg>
