<svg width="135" height="67" viewBox="0 0 135 67" fill="none" xmlns="http://www.w3.org/2000/svg">
<g clip-path="url(#clip0)">
<path fill-rule="evenodd" clip-rule="evenodd" d="M73.836 5.91555C72.8806 5.90211 71.9528 6.23621 71.2253 6.85568C70.8881 7.14249 70.6143 7.49637 70.4213 7.89478C70.2283 8.2932 70.1204 8.72743 70.1044 9.16984C70.0866 9.45427 70.1314 9.73915 70.2358 10.0043C70.3402 10.2695 70.5016 10.5085 70.7086 10.7044C70.9155 10.9004 71.163 11.0484 71.4335 11.1381C71.704 11.2279 71.9909 11.2571 72.2739 11.2237C72.5316 11.2183 72.7882 11.1892 73.0405 11.1369C73.2431 11.0937 73.4485 11.0647 73.6552 11.0501C73.8488 10.7042 74.0156 10.344 74.1542 9.97256C74.1542 9.90024 74.0457 9.88578 73.9734 9.91471C73.8202 10.2264 73.5853 10.4907 73.2936 10.6792C73.0019 10.8677 72.6644 10.9734 72.3173 10.985C71.3193 10.985 70.8059 10.3992 70.8059 9.31447C70.8142 8.46149 71.1389 7.64196 71.7171 7.01478C71.9731 6.74372 72.2812 6.52714 72.6229 6.37802C72.9647 6.2289 73.333 6.15031 73.7058 6.14697C74.5085 6.14697 74.6966 6.51579 74.5592 7.18111C74.5592 7.24619 74.7327 7.24619 74.7616 7.18111C74.8562 6.8255 74.9771 6.47741 75.1232 6.13974C74.7113 5.98746 74.2751 5.91149 73.836 5.91555Z" fill="white"/>
<path fill-rule="evenodd" clip-rule="evenodd" d="M79.2961 8.20081C79.571 8.20081 79.5999 8.46115 79.5999 8.6998C79.5042 9.36872 79.2568 10.0069 78.8767 10.5656C78.8465 10.6116 78.8127 10.6552 78.7755 10.6958V11.079C78.9793 10.9781 79.1631 10.8409 79.3178 10.6741C79.7805 10.1984 80.0729 9.5831 80.1495 8.92398C80.1495 8.37437 79.8964 7.96216 79.3395 7.96216C79.1423 7.96181 78.9482 8.01158 78.7755 8.10679V8.49008C78.8342 8.40511 78.9117 8.33482 79.002 8.28466C79.0923 8.23449 79.193 8.2058 79.2961 8.20081ZM78.7755 10.6958C78.7179 10.7791 78.6413 10.8475 78.552 10.8953C78.4627 10.9431 78.3633 10.9689 78.262 10.9706C78.0451 10.9706 77.9366 10.7464 77.9438 10.486C78.0536 9.7913 78.3207 9.13084 78.7248 8.55516L78.7755 8.49008V8.10679C78.5918 8.20145 78.4236 8.32336 78.2765 8.46838C77.7974 8.92525 77.4974 9.53821 77.4304 10.1968C77.3725 10.8476 77.7052 11.2092 78.1969 11.2092C78.3972 11.2104 78.595 11.1659 78.7755 11.079V10.6958Z" fill="white"/>
<path fill-rule="evenodd" clip-rule="evenodd" d="M85.1099 6.95701C85.3919 6.13259 85.4715 5.92287 85.5727 5.64807L85.5293 5.60468C85.196 5.63908 84.8681 5.71437 84.5531 5.82886V5.9518L84.6905 6.00965C84.8062 6.06028 84.893 6.13259 84.6905 6.67497L83.4538 10.2908C83.3607 10.4993 83.302 10.7216 83.2803 10.9489C83.2803 11.0719 83.3526 11.1804 83.584 11.1804C84.2276 11.1804 84.7194 10.5367 84.9363 10.1534C84.9363 10.0667 84.8785 10.0377 84.7989 10.0377C84.4374 10.4427 84.0758 10.8188 83.895 10.8188C83.8299 10.8188 83.8154 10.7464 83.895 10.5657L85.1099 6.95701Z" fill="white"/>
<path fill-rule="evenodd" clip-rule="evenodd" d="M90.7943 6.66769C90.8637 6.61033 90.9121 6.53144 90.9317 6.44351C90.9317 6.36396 90.8738 6.3061 90.7798 6.23379C90.7243 6.19528 90.6592 6.17276 90.5918 6.1687C90.4905 6.1687 90.382 6.29164 90.3242 6.40735L89.6733 7.61505L89.789 7.70906L90.7943 6.66769ZM89.3479 10.9055V10.6235C89.4419 10.5511 89.5504 10.4644 89.6733 10.3559C89.6892 10.3567 89.7047 10.3609 89.7189 10.368C89.7332 10.3751 89.7457 10.3851 89.7559 10.3973C89.7661 10.4096 89.7736 10.4237 89.7781 10.439C89.7826 10.4543 89.7838 10.4703 89.7818 10.4861C89.6542 10.6424 89.5085 10.7832 89.3479 10.9055ZM89.3479 9.45915V9.18434C89.4742 9.10114 89.5928 9.00674 89.7023 8.9023C89.8656 8.76673 89.98 8.58125 90.0277 8.37438C90.0277 8.29484 89.9771 8.20082 89.8252 8.20082C89.6401 8.22764 89.4707 8.32002 89.3479 8.46117V8.13574C89.54 8.02655 89.7562 7.9669 89.9771 7.96217C90.1044 7.95825 90.2281 8.00461 90.3215 8.09123C90.4149 8.17785 90.4704 8.29776 90.4761 8.42501C90.4761 8.85891 90.0349 9.17711 89.3479 9.44468V9.45915ZM89.3479 8.13574V8.46117L89.2322 8.56964C88.9913 8.82912 88.8001 9.13062 88.6681 9.45915C88.9053 9.39631 89.1337 9.30399 89.3479 9.18434V9.45915C89.1165 9.54593 88.8634 9.62548 88.6247 9.70503C88.5452 9.92254 88.5084 10.1533 88.5163 10.3848C88.5113 10.4373 88.517 10.4902 88.5331 10.5404C88.5491 10.5906 88.5751 10.637 88.6096 10.6769C88.6441 10.7167 88.6862 10.7492 88.7336 10.7723C88.7809 10.7955 88.8324 10.8088 88.8851 10.8115C89.0634 10.8078 89.2358 10.747 89.3768 10.6379V10.92C89.1403 11.1026 88.8512 11.204 88.5524 11.2092C88.0896 11.2092 87.916 10.7753 87.916 10.4065C87.9508 9.99651 88.0726 9.59865 88.2734 9.23949C88.4742 8.88033 88.7493 8.56814 89.0803 8.32376C89.1655 8.25106 89.2548 8.18344 89.3479 8.12127V8.13574Z" fill="white"/>
<path fill-rule="evenodd" clip-rule="evenodd" d="M95.0915 8.15745C95.1235 8.15836 95.1549 8.16569 95.184 8.17901C95.2131 8.19232 95.2392 8.21135 95.2608 8.23497C95.2824 8.25858 95.299 8.28629 95.3097 8.31646C95.3204 8.34662 95.3248 8.37862 95.3229 8.41056C95.2209 8.95049 94.9704 9.45133 94.5997 9.85691V10.2474L94.795 10.1679C95.0661 10.0156 95.2973 9.80112 95.4695 9.54216C95.6417 9.2832 95.7501 8.98709 95.7857 8.67813C95.7777 8.57979 95.7583 8.48272 95.7279 8.38886L95.8002 8.33824C95.8983 8.34336 95.9954 8.36036 96.0895 8.38886C96.1737 8.39555 96.2583 8.39555 96.3426 8.38886C96.4221 8.38886 96.5089 8.33101 96.5089 8.15745C96.5089 7.98389 96.4583 7.96942 96.3498 7.96942C96.2295 7.97725 96.1106 7.99909 95.9954 8.03451C95.8761 8.05665 95.7552 8.06875 95.6339 8.07067C95.567 8.05467 95.5017 8.03289 95.4386 8.00558C95.3611 7.96953 95.2779 7.94749 95.1927 7.94049C94.9901 7.94007 94.7891 7.97684 94.5997 8.04897V8.44672C94.8167 8.2153 94.9685 8.15745 95.0915 8.15745ZM94.5997 13.0172V12.7858C94.889 12.7062 95.1638 12.5616 95.1638 12.3374C95.1638 12.1132 95.077 12.0337 94.8239 11.8673L94.5997 11.7155V11.1659L95.0915 11.4407C95.5543 11.7155 95.6772 11.9469 95.6772 12.1638C95.6772 12.3808 95.3229 12.8942 94.5997 13.0172ZM94.5997 9.85691C94.541 9.93462 94.4671 9.99966 94.3826 10.0481C94.2981 10.0966 94.2047 10.1275 94.108 10.1389C94.0401 10.1316 93.9779 10.098 93.9346 10.0452C93.8913 9.99249 93.8705 9.92487 93.8765 9.85691C93.9729 9.31507 94.224 8.81272 94.5997 8.41056V8.01281C94.3946 8.10119 94.2043 8.22071 94.0356 8.36717C93.8493 8.52974 93.6976 8.72811 93.5896 8.95049C93.4815 9.17288 93.4192 9.41472 93.4065 9.66165C93.4027 9.82982 93.4577 9.99404 93.562 10.126C93.6663 10.258 93.8133 10.3495 93.9778 10.3848C93.8233 10.5516 93.7051 10.7486 93.6307 10.9634C93.6307 11.0791 93.6668 11.1875 93.8765 11.3105C93.4571 11.4479 92.5459 11.8167 92.5459 12.3953C92.5459 12.9738 93.204 13.1184 93.7825 13.1184C94.0572 13.1189 94.3312 13.0898 94.5997 13.0316V12.8002C94.4462 12.8407 94.2884 12.8626 94.1297 12.8653C93.609 12.8653 93.0883 12.6411 93.0883 12.2723C93.0918 12.1737 93.1202 12.0776 93.1707 11.9929C93.2213 11.9082 93.2924 11.8377 93.3775 11.7878C93.5795 11.6143 93.8346 11.5148 94.1007 11.5057C94.2794 11.5426 94.4475 11.6192 94.5925 11.7299V11.1803L94.3249 11.0068C94.1224 10.8694 94.0573 10.7319 94.0573 10.6524C94.0596 10.5945 94.0776 10.5383 94.1095 10.4898C94.1413 10.4414 94.1858 10.4026 94.2381 10.3776L94.5925 10.2619L94.5997 9.85691Z" fill="white"/>
<path fill-rule="evenodd" clip-rule="evenodd" d="M100.752 6.08191C100.449 6.08191 100.333 6.40734 100.333 6.57367C100.331 6.61126 100.337 6.64886 100.35 6.68403C100.363 6.7192 100.384 6.75113 100.411 6.77775C100.437 6.80437 100.469 6.82507 100.505 6.83851C100.54 6.85194 100.577 6.8578 100.615 6.85571C100.731 6.84299 100.838 6.78669 100.915 6.69813C100.991 6.60958 101.031 6.49534 101.027 6.37841C101.03 6.34054 101.025 6.30246 101.013 6.26657C101 6.23069 100.981 6.19777 100.955 6.16991C100.929 6.14205 100.898 6.11984 100.863 6.1047C100.828 6.08955 100.79 6.08179 100.752 6.08191ZM99.0745 10.891C99.0527 10.9216 99.041 10.9583 99.041 10.9959C99.041 11.0335 99.0527 11.0701 99.0745 11.1007L99.1975 11.1731C99.7785 11.0566 100.295 10.7263 100.644 10.2474C100.642 10.2154 100.629 10.1851 100.606 10.1624C100.583 10.1397 100.553 10.1262 100.521 10.1245C100.304 10.3823 100.022 10.5771 99.7037 10.6885C99.6531 10.6885 99.6531 10.5945 99.7037 10.5222L100.629 8.35268C100.716 8.13573 100.716 8.07064 100.673 8.01279L100.521 7.95493C100.036 8.0586 99.5961 8.3115 99.2625 8.67811C99.2625 8.72873 99.2625 8.78658 99.3638 8.81551C99.5505 8.63181 99.7717 8.48681 100.015 8.38884C100.065 8.38884 100.065 8.45392 100.015 8.53347L99.0745 10.891Z" fill="white"/>
<path fill-rule="evenodd" clip-rule="evenodd" d="M105.742 8.15741C106.017 8.15741 106.06 8.41052 106.06 8.6564C105.958 9.32583 105.711 9.96498 105.337 10.5294L105.236 10.6524V11.0284C105.434 10.9272 105.612 10.7926 105.764 10.6307C106.233 10.1635 106.525 9.54708 106.588 8.88782C106.625 8.33097 106.342 7.91876 105.807 7.91876C105.609 7.9219 105.414 7.96882 105.236 8.05617V8.44668C105.291 8.3612 105.365 8.29024 105.454 8.23987C105.542 8.18949 105.641 8.1612 105.742 8.15741ZM105.236 10.6524C105.176 10.7333 105.099 10.8 105.01 10.8475C104.921 10.8951 104.823 10.9223 104.723 10.9272C104.491 10.9272 104.39 10.703 104.404 10.4499C104.498 9.75211 104.764 9.08864 105.178 8.519C105.193 8.49187 105.213 8.46743 105.236 8.44668V8.05617C105.049 8.15002 104.877 8.26927 104.723 8.41052C104.254 8.8784 103.953 9.48897 103.869 10.1461C103.819 10.797 104.159 11.173 104.665 11.173C104.864 11.1702 105.06 11.1207 105.236 11.0284V10.6524Z" fill="white"/>
<path fill-rule="evenodd" clip-rule="evenodd" d="M69.8075 55.5831C70.0461 55.5831 70.1546 55.8435 70.0461 56.2268C69.8363 56.8863 69.4544 57.478 68.9397 57.9407L68.8167 58.0709V58.4831C69.1532 58.1437 69.4627 57.7786 69.7424 57.3911L69.4242 58.2878C69.3564 58.4482 69.3196 58.62 69.3157 58.794C69.3136 58.8316 69.3195 58.8692 69.3329 58.9044C69.3463 58.9396 69.3671 58.9715 69.3937 58.9981C69.4203 59.0247 69.4522 59.0454 69.4874 59.0589C69.5226 59.0723 69.5602 59.0782 69.5978 59.0761C69.9273 58.9866 70.2358 58.8325 70.5052 58.6227C70.7746 58.4128 70.9996 58.1515 71.167 57.8539C71.1672 57.8365 71.1636 57.8192 71.1565 57.8033C71.1494 57.7873 71.1391 57.7731 71.1261 57.7614C71.1131 57.7498 71.0978 57.7411 71.0811 57.7358C71.0645 57.7306 71.047 57.7289 71.0296 57.731C70.7631 58.0828 70.4224 58.3717 70.0317 58.5771C69.9521 58.5771 69.9449 58.4903 69.981 58.3674C70.0678 58.0998 70.48 56.6751 71.3768 54.238C71.6516 53.5148 71.7817 53.1533 71.9408 52.6543V52.6036C71.5745 52.6012 71.2103 52.6599 70.8633 52.7772V52.9002L71.0803 53.0376C71.2032 53.1243 71.1815 53.2834 71.0079 53.7607L70.3426 55.5976C70.2975 55.5179 70.2324 55.4514 70.1538 55.4045C70.0752 55.3576 69.9858 55.3319 69.8943 55.33C69.5308 55.3483 69.1789 55.4631 68.8746 55.6627V56.2991C68.9903 56.1689 69.0915 56.0532 69.1783 55.9736C69.3392 55.7777 69.5604 55.6404 69.8075 55.5831ZM68.8167 58.0709C68.5296 58.4029 68.1449 58.6358 67.7175 58.7362C67.6743 58.7348 67.6331 58.7179 67.6013 58.6887C67.5694 58.6596 67.5491 58.6199 67.5439 58.5771C67.5644 58.2768 67.6642 57.9873 67.8332 57.7382C68.1089 57.2226 68.4386 56.7377 68.8167 56.2918V55.6844C68.6015 55.8212 68.3983 55.9761 68.2093 56.1472C67.5365 56.7464 67.1089 57.5732 67.0088 58.4686C67.0088 58.8229 67.1968 59.1122 67.5439 59.1122C68.0295 59.083 68.4852 58.868 68.8167 58.512V58.0709Z" fill="white"/>
<path fill-rule="evenodd" clip-rule="evenodd" d="M74.2124 55.5832C74.2401 55.5798 74.2682 55.5827 74.2946 55.5916C74.3211 55.6005 74.3452 55.6152 74.3653 55.6346C74.3854 55.654 74.4009 55.6776 74.4107 55.7037C74.4206 55.7298 74.4244 55.7578 74.4221 55.7856C74.3867 56.028 74.2566 56.2464 74.0605 56.3931C73.9327 56.5183 73.7921 56.6298 73.6411 56.7258V57.044C74.4438 56.733 74.9645 56.3208 74.9645 55.8435C74.9553 55.6983 74.891 55.5621 74.7849 55.4627C74.6787 55.3633 74.5386 55.3081 74.3932 55.3084C74.1387 55.3191 73.8907 55.391 73.67 55.5181V55.9014C73.8149 55.7288 74.0183 55.6155 74.2413 55.5832H74.2124ZM73.6411 58.7507V58.418C73.7495 58.3384 73.8725 58.2372 74.0243 58.107C74.0432 58.1065 74.062 58.1103 74.0792 58.1182C74.0963 58.1261 74.1115 58.1379 74.1233 58.1526C74.1352 58.1673 74.1436 58.1845 74.1477 58.2029C74.1519 58.2214 74.1517 58.2405 74.1473 58.2589C73.9973 58.4411 73.8275 58.6061 73.6411 58.7507ZM73.6411 56.7258C73.3971 56.875 73.131 56.9849 72.8528 57.0512C73.0099 56.6655 73.2408 56.3142 73.5326 56.0171L73.6411 55.9014V55.5181C73.5209 55.579 73.407 55.6517 73.3012 55.735C72.9196 56.0203 72.6025 56.3829 72.3707 56.7991C72.1389 57.2153 71.9976 57.6758 71.9561 58.1504C71.9561 58.5771 72.1585 59.0761 72.6792 59.0761C73.0219 59.073 73.3543 58.9588 73.6266 58.7507V58.418C73.4633 58.5479 73.2636 58.6237 73.0553 58.635C72.9921 58.6305 72.9306 58.6133 72.8742 58.5844C72.8179 58.5556 72.768 58.5156 72.7275 58.467C72.6869 58.4184 72.6567 58.3621 72.6384 58.3015C72.6202 58.2408 72.6144 58.1772 72.6214 58.1143C72.6123 57.8425 72.6591 57.5718 72.7588 57.3188C73.0526 57.2422 73.3422 57.1504 73.6266 57.044L73.6411 56.7258Z" fill="white"/>
<path fill-rule="evenodd" clip-rule="evenodd" d="M79.903 59.0761C80.163 59.1021 80.4255 59.074 80.6741 58.9937C80.9226 58.9134 81.1519 58.7825 81.3475 58.6094C81.5431 58.4362 81.7008 58.2244 81.8106 57.9874C81.9204 57.7504 81.9801 57.4932 81.9858 57.232C81.9675 56.9011 81.8674 56.5799 81.6945 56.2972C81.5216 56.0145 81.2813 55.7791 80.995 55.6121C80.6768 55.359 80.1127 54.8889 80.1127 54.3176C80.1098 54.1599 80.1405 54.0033 80.2026 53.8583C80.2648 53.7133 80.357 53.5832 80.4733 53.4765C80.5895 53.3699 80.7271 53.2891 80.8769 53.2396C81.0266 53.1901 81.1852 53.173 81.3421 53.1895C82.1521 53.1895 82.3257 53.674 82.2027 54.2814C82.2369 54.3078 82.2789 54.3222 82.322 54.3222C82.3652 54.3222 82.4072 54.3078 82.4414 54.2814C82.5263 53.9266 82.6375 53.5785 82.774 53.2401C82.3732 53.0113 81.9194 52.8916 81.4578 52.893C80.2574 52.893 79.4764 53.6161 79.4836 54.578C79.5177 54.8891 79.6188 55.1891 79.7798 55.4575C79.9408 55.7259 80.158 55.9562 80.4165 56.1328C80.6727 56.2691 80.8905 56.4677 81.0498 56.7104C81.209 56.9531 81.3046 57.2319 81.3277 57.5213C81.3298 57.6921 81.2971 57.8615 81.2316 58.0193C81.1661 58.177 81.0691 58.3198 80.9467 58.4389C80.8242 58.558 80.6788 58.6509 80.5192 58.7119C80.3597 58.773 80.1894 58.8009 80.0187 58.7941C79.1075 58.7941 78.7387 58.2011 78.6736 57.42H78.4784C78.3509 57.7515 78.299 58.1073 78.3265 58.4614C78.523 58.6799 78.7679 58.8494 79.0417 58.9561C79.3155 59.0629 79.6105 59.104 79.903 59.0761Z" fill="white"/>
<path fill-rule="evenodd" clip-rule="evenodd" d="M86.918 53.8042C87.0029 53.7382 87.0597 53.6427 87.0771 53.5366C87.0771 53.4571 87.0193 53.392 86.9108 53.298C86.8423 53.2551 86.7662 53.2256 86.6866 53.2112C86.5637 53.2112 86.4552 53.3703 86.3757 53.5005L85.6091 54.9468C85.6091 55.0047 85.6814 55.0408 85.7537 55.0408L86.918 53.8331V53.8042ZM84.8208 58.2083V57.9046C85.3424 57.3999 85.7258 56.77 85.9345 56.075C85.8991 55.9827 85.8381 55.9024 85.7587 55.8434C85.6793 55.7845 85.5848 55.7495 85.4862 55.7423C85.262 55.7423 85.1246 55.8508 84.8425 56.0966V55.7206L84.9655 55.641C85.2126 55.4853 85.4978 55.4002 85.7899 55.3952C85.8653 55.3938 85.9398 55.4112 86.0068 55.4458C86.0744 55.4936 86.1311 55.5552 86.1732 55.6266L86.4408 55.0553C86.5194 55.0294 86.6042 55.0287 86.6833 55.0534C86.7624 55.078 86.8318 55.1267 86.8819 55.1927C86.7373 55.5253 85.9562 57.4924 85.667 58.3096C85.6163 58.4614 85.667 58.5121 85.7248 58.5121C85.7827 58.5121 86.1587 58.3602 86.6722 57.9118C86.7036 57.9118 86.7338 57.9237 86.7566 57.9452C86.7795 57.9667 86.7933 57.9962 86.7951 58.0275C86.6213 58.2874 86.3975 58.5101 86.1368 58.6827C85.876 58.8553 85.5836 58.9743 85.2764 59.0327C85.2424 59.0358 85.2081 59.0316 85.1757 59.0206C85.1433 59.0096 85.1136 58.992 85.0884 58.9689C85.0632 58.9457 85.0431 58.9176 85.0294 58.8862C85.0157 58.8549 85.0087 58.8211 85.0089 58.7869C85.0215 58.6723 85.0507 58.5603 85.0956 58.4542L85.3994 57.637C85.2232 57.8436 85.0297 58.0348 84.8208 58.2083ZM84.8208 55.7423V56.1183C84.2087 56.7362 83.8194 57.5402 83.7144 58.4036C83.7144 58.5265 83.7578 58.5844 83.8446 58.5844C83.9313 58.5844 84.2134 58.4759 84.7196 57.9986C84.7567 57.9711 84.7907 57.9396 84.8208 57.9046V58.2083C84.4328 58.6269 83.9295 58.9213 83.3745 59.0544C83.1358 59.0544 82.9912 58.8086 82.9912 58.5554C83.1048 57.9223 83.3758 57.3279 83.7795 56.8271C84.0626 56.4091 84.4148 56.0423 84.8208 55.7423Z" fill="white"/>
<path fill-rule="evenodd" clip-rule="evenodd" d="M95.3517 52.8857C94.2392 52.8678 93.1577 53.2531 92.3072 53.9705C91.9176 54.307 91.6017 54.7203 91.3789 55.1844C91.1562 55.6485 91.0315 56.1535 91.0127 56.6679C91.0127 58.5337 92.3795 59.0544 93.551 59.0544C93.8501 59.0437 94.1477 59.0074 94.4405 58.9459C94.679 58.8973 94.9207 58.8658 95.1637 58.8519C95.3914 58.4459 95.5872 58.0227 95.7495 57.5864C95.7495 57.5068 95.6266 57.4851 95.5398 57.5285C95.3606 57.8962 95.0836 58.2075 94.7391 58.4282C94.3947 58.6489 93.9962 58.7705 93.5872 58.7796C92.4446 58.7796 91.8299 58.1071 91.8299 56.8343C91.8459 55.8425 92.224 54.8908 92.8929 54.1585C93.5042 53.5308 94.3384 53.1696 95.2143 53.1533C96.1472 53.1533 96.3787 53.58 96.2051 54.3465C96.2051 54.4261 96.4003 54.4406 96.4437 54.3465C96.553 53.9396 96.6907 53.5409 96.8559 53.1533C96.3758 52.9705 95.8655 52.8797 95.3517 52.8857Z" fill="white"/>
<path fill-rule="evenodd" clip-rule="evenodd" d="M99.1186 55.7351C99.2178 55.736 99.3144 55.7669 99.3957 55.8237C99.477 55.8805 99.5392 55.9605 99.5742 56.0533C99.3611 56.7363 98.9808 57.3553 98.4677 57.854V58.1578C98.6546 57.9853 98.8308 57.8017 98.9957 57.6081L98.6919 58.4181C98.6472 58.5293 98.618 58.6461 98.6052 58.7652C98.6061 58.7991 98.6138 58.8325 98.6278 58.8633C98.6418 58.8941 98.662 58.9218 98.6869 58.9448C98.7119 58.9677 98.7412 58.9854 98.7731 58.9968C98.805 59.0082 98.8389 59.013 98.8727 59.0111C99.4954 58.8844 100.045 58.5216 100.406 57.9987C100.406 57.9263 100.334 57.8974 100.268 57.8974C99.7478 58.3313 99.4874 58.4976 99.3356 58.4976C99.1837 58.4976 99.2198 58.4326 99.2777 58.2735C99.5597 57.4563 100.341 55.4965 100.485 55.1638C100.435 55.0982 100.365 55.0503 100.286 55.0269C100.207 55.0035 100.122 55.0059 100.044 55.0336L99.7767 55.6049C99.7312 55.5299 99.6724 55.4637 99.6031 55.4097C99.5352 55.3776 99.4613 55.3603 99.3862 55.3591C99.0953 55.3709 98.813 55.4608 98.569 55.6194L98.4533 55.6917V56.0678C98.757 55.8219 98.8944 55.7351 99.1186 55.7351ZM98.4677 57.9046L98.3448 58.0204C97.853 58.4832 97.571 58.5989 97.4842 58.5989C97.3974 58.5989 97.3613 58.541 97.3613 58.4326C97.4554 57.5618 97.8461 56.7498 98.4677 56.1329V55.7568C98.0437 56.0476 97.6782 56.4156 97.3902 56.8416C96.9793 57.3388 96.7051 57.9345 96.5947 58.57C96.5947 58.8303 96.7394 59.0762 96.9925 59.0762C97.5483 58.9327 98.0506 58.6312 98.4388 58.2084L98.4677 57.9046Z" fill="white"/>
<path fill-rule="evenodd" clip-rule="evenodd" d="M101.925 57.6371C101.805 57.9102 101.729 58.2007 101.7 58.4977C101.7 58.758 101.874 59.0256 102.12 59.0256C102.648 58.9731 103.142 58.7438 103.523 58.3748C104.288 57.7157 104.8 56.8104 104.969 55.8147C104.969 55.5833 104.904 55.2651 104.622 55.2651C104.535 55.2631 104.451 55.2953 104.387 55.3548C104.324 55.4143 104.286 55.4963 104.282 55.5833C104.338 55.7884 104.364 56.0001 104.362 56.2125C104.302 56.854 104.03 57.4572 103.588 57.9264C103.351 58.2562 103.001 58.4877 102.604 58.5772C102.565 58.5766 102.526 58.5675 102.49 58.5507C102.454 58.5338 102.422 58.5096 102.396 58.4796C102.37 58.4496 102.351 58.4144 102.339 58.3764C102.328 58.3384 102.325 58.2984 102.33 58.259C102.345 58.1162 102.377 57.9755 102.424 57.8396L103.205 55.8436C103.238 55.7889 103.257 55.7267 103.259 55.6627C103.262 55.5988 103.249 55.5352 103.221 55.4776C103.193 55.4201 103.151 55.3705 103.099 55.3334C103.047 55.2963 102.986 55.2728 102.923 55.2651C102.387 55.2651 101.787 55.8509 101.476 56.2414C101.473 56.2615 101.474 56.2821 101.48 56.3017C101.485 56.3213 101.495 56.3396 101.508 56.3553C101.521 56.371 101.537 56.3838 101.555 56.3928C101.573 56.4019 101.593 56.4069 101.614 56.4077C101.896 56.0968 102.286 55.7786 102.453 55.7786C102.619 55.7786 102.575 55.8726 102.518 56.0317L101.925 57.6371Z" fill="white"/>
<path fill-rule="evenodd" clip-rule="evenodd" d="M107.986 55.7207C108.083 55.7215 108.178 55.7516 108.258 55.8071C108.338 55.8625 108.399 55.9408 108.434 56.0317C108.222 56.7232 107.839 57.35 107.32 57.8541V58.1578C107.507 57.9846 107.681 57.7985 107.841 57.6009L107.559 58.4037C107.503 58.5118 107.469 58.6296 107.458 58.7508C107.458 58.784 107.464 58.817 107.478 58.8474C107.491 58.8779 107.511 58.9052 107.535 58.9277C107.56 58.9502 107.589 58.9673 107.62 58.9779C107.652 58.9885 107.685 58.9925 107.718 58.9894C108.026 58.9348 108.319 58.8189 108.581 58.6487C108.844 58.4785 109.069 58.2575 109.244 57.9987C109.245 57.9823 109.243 57.9658 109.237 57.9504C109.231 57.935 109.222 57.921 109.21 57.9094C109.199 57.8978 109.185 57.8887 109.169 57.8829C109.154 57.8771 109.137 57.8747 109.121 57.8757C108.608 58.3313 108.34 58.4832 108.181 58.4832C108.022 58.4832 108.065 58.4254 108.116 58.2663C108.412 57.4491 109.201 55.4965 109.331 55.1638C109.282 55.0942 109.212 55.0424 109.131 55.0163C109.05 54.9902 108.963 54.9912 108.882 55.0192L108.636 55.5977C108.599 55.5168 108.535 55.4507 108.456 55.4097C108.388 55.3787 108.313 55.3639 108.239 55.3663C107.948 55.3702 107.664 55.4581 107.422 55.6194L107.299 55.6918V56.0606C107.617 55.8147 107.754 55.7207 107.986 55.7207ZM107.32 57.8902L107.226 57.977C106.706 58.4471 106.438 58.57 106.344 58.57C106.25 58.57 106.199 58.5049 106.199 58.3964C106.311 57.5297 106.705 56.724 107.32 56.104V55.6845C106.386 56.37 105.725 57.3641 105.455 58.4904C105.442 58.611 105.478 58.7316 105.554 58.8263C105.629 58.921 105.739 58.9821 105.859 58.9967C106.414 58.8583 106.917 58.5619 107.306 58.1433L107.32 57.8902Z" fill="white"/>
<path fill-rule="evenodd" clip-rule="evenodd" d="M112.346 54.0935C112.678 53.1389 112.765 52.8858 112.888 52.5531L112.83 52.5097C112.442 52.5486 112.06 52.6385 111.695 52.7773V52.9219L111.854 52.987C111.999 53.0521 112.093 53.1461 111.854 53.7608L110.408 57.9914C110.311 58.2232 110.243 58.4661 110.205 58.7145C110.205 58.8664 110.299 58.9893 110.567 58.9893C110.905 58.9465 111.228 58.8204 111.505 58.6223C111.783 58.4241 112.007 58.1601 112.158 57.854C112.159 57.8333 112.156 57.8127 112.148 57.7935C112.14 57.7744 112.128 57.7572 112.113 57.7433C112.098 57.7294 112.079 57.7191 112.06 57.7132C112.04 57.7074 112.019 57.706 111.999 57.7093C111.586 58.1866 111.16 58.6205 110.964 58.6205C110.769 58.6205 110.856 58.5338 110.921 58.324L112.346 54.0935Z" fill="white"/>
<path fill-rule="evenodd" clip-rule="evenodd" d="M115.274 55.2433C114.837 55.2606 114.423 55.4443 114.117 55.7568C113.444 56.3467 113.03 57.1783 112.967 58.071C112.967 58.7435 113.285 59.0111 113.639 59.0111C113.935 58.989 114.222 58.9016 114.479 58.7553C114.737 58.609 114.959 58.4074 115.129 58.165C115.129 58.0782 115.129 57.9986 115.013 58.0203C114.758 58.3042 114.414 58.4929 114.037 58.5555C113.835 58.5555 113.632 58.4253 113.647 57.9842C113.688 57.3276 113.897 56.6926 114.254 56.1401C114.536 55.7206 114.811 55.5254 114.977 55.5254C115.144 55.5254 115.259 55.8074 115.303 56.0316C115.304 56.0544 115.311 56.0767 115.321 56.097C115.332 56.1174 115.346 56.1355 115.364 56.1503C115.381 56.1651 115.401 56.1763 115.423 56.1832C115.445 56.1901 115.468 56.1927 115.491 56.1907C115.603 56.1908 115.712 56.147 115.792 56.0688C115.873 55.9905 115.921 55.8838 115.925 55.7713C115.954 55.4965 115.708 55.2433 115.274 55.2433Z" fill="white"/>
<path fill-rule="evenodd" clip-rule="evenodd" d="M118.825 55.6845C118.928 55.6829 119.028 55.7135 119.112 55.7718C119.197 55.8302 119.261 55.9134 119.295 56.0099C119.082 56.7072 118.7 57.3408 118.182 57.854V58.1505C118.374 57.9792 118.553 57.7931 118.717 57.5936L118.413 58.3964C118.368 58.5025 118.339 58.6145 118.326 58.729C118.325 58.7641 118.331 58.799 118.345 58.8316C118.358 58.8641 118.378 58.8936 118.403 58.9181C118.428 58.9426 118.458 58.9615 118.491 58.9738C118.524 58.9861 118.559 58.9914 118.594 58.9894C118.9 58.9311 119.192 58.8122 119.451 58.6396C119.711 58.4669 119.933 58.2441 120.105 57.9841C120.103 57.9528 120.09 57.9234 120.067 57.9019C120.044 57.8803 120.014 57.8684 119.982 57.8684C119.476 58.3168 119.201 58.4687 119.057 58.4687C118.912 58.4687 118.934 58.4108 118.984 58.2517C119.281 57.449 120.062 55.482 120.192 55.1421C120.142 55.0756 120.073 55.0269 119.993 55.0035C119.914 54.98 119.829 54.983 119.751 55.0119L119.491 55.576C119.45 55.5029 119.39 55.4427 119.317 55.4024C119.251 55.3634 119.176 55.3434 119.1 55.3446C118.809 55.3526 118.525 55.4429 118.283 55.6049L118.167 55.6772V56.0533C118.471 55.7929 118.601 55.6845 118.825 55.6845ZM118.182 57.854L118.088 57.9408C117.567 58.4108 117.285 58.5265 117.198 58.5265C117.111 58.5265 117.068 58.4759 117.068 58.3602C117.171 57.4927 117.564 56.6852 118.182 56.0677V55.6845C117.758 55.9723 117.392 56.338 117.104 56.762C116.7 57.2663 116.427 57.8624 116.309 58.4976C116.309 58.7507 116.453 59.0038 116.706 58.9966C117.26 58.8567 117.762 58.5605 118.153 58.1432L118.182 57.854Z" fill="white"/>
<path fill-rule="evenodd" clip-rule="evenodd" d="M122.882 55.5832C122.903 55.5452 122.914 55.502 122.912 55.4584C122.911 55.4148 122.897 55.3724 122.873 55.3359C122.85 55.2993 122.816 55.2701 122.777 55.2512C122.737 55.2323 122.694 55.2246 122.65 55.2289C122.377 55.2618 122.115 55.3539 121.881 55.4988C121.648 55.6437 121.449 55.8379 121.298 56.0677C121.296 56.0841 121.297 56.1007 121.302 56.1165C121.307 56.1322 121.315 56.1468 121.326 56.1591C121.337 56.1714 121.351 56.1813 121.366 56.188C121.381 56.1947 121.397 56.198 121.414 56.1979C121.633 55.9665 121.918 55.8076 122.231 55.7423C122.303 55.7423 122.303 55.8436 122.231 55.952L121.189 58.7652C121.103 58.9749 121.341 59.0038 121.457 59.0038C121.489 59.0026 121.52 58.9915 121.546 58.9721C121.572 58.9528 121.591 58.926 121.602 58.8954C121.997 58.093 122.464 57.3281 122.997 56.6101C123.496 56.0099 124.024 55.5615 124.241 55.5615C124.458 55.5615 124.386 55.6555 124.386 55.7712C124.358 55.9954 124.292 56.2132 124.191 56.4149C123.988 56.8705 123.656 57.7383 123.467 58.1794C123.279 58.6206 123.265 58.6784 123.265 58.7652C123.273 58.8206 123.299 58.872 123.337 58.9122C123.376 58.9524 123.427 58.9794 123.482 58.9894C123.797 58.9467 124.099 58.8352 124.367 58.6627C124.634 58.4903 124.861 58.2611 125.03 57.9914C125.03 57.9191 125.03 57.8612 124.878 57.8684C124.66 58.1483 124.366 58.3593 124.032 58.4759C123.974 58.4759 123.981 58.3964 124.032 58.3024C124.082 58.2083 124.711 56.7765 124.863 56.3353C124.945 56.1293 124.996 55.9125 125.015 55.6917C125.015 55.4169 124.856 55.2289 124.509 55.2289C123.786 55.2289 122.94 56.2052 122.296 57.167H122.253L122.882 55.5832Z" fill="white"/>
<path fill-rule="evenodd" clip-rule="evenodd" d="M128.769 55.7713C128.825 55.7393 128.867 55.6874 128.887 55.6259C128.907 55.5644 128.904 55.4977 128.877 55.4387H127.894L128.154 54.5636C128.107 54.5229 128.049 54.4965 127.988 54.4875C127.926 54.4786 127.864 54.4874 127.807 54.513L127.301 55.388L126.578 55.5254C126.535 55.5492 126.502 55.586 126.482 55.6303C126.463 55.6747 126.458 55.7241 126.469 55.7713H127.192L126.353 58.2374C126.283 58.395 126.241 58.564 126.23 58.7363C126.232 58.7994 126.256 58.8598 126.299 58.9064C126.341 58.9529 126.399 58.9825 126.462 58.9895C127.184 58.7942 127.804 58.3313 128.198 57.695C128.205 57.6761 128.208 57.6555 128.205 57.6353C128.203 57.615 128.195 57.5959 128.182 57.5797C128.17 57.5635 128.153 57.551 128.134 57.5433C128.115 57.5356 128.095 57.533 128.075 57.5359C127.79 57.8701 127.441 58.1432 127.048 58.3386C126.968 58.3386 126.925 58.288 126.975 58.1144L127.8 55.7713H128.769Z" fill="white"/>
<path fill-rule="evenodd" clip-rule="evenodd" d="M131.466 55.4964C131.492 55.4944 131.519 55.4979 131.544 55.5069C131.569 55.5159 131.592 55.5301 131.611 55.5485C131.63 55.567 131.645 55.5893 131.655 55.614C131.665 55.6386 131.669 55.6651 131.668 55.6917C131.628 55.931 131.505 56.1485 131.321 56.3064C131.188 56.4319 131.043 56.5433 130.887 56.639V56.95C131.705 56.639 132.218 56.2268 132.218 55.7423C132.209 55.5952 132.142 55.4577 132.033 55.359C131.923 55.2603 131.779 55.2084 131.632 55.2144C131.377 55.2241 131.128 55.2987 130.909 55.4313V55.8002C131.058 55.6314 131.264 55.5233 131.488 55.4964H131.466ZM130.887 58.6567V58.324C131.003 58.2445 131.126 58.1433 131.278 58.0203C131.296 58.0197 131.314 58.0234 131.33 58.0309C131.346 58.0384 131.361 58.0496 131.372 58.0637C131.383 58.0777 131.391 58.0942 131.395 58.1118C131.398 58.1293 131.398 58.1475 131.394 58.1649C131.248 58.3485 131.08 58.5136 130.895 58.6567H130.887ZM130.887 56.639C130.641 56.7808 130.379 56.8925 130.106 56.9717C130.268 56.5852 130.493 56.2283 130.772 55.9159L130.887 55.8002V55.4313C130.773 55.4916 130.664 55.5618 130.562 55.6411C130.18 55.9225 129.862 56.2822 129.63 56.6963C129.398 57.1103 129.257 57.5691 129.217 58.042C129.217 58.4759 129.405 58.9821 129.94 58.9821C130.283 58.9811 130.616 58.8667 130.887 58.6567V58.324C130.725 58.4549 130.524 58.5286 130.316 58.5338C130.254 58.5302 130.194 58.5141 130.138 58.4864C130.083 58.4587 130.034 58.4199 129.994 58.3725C129.954 58.3251 129.924 58.2701 129.906 58.2108C129.888 58.1515 129.882 58.0891 129.889 58.0275C129.881 57.7535 129.928 57.4805 130.027 57.2248C130.338 57.138 130.627 57.0513 130.887 56.95V56.639Z" fill="white"/>
<path fill-rule="evenodd" clip-rule="evenodd" d="M97.267 15.5266C94.3743 15.5266 91.8866 17.6962 89.3917 20.9938C86.9381 24.346 84.7199 27.8643 82.7529 31.5233H82.3552L85.2479 23.1344C86.6942 19.0991 86.4339 15.5483 81.7694 15.5483C75.9189 15.5483 70.7844 21.1891 69.1789 24.3421C69.1454 24.5585 69.1569 24.7794 69.2126 24.9911C69.2684 25.2028 69.3673 25.4007 69.503 25.5724C69.6388 25.7441 69.8085 25.886 70.0016 25.9892C70.1947 26.0923 70.407 26.1544 70.6253 26.1718C72.8671 23.6334 75.9117 21.341 77.2785 21.3337C78.1607 21.3337 78.0812 22.3606 77.6039 23.8648C75.3621 30.6771 72.4043 38.9792 70.0829 46.2833C69.2874 48.8071 72.5055 49.4363 74.5159 49.4291C76.2805 49.4291 77.8859 49.1109 78.3632 47.9827C80.916 41.814 83.1651 35.884 86.781 29.455C88.871 25.8391 90.9537 22.5704 92.3205 22.5704C92.9569 22.5704 93.3546 23.0477 93.6005 24.3928C94.0127 26.4466 94.3237 28.0086 95.9436 28.0086C98.1131 28.0086 101.23 24.7543 101.216 20.2417C101.194 17.0308 99.5812 15.5194 97.267 15.5266Z" fill="white"/>
<path fill-rule="evenodd" clip-rule="evenodd" d="M114.146 8.75038C114.146 11.455 116.004 13.5016 119.135 13.5016C122.99 13.5016 125.557 10.3992 125.55 6.76165C125.55 3.68092 123.619 1.85852 120.806 1.85852C119.009 1.89085 117.299 2.63471 116.05 3.92682C114.802 5.21893 114.116 6.95371 114.146 8.75038ZM120.256 22.4184C120.807 21.3325 121.16 20.157 121.298 18.9471C121.298 17.1971 119.367 15.4614 117.602 15.4614C113.336 15.4614 105.793 19.3593 101.461 24.5951C101.408 24.805 101.401 25.0238 101.439 25.2369C101.477 25.45 101.56 25.6525 101.682 25.831C101.805 26.0096 101.964 26.16 102.149 26.2723C102.334 26.3847 102.541 26.4564 102.756 26.4826C104.043 25.2894 108.541 21.9555 109.9 21.9555C110.298 21.9555 110.371 22.4473 110.067 23.0765L101.743 42.8119C101.21 43.8762 100.883 45.032 100.781 46.2181C100.781 47.1726 102.394 49.3711 104.477 49.3711C111.072 49.3711 118.217 44.0485 121.334 39.9264C121.388 39.6974 121.389 39.4591 121.337 39.2296C121.285 39.0001 121.18 38.7857 121.032 38.6028C120.884 38.4198 120.696 38.2732 120.483 38.1742C120.269 38.0753 120.036 38.0265 119.801 38.0317C117.798 39.9337 113.379 43.0216 112.265 43.0289C111.701 43.0289 111.614 42.5588 111.933 41.8429L120.256 22.4184Z" fill="white"/>
<path d="M28.8402 10.6813L31.2195 5.149C32.0873 3.2109 32.8394 1.49697 33.3456 0C31.8375 0.0213629 30.3324 0.142154 28.8402 0.361587C20.8827 1.52237 13.6024 5.48986 8.31365 11.5478C3.0249 17.6057 0.0762377 25.3549 0 33.3962C0.020165 41.918 3.33133 50.1026 9.24218 56.2413L12.0192 49.8991L24.2336 21.4132L28.8402 10.6813Z" fill="white"/>
<path d="M28.8407 25.7956L25.2249 34.7846C23.6773 38.4005 24.0605 38.4005 27.1051 38.4005H28.8407H40.3609C43.9334 38.4005 44.4468 38.1329 43.5501 35.1318L38.7916 20.0897C36.8752 13.4293 36.2026 11.05 35.6024 10.175H35.3421C34.8069 11.05 33.6643 14.1886 31.1332 20.0969L28.8407 25.7956Z" fill="white"/>
<path d="M50.1585 4.10044C49.7463 3.88349 49.3341 3.66654 48.9219 3.46405C49.3269 4.85255 49.7246 6.23381 50.1585 7.59338L50.3321 8.12853L63.2769 49.8991C66.2034 44.8459 67.7333 39.1054 67.7099 33.2661C67.6821 27.2746 66.0365 21.4019 62.9472 16.2683C59.8579 11.1347 55.4394 6.93071 50.1585 4.10044Z" fill="white"/>
<path d="M46.8974 47.4113C45.7475 44.0268 45.3715 44.0268 41.8352 44.0413H28.8759H24.2331C21.5501 44.0413 21.5863 44.2727 20.393 47.4402L15.1211 61.1154C17.9335 62.9596 21.0044 64.3756 24.2331 65.3171C25.7432 65.7577 27.2826 66.0912 28.8397 66.315C36.1649 67.398 43.6439 66.0813 50.1589 62.5618C50.5711 62.3376 50.9833 62.0989 51.3955 61.8386L50.1589 57.8684L46.8974 47.4113Z" fill="white"/>
</g>
<defs>
<clipPath id="clip0">
<rect width="135" height="66.6839" fill="white"/>
</clipPath>
</defs>
</svg>
